<?xml version="1.0" encoding="UTF-8"?><svg id="a" xmlns="http://www.w3.org/2000/svg" viewBox="0 0 300 300"><defs><style>.b{fill:#1d2426;}.c{fill:#edb128;}</style></defs><circle class="b" cx="150" cy="150" r="150"/><g><path class="c" d="M204.02,220.5c0-5.43-.06-10.57,.04-15.7,.03-1.44-.4-1.72-1.76-1.72-45.8,.04-91.59,.03-137.39,.02-1.48,0-3.52,.47-4.28-.3-.76-.77-.29-2.8-.29-4.28-.02-5.69,.03-11.37-.04-17.06-.01-1.13,.29-1.37,1.39-1.37,8.08,.05,16.15,.03,24.42,.03-1.28-2.02-2.71-3.8-3.63-5.81-2.05-4.49-3.93-9.06-5.7-13.67-.44-1.15-.92-1.74-2.1-2.01-2.5-.56-5-1.18-7.46-1.91-.48-.14-1.1-.89-1.1-1.36-.07-6.46-.03-12.93-.07-19.4,0-.98,.32-1.32,1.26-1.52,2.56-.56,5.09-1.28,7.65-1.89,.88-.21,1.39-.52,1.65-1.54,1.29-5.06,3.31-9.82,5.91-14.36,.3-.52,.28-1.5-.01-2.04-1.28-2.36-2.69-4.65-4.11-6.93-.47-.76-.56-1.26,.17-1.97,4.61-4.53,9.15-9.14,13.77-13.66,.34-.34,1.31-.45,1.74-.22,2.36,1.29,4.6,2.78,6.97,4.05,.59,.32,1.63,.38,2.19,.07,4.49-2.54,9.18-4.58,14.19-5.84,1.04-.26,1.46-.74,1.68-1.73,.58-2.56,1.33-5.08,1.89-7.65,.21-.97,.6-1.23,1.55-1.23,6.41,.04,12.81,.05,19.22,0,1.08,0,1.41,.37,1.63,1.36,.57,2.56,1.22,5.11,1.97,7.63,.18,.59,.82,1.3,1.38,1.46,5.01,1.45,9.84,3.32,14.31,6.03,.84,.51,1.45,.49,2.26-.02,2.22-1.4,4.53-2.67,6.75-4.07,.84-.53,1.35-.59,2.11,.19,4.49,4.57,9.02,9.1,13.58,13.59,.69,.68,.74,1.17,.24,1.97-1.4,2.23-2.68,4.52-4.09,6.74-.54,.85-.51,1.47-.09,2.42,2.05,4.62,4.02,9.28,5.85,13.99,.4,1.03,.82,1.53,1.86,1.77,2.56,.59,5.09,1.32,7.65,1.89,.89,.2,1.13,.57,1.13,1.45-.03,6.47-.04,12.93,0,19.4,0,1.01-.38,1.3-1.28,1.51-2.67,.63-5.33,1.33-7.97,2.09-.46,.13-1.06,.61-1.18,1.04-1.93,7.23-5.12,13.85-9.69,20.08,.52,.04,.84,.08,1.16,.08,7.72,0,15.45-.03,23.17,.04,1.29,.01,1.56-.35,1.54-1.58-.07-5.19-.03-10.37-.03-15.88,.53,.4,.85,.62,1.15,.87,11.26,9,22.51,18.02,33.79,27,.92,.73,1.27,1.11,.11,2.03-11.43,9.08-22.82,18.21-34.22,27.33-.18,.14-.38,.26-.84,.58Zm-50.46-40.39c5.37,0,10.97,.02,16.57-.04,.47,0,1.03-.52,1.38-.93,5.73-6.72,9.54-14.41,11.3-23.07,.25-1.22,.7-1.84,1.96-2.09,2.16-.42,4.29-1.06,6.43-1.58,.88-.21,1.4-.47,1.36-1.63-.12-3.41-.09-6.82-.01-10.23,.03-1.06-.32-1.46-1.3-1.67-2.27-.5-4.51-1.16-6.79-1.64-.96-.2-1.4-.63-1.57-1.58-1.28-6.84-4.01-13.09-7.79-18.92-.32-.49-.3-1.48-.02-2.01,1.16-2.16,2.52-4.2,3.7-6.35,.22-.4,.12-1.27-.19-1.59-2.44-2.55-4.99-5-7.44-7.54-.62-.64-1.05-.72-1.81-.24-2.06,1.32-4.16,2.59-6.31,3.76-.49,.27-1.42,.29-1.86,0-5.86-3.85-12.18-6.56-19.08-7.88-1-.19-1.35-.7-1.55-1.6-.52-2.27-1.13-4.52-1.65-6.79-.2-.86-.51-1.26-1.52-1.24-3.47,.08-6.94,.08-10.42,0-1.03-.02-1.31,.42-1.51,1.26-.53,2.27-1.17,4.51-1.64,6.79-.22,1.05-.76,1.46-1.74,1.64-6.72,1.27-12.89,3.91-18.56,7.7-.87,.58-1.48,.65-2.38,.06-1.95-1.27-4-2.38-5.98-3.61-.75-.47-1.24-.59-1.96,.16-2.4,2.51-4.86,4.96-7.37,7.36-.71,.69-.7,1.17-.2,1.96,1.28,2.02,2.54,4.05,3.65,6.16,.28,.53,.28,1.52-.04,2.01-3.78,5.83-6.51,12.08-7.79,18.92-.18,.96-.64,1.39-1.58,1.6-2.33,.52-4.63,1.17-6.96,1.7-.85,.19-1.13,.55-1.11,1.43,.07,2.15,.01,4.31,.02,6.46,0,1.67-.59,3.86,.24,4.88,.88,1.09,3.09,1.29,4.77,1.5,3.23,.4,4.52,2,5.35,5.26,5.86,23.02,26.32,38.8,50.07,38.86,25.26,.06,50.53,.03,75.79-.02,1.39,0,1.8,.32,1.75,1.74-.12,3.08-.04,6.17-.04,9.53,.46-.36,.68-.52,.9-.69,6.4-5.12,12.78-10.26,19.22-15.33,1.14-.9,.81-1.27-.11-2-6.33-5.01-12.63-10.07-18.94-15.11-.29-.23-.63-.41-1.07-.7,0,3.2-.09,6.2,.04,9.18,.06,1.52-.26,1.97-1.9,1.96-24.96-.06-49.93-.04-74.89-.06-1.79,0-3.59-.1-5.37-.29-22.63-2.52-38.79-23.6-35.27-45.99,3.53-22.46,24.53-37.57,46.99-33.43,15.17,2.8,25.65,11.82,30.72,26.31,5.08,14.52,2.22,27.98-7.82,39.67-2.56,2.98-5.82,5.38-8.71,8Zm13.1-34.53c-.02-18.98-15.5-34.44-34.48-34.44-18.99,0-34.47,15.46-34.48,34.44-.02,19.06,15.51,34.57,34.57,34.53,18.97-.04,34.41-15.54,34.4-34.53Zm-60.05,51.77c-5.4-3.08-10.4-6.6-14.8-10.95-.33-.33-.94-.52-1.42-.52-7.72-.03-15.45,0-23.17-.05-1,0-1.17,.34-1.16,1.23,.05,3.05,.06,6.11,0,9.16-.02,1.01,.36,1.15,1.23,1.15,13.11-.02,26.22-.02,39.33-.02Z"/><path class="c" d="M135.05,127.37c0,2.93,.03,5.87-.02,8.8-.02,.92,.2,1.44,1.11,1.91,3.84,2,5.4,5.97,4.27,10.18-.15,.58,.06,1.5,.47,1.93,2.21,2.35,4.51,4.63,6.84,6.87,.76,.72,.72,1.17-.03,1.82-1.08,.94-2.05,2.72-3.11,2.76-1.01,.03-2.11-1.69-3.12-2.68-1.59-1.54-3.1-3.17-4.73-4.66-.41-.38-1.25-.62-1.78-.48-4.63,1.23-8.94-.69-10.69-4.86-1.77-4.2-.1-8.6,4.05-11.01,.5-.29,.96-1.14,.97-1.73,.07-5.98,.07-11.97,.02-17.95,0-1.06,.19-1.41,1.35-1.41,4.42,0,4.42-.05,4.42,4.41,0,2.03,0,4.07,0,6.1Zm0,18.32c.04-1.54-1.21-2.87-2.75-2.93-1.54-.06-2.89,1.16-2.98,2.71-.09,1.61,1.22,3.01,2.84,3.02,1.54,.01,2.85-1.25,2.89-2.8Z"/><path class="c" d="M107.54,147.15c1.76-.09,2.1,.59,2.37,4.18,.06,.74-3.31,2.7-4.7,2.09-1.93-.84-1.67-3.33-1.51-4.95,.27-2.6,2.91-.23,3.84-1.32Z"/><path class="c" d="M109.17,141.91c-1.78-.27-3.26-.45-4.72-.74-.23-.04-.44-.54-.51-.86-.06-.26,.12-.57,.18-.87,.99-4.72,.97-4.67,5.36-2.93,1.09,.43,1.36,.83,.87,1.92-.39,.86-.49,1.84-.77,2.75-.09,.3-.32,.57-.41,.73Z"/><path class="c" d="M115.08,161.09c-.35,.26-.76,.51-1.1,.82-3.45,3.16-3.42,3.15-6.01-.78-.69-1.05-.93-1.62,.5-2.36,3.92-2.02,3.87-2.11,6.13,1.66,.09,.15,.21,.29,.48,.65Z"/></g></svg>