<?xml version="1.0" encoding="UTF-8"?><svg id="a" xmlns="http://www.w3.org/2000/svg" viewBox="0 0 300 300"><defs><style>.b{fill:#1d2426;}.c{fill:#edb128;}</style></defs><circle class="b" cx="150" cy="150" r="150"/><g><path class="c" d="M211.13,79.5c2.61,.69,4.99,1.76,6.75,3.91,1.86,2.26,2.63,4.85,2.62,7.77-.02,17.39-.01,34.79-.01,52.18,0,12.85,0,25.7,0,38.55,0,6.16-2.41,9.67-8.17,11.74-.76,.27-.64,.73-.64,1.25,0,4.64,0,9.27,0,13.91,0,7.05-4.67,11.69-11.74,11.7-14.23,0-28.45,0-42.68,0-6.97,0-11.66-4.68-11.67-11.63,0-28.96,0-57.92,0-86.88,0-6.96,4.68-11.64,11.65-11.64,14.27,0,28.55,0,42.82,0,6.95,0,11.61,4.69,11.62,11.68,0,21.85,0,43.69,0,65.54v1.51c2.32-.48,4.21-2.9,4.39-5.55,.03-.5,.02-1.01,.02-1.51,0-30.15-.05-60.31,.06-90.46,.02-4.48-2.94-7.71-7.77-7.7-32.91,.11-65.81,.05-98.72,.09-1.24,0-1.69-.29-1.54-1.55,.11-.95,.02-1.92,.02-2.89h102.99Zm-61.13,84.81c0,12.43,.01,24.87-.02,37.3,0,.99,.18,1.29,1.24,1.29,18.26-.04,36.52-.04,54.78,0,1.14,0,1.3-.37,1.3-1.37-.03-17.8-.02-35.6-.02-53.4,0-7.07-.02-14.13,.03-21.2,0-.98-.25-1.21-1.2-1.19-2.93,.07-5.87,.07-8.81,0-.94-.02-1.3,.23-1.55,1.17-1.09,4.02-3.07,5.47-7.23,5.47-6.74,0-13.49,0-20.23,0-.64,0-1.3,0-1.91-.14-2.87-.65-4.18-2.78-4.86-5.39-.22-.86-.57-1.12-1.46-1.1-2.89,.07-5.78,.09-8.67,0-1.16-.04-1.41,.28-1.4,1.42,.05,12.39,.03,24.77,.03,37.16Zm28.64-49.56c-7.3,0-14.59-.01-21.89,0-3.37,0-6.02,2.22-6.66,5.44-.17,.83-.11,1.21,.94,1.19,3.95-.07,7.89-.04,11.84-.02,1.66,0,2.42,.74,2.57,2.38,.06,.64,.14,1.28,.29,1.9,.44,1.89,1.01,2.32,2.94,2.32,6.7,0,13.4,0,20.1,0,1.72,0,2.27-.39,2.73-2.06,.17-.61,.28-1.25,.34-1.89,.2-2.04,.84-2.65,2.86-2.66,3.85,0,7.71-.04,11.56,.02,1.05,.02,1.1-.37,.93-1.2-.65-3.23-3.29-5.42-6.66-5.43-7.3-.02-14.59,0-21.89,0Zm0,92.53c-6.06,0-12.12,0-18.17,0-3.17,0-6.33,0-9.5,0-.48,0-.93-.15-.99,.68-.39,4.93,2.47,8.12,7.39,8.13,14.13,0,28.27,0,42.4,0,4.94,0,7.49-2.62,7.53-7.57,0-1.03-.25-1.27-1.27-1.26-9.13,.04-18.26,.03-27.4,.03Z"/><path class="c" d="M94.92,79.5c-.02,1.42,.49,3.27-.21,4.13-.73,.89-2.66,.24-4.06,.27-3.86,.08-6.73,2.85-6.74,6.69-.02,26.8,0,53.59-.04,80.39,0,1.15,.54,1.07,1.32,1.07,18.12-.01,36.25,0,54.37-.04,1.26,0,1.72,.18,1.66,1.58-.13,2.85-.04,2.85-2.83,2.85-17.71,0-35.42,.01-53.13-.03-1.19,0-1.45,.32-1.38,1.43,.1,1.6,.02,3.21,.03,4.82,.02,4.2,2.78,6.99,6.98,6.99,15.28,0,30.56,0,45.84,0,1.19,0,2.39,.05,3.58-.02,.75-.04,.89,.23,.9,.92,.07,3.5,.09,3.5-3.41,3.5-3.12,0-6.24,.03-9.36-.02-.74-.01-1.07,.21-1.17,.92-.17,1.16-1.12,2.47-.56,3.35,.33,.52,2.06,.15,3.15,.16,3.44,0,6.88,.02,10.32-.01,.73,0,1.01,.12,1.02,.95,.05,3.48,.08,3.48-3.44,3.48-4.54,0-9.08,0-13.63,0-2.24,0-3.57,1.99-2.78,4.08,.23,.6,.71,.3,1.05,.3,5.83,.02,11.65,.05,17.48-.01,1.12-.01,1.34,.32,1.32,1.36-.06,3.08-.02,3.08-3.14,3.08-6.06,0-12.11,0-18.17,0-2.24,0-2.94-.71-2.94-2.97,0-1.24-.03-2.48,0-3.72,.09-2.66,1.32-4.67,3.71-5.81,.9-.43,1.33-.95,1.5-1.87,.2-1.07,.49-2.11,.76-3.26h-10.42c-7.02,0-14.04,0-21.06,0-6.31,0-10.2-3.03-11.78-9.16-.02-.08-.11-.14-.17-.2,0-31.94,0-63.89,0-95.83,.08-.2,.2-.4,.25-.61,.74-3.31,2.62-5.77,5.56-7.44,1.12-.64,2.39-.83,3.55-1.32h6.06Z"/><path class="c" d="M88.86,79.5c-1.17,.48-2.43,.68-3.55,1.32-2.94,1.68-4.82,4.13-5.56,7.44-.05,.21-.16,.4-.25,.61v-9.36h9.36Z"/><path class="c" d="M103.73,79.5c0,.37,0,.73,0,1.1,0,3.64,0,3.63-3.72,3.32-.53-.04-.71-.17-.7-.71,.03-1.24,.01-2.48,.01-3.72h4.41Z"/><path class="c" d="M100.54,92.33c1.3-.05,1.9,.83,2.64,1.5,.5,.46,.91,1.39,1.52,1.27,1.14-.24,2.23-.81,3.28-1.36,.36-.19,.14-.76,.15-1.16,.03-4.06,.23-4.26,4.27-4.26,2.16,0,4.31-.02,6.47,0,1.63,.02,2.67,.87,2.44,2.44-.35,2.4,.63,3.56,2.83,4.12,.59,.15,.97,.28,1.41-.25,.47-.56,1.01-1.06,1.55-1.56,1.12-1.04,2.29-1.05,3.39,.04,2,1.96,3.98,3.93,5.93,5.94,1.06,1.09,1.17,2.46-.05,3.36-2.04,1.49-2.07,3.06-.89,5.04,.3,.5,.52,.74,1.11,.71,.82-.05,1.65-.06,2.47,0,1.27,.1,2.08,.84,2.1,2.11,.06,2.98,.06,5.96,0,8.94-.02,1.27-.82,1.98-2.09,2.14-.09,.01-.19,.02-.27,0-2.28-.46-3.64,.39-4.16,2.72-.14,.64-.26,1.03,.28,1.51,3.61,3.19,2.54,3.93-.13,6.51-1.42,1.37-2.78,2.8-4.19,4.18-1.24,1.21-2.36,1.22-3.59,.07-2.3-2.14-2.29-2.11-5.13-.78-.51,.24-.52,.53-.51,.95,0,.83,.04,1.65-.01,2.48-.07,1.3-.89,2.16-2.19,2.18-2.93,.05-5.87,.04-8.81,0-1.31-.02-2.1-.87-2.21-2.17,0-.09,0-.18,0-.28-.1-3.1-.11-3.07-3.03-4.22-.52-.21-.75-.03-1.05,.27-.62,.62-1.2,1.27-1.87,1.83-.98,.82-2.06,.85-2.98-.04-2.14-2.07-4.26-4.17-6.32-6.33-.88-.92-.79-1.99,.02-2.98,.09-.11,.17-.22,.28-.3,1.74-1.21,2.17-2.58,.97-4.53-.48-.77-.78-1.19-1.68-1.07-.5,.06-1.01,.02-1.51,.01-1.88-.02-2.66-.8-2.67-2.68-.01-2.66-.02-5.32,0-7.98,.01-1.71,.82-2.51,2.52-2.55,3.14-.08,3.11-.09,4.17-3.09,.16-.46,.03-.66-.24-.93-.59-.58-1.19-1.15-1.74-1.76-.95-1.04-1-2.2-.05-3.18,2.04-2.11,4.14-4.16,6.22-6.24,.41-.41,.92-.58,1.35-.61Zm.17,4.89c-.64,.81-1.01,1.39-1.49,1.88-1.58,1.63-1.6,1.61-.04,3.22,1.18,1.22,1.29,1.94,.44,3.42-.87,1.52-1.56,3.1-1.97,4.81-.32,1.33-1.13,2.01-2.54,2.02-2.4,.03-2.4,.05-2.4,2.54q0,1.85,1.87,1.85c2.15,0,2.58,.33,3.17,2.43,.44,1.55,1.08,3.01,1.88,4.4,.85,1.48,.73,2.19-.46,3.42q-1.55,1.6-.03,3.11t3.12,.04c1.25-1.22,1.95-1.35,3.41-.52,1.52,.87,3.1,1.57,4.8,1.98,1.4,.34,2.08,1.16,2.08,2.64,0,2.33,.03,2.33,2.34,2.33h.14q1.91,0,1.91-1.94c0-2.05,.36-2.51,2.37-3.08,1.59-.45,3.12-1.07,4.52-1.95,1.25-.78,2.3-.57,3.32,.45,1.62,1.61,1.64,1.59,3.2,.03q1.51-1.51,.04-3.02c-1.32-1.34-1.41-1.98-.47-3.64,.85-1.48,1.5-3.03,1.9-4.69,.32-1.33,1.13-2,2.55-2.01,2.4-.02,2.4-.05,2.4-2.41q0-1.97-2.01-1.98c-1.8,0-2.52-.43-2.9-1.9-.47-1.83-1.19-3.55-2.16-5.17-.65-1.09-.47-2.06,.41-2.99,1.72-1.81,1.7-1.82-.06-3.6q-1.27-1.28-2.63,.06c-1.52,1.51-2.09,1.59-3.97,.52-1.4-.8-2.88-1.38-4.43-1.8-1.56-.42-2.05-1.06-2.08-2.62q-.05-2.34-2.35-2.34h-.14q-1.92,0-1.92,1.93c0,2.05-.36,2.52-2.36,3.09-1.32,.38-2.6,.87-3.81,1.53-2.46,1.33-2.68,1.3-4.7-.74-.29-.29-.48-.66-.96-1.33Z"/><path class="c" d="M112.54,165c0-1.28-.03-2.57,0-3.85,.04-1.46,.86-2.26,2.32-2.34,.05,0,.09,0,.14,0,3.1-.1,3.09-.11,4.2-3.04,.16-.42,.16-.67-.17-.94-.14-.12-.26-.26-.39-.39-2.92-2.96-2.92-3.14,.06-6.13,1.46-1.46,2.91-2.93,4.38-4.37,1.29-1.27,2.4-1.27,3.69-.06,2.26,2.13,2.42,2.13,5.15,.7,.45-.24,.43-.51,.43-.86,0-.83-.03-1.65,.01-2.48,.07-1.37,.89-2.22,2.27-2.24,2.66-.04,5.32,0,7.98-.03,.61,0,.74,.19,.77,.78,.19,3.64,.21,3.64-3.4,3.64-.09,0-.18,0-.28,0-.92,0-2.05-.32-2.69,.11-.72,.48-.18,1.69-.25,2.59-.09,1.16-.69,1.9-1.77,2.18-1.92,.49-3.71,1.26-5.43,2.25-1.18,.69-2.16,.26-3.07-.65-1.57-1.58-1.59-1.56-3.1-.04q-1.57,1.57-.05,3.11c1.25,1.27,1.36,1.97,.46,3.53-.81,1.4-1.42,2.86-1.86,4.41-.56,1.98-1.04,2.35-3.09,2.35q-1.92,0-1.92,1.93c0,1.28-.04,2.57,.01,3.85,.03,.67-.2,.82-.85,.84-3.58,.13-3.58,.15-3.58-3.47,0-.46,0-.92,0-1.38Z"/><path class="c" d="M186.48,88.31c4.36,0,8.72,.03,13.08-.02,.9-.01,1.13,.23,1.13,1.12-.02,3.3,.02,3.3-3.33,3.3-8.03,0-16.06-.02-24.09,.03-1.03,0-1.29-.24-1.27-1.27,.06-3.16,.01-3.17,3.2-3.17h11.29Z"/><path class="c" d="M130.1,165.42q-2.36,0-1.87-2.38c.95-4.56,5.06-8.19,9.71-8.62,.86-.08,1.19,.14,1.04,1-.02,.13,0,.27,0,.41,0,.87,.24,1.84-.07,2.58-.34,.81-1.49,.47-2.25,.8-2.17,.94-3.69,2.46-4.07,4.8-.2,1.23-.66,1.61-1.8,1.4-.22-.04-.46,0-.69,0Z"/><path class="c" d="M103.71,185.25c-1.88,0-3.76-.04-5.64,.02-.81,.03-.96-.26-.96-1-.03-3.42-.06-3.42,3.35-3.42,2.94,0,5.87,.02,8.81-.02,.76,0,1.11,.07,1.11,1,0,3.42,.05,3.42-3.36,3.42-1.1,0-2.2,0-3.3,0Z"/><path class="c" d="M207.41,88.31q2.07,0,2.07,2.06,0,2.35-2.34,2.35-2.07,0-2.07-2.06,0-2.35,2.34-2.35Z"/><path class="c" d="M88.31,182.94q0-2.09,2.17-2.09t2.23,2.17-2.17,2.23-2.23-2.31Z"/><path class="c" d="M154.4,165.49c.02-13.54,10.85-24.31,24.43-24.3,13.26,0,24.08,11,24.03,24.43-.05,13.17-10.97,24.04-24.16,24.04-13.4,0-24.32-10.86-24.3-24.16Zm4.4-.16c0,10.99,8.84,19.89,19.78,19.9,10.96,.01,19.84-8.83,19.87-19.81,.04-10.85-8.88-19.82-19.71-19.84-10.99-.02-19.93,8.84-19.94,19.74Z"/><path class="c" d="M178.63,119.16c2.62,0,5.23,.03,7.85-.02,.78-.01,.98,.21,.99,.98,.04,3.44,.07,3.44-3.33,3.44-4.4,0-8.81-.03-13.21,.02-.9,0-1.13-.23-1.13-1.12,.02-3.3-.02-3.3,3.33-3.3,1.84,0,3.67,0,5.51,0Z"/><path class="c" d="M178.64,209.48c2.62,0,5.23,.03,7.85-.02,.78-.01,.98,.21,.98,.99,.04,3.44,.07,3.44-3.33,3.44-4.4,0-8.81-.03-13.21,.02-.9,.01-1.13-.23-1.12-1.13,.02-3.3-.02-3.3,3.33-3.3,1.84,0,3.67,0,5.51,0Z"/><path class="c" d="M114.7,103.74c6.07-.02,11.06,4.92,11.06,10.96,0,6.09-4.9,11.03-10.97,11.06-6.06,.04-11.04-4.9-11.06-10.97-.02-6.08,4.9-11.04,10.96-11.06Zm6.65,10.97c0-3.58-2.99-6.56-6.57-6.56-3.67,0-6.65,2.99-6.63,6.64,.02,3.59,2.98,6.55,6.57,6.56,3.65,.02,6.63-2.97,6.63-6.64Z"/><path class="c" d="M196.25,158.74c.02,.74-.33,1.32-.83,1.82-6.49,6.49-12.97,12.98-19.47,19.46-1.17,1.17-2.3,1.14-3.49-.04-3.55-3.52-7.09-7.06-10.61-10.61-1.17-1.19-1.17-2.29,0-3.48,2.05-2.1,4.13-4.17,6.23-6.23,1.19-1.17,2.27-1.15,3.49-.01,.6,.56,1.24,1.11,1.74,1.76,.71,.93,1.19,.67,1.89-.04,3.37-3.44,6.8-6.83,10.21-10.23,1.55-1.54,2.53-1.55,4.08,0,1.92,1.91,3.83,3.83,5.75,5.74,.53,.53,.99,1.09,1.02,1.88Zm-5.37,.08c-.2-.23-.37-.44-.55-.62-.68-.69-1.41-1.32-2.03-2.06-.62-.74-1.03-.7-1.7,0-3.4,3.47-6.86,6.89-10.3,10.33-1.6,1.59-2.56,1.58-4.18-.03-.59-.58-1.19-1.15-1.74-1.76-.4-.44-.69-.45-1.11,0-.71,.77-1.43,1.56-2.24,2.23-.71,.6-.52,.95,.05,1.5,2.17,2.11,4.31,4.25,6.42,6.42,.51,.52,.81,.65,1.4,.05,5.1-5.15,10.23-10.26,15.35-15.39,.19-.19,.37-.39,.62-.65Z"/></g></svg>