<?xml version="1.0" encoding="UTF-8"?><svg id="a" xmlns="http://www.w3.org/2000/svg" viewBox="0 0 300 300"><defs><style>.b{fill:#1d2426;}.c{fill:#edb128;}</style></defs><circle class="b" cx="150" cy="150" r="150"/><g><path class="c" d="M220.5,197.09s-.12,.02-.12,.05c-1.51,4.59-4.86,6.02-9.46,5.98-14.92-.11-29.83-.03-44.75-.07-1.06,0-1.38,.23-1.35,1.33,.08,3.62,.06,7.25,0,10.88-.01,.9,.23,1.14,1.13,1.13,3.4-.05,6.79-.03,10.19-.02,1.77,0,2.58,.69,2.55,2.13-.04,1.37-.81,1.99-2.55,1.99-17.44,0-34.88,0-52.32,0-1.7,0-2.49-.66-2.5-2.05,0-1.39,.79-2.08,2.46-2.08,3.4,0,6.79-.04,10.19,.02,.93,.02,1.24-.17,1.22-1.18-.07-3.58-.08-7.16,0-10.74,.03-1.13-.24-1.43-1.4-1.43-15.33,.04-30.66,.03-45.99,.03-4.36,0-7.44-2.44-8.17-6.45-.1-.54-.11-1.09-.11-1.64,0-18.4,0-36.81,0-55.21,0-2.03,1.16-3.15,2.71-2.47,.59,.26,1.01,1.03,1.37,1.66,.18,.31,.04,.81,.04,1.22,0,13.36,.02,26.71-.04,40.07,0,1.27,.37,1.45,1.51,1.45,36.63-.03,73.25-.03,109.88-.02,1.86,0,2.64,.6,2.67,2.01,.02,1.2-.68,2-1.88,2.1-.46,.04-.92,.01-1.38,.01-36.4,0-72.79,0-109.19-.03-1.35,0-1.67,.33-1.61,1.64,.12,2.56,.02,5.14,.04,7.71,.02,2.36,1.39,3.74,3.75,3.84,.23,.01,.46,0,.69,0,41.26,0,82.52,0,123.78-.04,1.08,0,2.36-.28,3.17-.91,.71-.55,1.2-1.77,1.25-2.72,.16-2.84,.03-5.69,.08-8.53,.01-.81-.25-.98-1.01-.97-2.8,.04-5.6,.02-8.4,.01-1.69,0-2.49-.66-2.5-2.04-.01-1.4,.77-2.07,2.46-2.07,2.8,0,5.6-.04,8.4,.02,.87,.02,1.05-.24,1.05-1.07-.02-20.38-.02-40.76-.02-61.13,0-2.53-1.38-3.92-3.91-3.93-18.04,0-36.07,0-54.11-.03-.93,0-1.13,.28-1.12,1.16,.04,3.95,.04,7.89,0,11.84,0,.81,.16,1.1,1.05,1.1,10.37-.03,20.75-.03,31.12,0,.76,0,1.02-.27,1.16-.98,.26-1.25,.69-2.47,.98-3.72,.28-1.22,1.05-1.81,2.25-1.82,3.26-.03,6.52-.04,9.78,0,1.44,.02,2.17,.82,2.14,2.13-.03,1.31-.74,1.95-2.28,1.97-2.39,.03-4.77,.04-7.16-.01-.76-.02-1.13,.17-1.34,.95-3.54,13.45-7.11,26.9-10.67,40.35-.22,.84-.25,1.73-.5,2.56-.92,3.12-3.79,5.43-6.93,5.63-3.49,.23-6.63-1.59-7.95-4.74-.36-.86-.74-1.15-1.67-1.14-3.81,.06-7.62,.05-11.43,0-.84-.01-1.25,.21-1.61,1.02-1.38,3.16-3.87,4.85-7.32,4.84-3.45,0-5.92-1.73-7.29-4.89-.33-.77-.71-1.05-1.5-.97-.54,.05-1.11,.04-1.64-.06-1.19-.21-1.7-1.03-1.63-2.18,.07-1.1,.67-1.96,1.81-1.82,1.86,.22,2.71-.54,3.57-2.17,1.44-2.73,4.05-3.98,7.12-3.8,3.18,.18,5.57,1.8,6.84,4.75,.4,.92,.84,1.19,1.79,1.18,3.76-.05,7.53-.04,11.29,0,.82,0,1.25-.15,1.6-1.01,1.97-4.73,7.47-6.37,11.81-3.54,.79,.51,.94,.49,1.18-.44,.6-2.41,.66-2.4-1.82-2.4-24.46,0-48.93,0-73.39,0-2.62,0-3.31-.79-2.85-3.33,.67-3.74,1.37-7.48,2.05-11.22,.1-.54,.18-1.09,.18-1.63,.01-8.81,0-17.62,.03-26.44,0-.96-.22-1.21-1.19-1.2-5.69,.05-11.38,.02-17.07,.03-2.71,0-4.05,1.35-4.06,4.05-.01,2.89,0,5.78,0,8.67,0,1.52-.77,2.38-2.05,2.39-1.28,0-2.07-.86-2.07-2.37-.02-3.12-.05-6.24,.01-9.36,.08-4.2,3.39-7.47,7.58-7.49,5.78-.03,11.57-.06,17.35,.03,1.32,.02,1.54-.41,1.52-1.59-.07-3.67-.03-7.34-.03-11.01,0-2.56,.57-3.11,3.18-3.11,3.81,0,7.62-.02,11.43,.02,.81,0,1.12-.15,1.09-1.04-.07-2.11-.04-4.22-.02-6.33,.05-4.4,2.79-7.73,7.13-8.7,.12-.03,.21-.13,.32-.2h6.06c.05,.07,.09,.18,.16,.2,4.71,1.25,7.14,4.36,7.18,9.24,.01,1.93,.05,3.85-.02,5.78-.03,.83,.18,1.08,1.05,1.07,3.71-.05,7.43-.03,11.14-.02,1.86,0,2.57,.71,2.58,2.57,.01,3.85,.06,7.7-.03,11.55-.03,1.23,.26,1.58,1.55,1.58,17.93-.05,35.86-.03,53.78-.03,3.99,0,6.79,2.2,7.74,6.04,.03,.11,.15,.2,.23,.3v.28c-.09,.43-.26,.85-.26,1.28-.01,25.31-.01,50.62,0,75.93,0,.43,.17,.85,.26,1.28v.55Zm-82.25-41.92c-.18-.54-.32-1.01-.48-1.48-2.41-6.86-4.84-13.72-7.25-20.58-.84-2.39-.05-3.5,2.49-3.5,6.29,0,12.58-.02,18.86,.02,.88,0,1.27-.09,1.26-1.15-.05-9.18-.04-18.36,0-27.54,0-.83-.18-1.1-1.05-1.08-2.89,.06-5.78,.04-8.67,0-.7,0-.99,.16-.94,.91,.05,.73,.04,1.47-.04,2.2-.14,1.21-.96,1.77-2.1,1.73-1.13-.04-1.9-.64-1.95-1.88-.02-.5-.08-1.02,0-1.51,.15-1.11-.18-1.5-1.38-1.46-2.8,.1-5.6,.02-8.4,.04-.91,0-2.05-.24-2.64,.21-.44,.34-.16,1.62-.19,2.47,0,.14,0,.28-.03,.41-.21,1.19-.99,1.77-2.13,1.72-1.13-.05-1.9-.64-1.96-1.88-.03-.64-.05-1.29,0-1.93,.06-.73-.1-1.05-.95-1.04-3.21,.05-6.43,.05-9.64,0-.79-.01-.98,.23-.98,1,.02,13.36,.02,26.71,0,40.07,0,.86,.23,1.08,1.07,1.06,3.35-.05,6.7-.04,10.05-.01,1.6,.01,2.49,1.16,2.08,2.64-.32,1.17-1.22,1.49-2.33,1.49-3.4-.01-6.79-.02-10.19,.02-.38,0-1.04,.33-1.1,.6-.58,2.78-1.06,5.57-1.58,8.43h30.18Zm-3.05-21.38c.06,.22,.1,.39,.16,.56,2.34,6.69,4.7,13.37,7.01,20.07,.25,.71,.64,.83,1.31,.82,12.94-.02,25.88-.02,38.81,0,.8,0,1.09-.24,1.28-.99,1.03-4.03,2.1-8.06,3.17-12.08,.74-2.77,1.48-5.54,2.24-8.39h-53.98Zm14.95,69.3c-3.25,0-6.51,.02-9.76-.02-.78,0-1.13,.1-1.12,1.02,.06,3.76,.04,7.52,0,11.27,0,.73,.13,1.03,.96,1.02,6.51-.03,13.02-.03,19.52,0,.8,0,.98-.26,.97-1.01-.04-3.71-.05-7.42,0-11.14,.02-1.01-.32-1.2-1.24-1.18-3.12,.05-6.23,.02-9.35,.02Zm-18.09-107.32c1.79,0,3.58,.03,5.36-.03,.31-.01,.88-.39,.88-.6,.03-2.52,.11-5.05-.11-7.55-.2-2.27-2.12-3.85-4.41-3.93-1.19-.04-2.38-.05-3.57,0-2.46,.11-4.39,2.06-4.44,4.53-.05,2.2,.02,4.4-.03,6.6-.02,.76,.17,1.03,.97,1,1.79-.06,3.57-.02,5.36-.02Zm44.1,76.83c2.1-.02,3.84-1.78,3.82-3.86-.02-2.08-1.81-3.84-3.89-3.82-2.09,.02-3.81,1.78-3.79,3.89,.01,2.11,1.74,3.81,3.86,3.79Zm-25.49-3.79c.02-2.1-1.7-3.87-3.79-3.89-2.08-.03-3.83,1.71-3.85,3.82-.02,2.15,1.64,3.85,3.77,3.86,2.12,.02,3.84-1.67,3.86-3.79Z"/><path class="c" d="M220.5,196.54c-.09-.43-.26-.85-.26-1.28-.01-25.31-.01-50.62,0-75.93,0-.43,.17-.85,.26-1.28v78.48Z"/></g></svg>