<?xml version="1.0" encoding="UTF-8" standalone="no"?>
<svg
   width="57.011806"
   height="55.944237"
   viewBox="0 0 57.011806 55.944237"
   fill="none"
   version="1.1"
   id="svg59"
   sodipodi:docname="favicon.svg"
   inkscape:export-filename="/home/njrzr/Work/pukara/static/images/logo-outline.png"
   inkscape:export-xdpi="96"
   inkscape:export-ydpi="96"
   inkscape:version="1.1.2 (0a00cf5339, 2022-02-04)"
   xmlns:inkscape="http://www.inkscape.org/namespaces/inkscape"
   xmlns:sodipodi="http://sodipodi.sourceforge.net/DTD/sodipodi-0.dtd"
   xmlns="http://www.w3.org/2000/svg"
   xmlns:svg="http://www.w3.org/2000/svg">
  <sodipodi:namedview
     id="namedview61"
     pagecolor="#ffffff"
     bordercolor="#666666"
     borderopacity="1.0"
     inkscape:pageshadow="2"
     inkscape:pageopacity="0.0"
     inkscape:pagecheckerboard="0"
     showgrid="false"
     inkscape:zoom="3.7313916"
     inkscape:cx="28.809627"
     inkscape:cy="28.809627"
     inkscape:window-width="1366"
     inkscape:window-height="707"
     inkscape:window-x="0"
     inkscape:window-y="30"
     inkscape:window-maximized="1"
     inkscape:current-layer="svg59" />
  <path
     d="m 56.563007,25.0816 c -0.1489,-0.7375 -0.1489,-1.3276 -0.2977,-2.0651 0,-0.295 -0.1489,-0.4425 -0.1489,-0.7376 -0.1488,-0.4425 -0.1488,-0.885 -0.2976,-1.3275 -0.1489,-0.4426 -0.2977,-0.8851 -0.4466,-1.3276 -0.1488,-0.5901 -0.4465,-1.3276 -0.7442,-1.9177 -0.1488,-0.4425 -0.2977,-0.885 -0.5954,-1.18 -0.2977,-0.5901 -0.5953,-1.1801 -0.893,-1.7701 -4.763,-8.7031 -14.1402,-14.45599999 -24.857,-14.45599999 -4.6141,0 -8.9306,1.18009999 -12.8006,3.09769999 -0.5953,0.295 -1.0419,0.5901 -1.4884,0.8851 -0.1488,0.1475 -0.2977,0.1475 -0.4465,0.295 -0.2977,0.1475 -0.4466,0.295 -0.7442,0.4425 -0.2977,0.1475 -0.5954,0.4425 -0.8931,0.5901 -0.1488,0.1475 -0.4465,0.295 -0.5954,0.4425 -0.1488,0.1475 -0.4465,0.295 -0.5954,0.4425 -0.2976,0.1475 -0.4465,0.295 -0.5953,0.5901 -0.1488997,0.1475 -0.4465997,0.295 -0.5953997,0.59 -0.2977,0.1475 -0.4465,0.4425 -0.7442,0.59 -0.1489,0.1475 -0.2977,0.295 -0.4466,0.4426 -0.2976,0.295 -0.4465,0.4425 -0.7442,0.7375 -0.1488,0.1475 -0.2977,0.295 -0.4465,0.4425 -0.2977,0.2951 -0.4465,0.5901 -0.5954,0.7376 -0.1488,0.1475 -0.2977,0.295 -0.2977,0.4425 -0.1488,0.1475 -0.2977,0.4425 -0.4465,0.59 -0.1488,0.2951 -0.2977,0.5901 -0.5954,0.7376 -0.4465,0.59 -0.7442,1.1801 -1.0419,1.7701 -0.2977,0.4425 -0.4465,0.7376 -0.5954,1.1801 -0.1488,0.4425 -0.4465,0.7375 -0.5953,1.1801 -0.1489,0.4425 -0.2977,0.885 -0.5954,1.18 -0.2977,0.5901 -0.4465,1.3276 -0.7442,1.9177 -0.1489,0.4425 -0.2977,0.885 -0.4466,1.3276 -0.1488,0.4425 -0.1488,0.885 -0.29770005,1.3275 0,0.2951 -0.1488,0.4426 -0.1488,0.7376 -0.1488,0.7375 -0.1488,1.3276 -0.2977,2.0651 -0.1488,0.8851 -0.1488,1.9176 -0.1488,2.8027 0,0.295 0,0.7375 0,1.0326 0,0.1475 0,0.1475 0,0.295 0,0.295 0,0.59 0,1.0326 v 0.1475 c 0,0.295 0,0.59 0.1488,0.885 v 0.1475 c 0,0.2951 0.1489,0.5901 0.1489,0.8851 v 0.1475 c 0,0.295 0.1488,0.59 0.1488,0.8851 v 0.1475 c 0,0.295 0.1488,0.59 0.1488,0.885 v 0.1475 c 0.59540005,0.8851 0.74430005,1.4751 0.89310005,2.0652 v 0.1475 c 0.1489,0.59 0.4465,1.3276 0.7442,1.9176 0,0 0,0 0,0.1475 2.9769,7.228 9.0794997,12.8333 16.3728997,15.4885 l -0.1489,-17.4061 -7.7399,-4.7203 V 21.2464 C 9.6771073,20.6563 8.6352073,19.1812 8.6352073,17.5586 c 0,-2.2126 1.7861997,-4.1302 4.1676997,-4.1302 2.2326,0 4.1676,1.7701 4.1676,4.1302 0,1.4751 -0.7442,2.8027 -1.935,3.5403 v 8.8505 l 7.8887,4.5728 0.1489,14.6035 c 0,1.3276 1.1907,2.5076 2.5303,2.5076 1.3396,0 2.5304,-1.18 2.5304,-2.5076 V 47.7981 46.028 l -0.2977,-32.5996 c -1.3396,-0.7376 -2.0838,-2.0652 -2.0838,-3.5403 0,-2.2126 1.7861,-4.1302 4.1676,-4.1302 2.2327,0 4.1676,1.7701 4.1676,4.1302 0,1.4751 -0.893,2.9502 -2.0838,3.5403 l 0.1489,42.1877 c 1.6373,-0.1475 3.2745,-0.59 4.763,-1.0326 l -0.1489,-16.9636 7.8888,-4.7203 v -8.8505 c -1.3396,-0.7376 -2.0839,-2.0652 -2.0839,-3.5403 0,-2.2126 1.7862,-4.1302 4.1677,-4.1302 2.2326,0 4.1676,1.7701 4.1676,4.1302 0,1.4751 -0.8931,2.9502 -2.0838,3.5403 v 11.0632 l -7.8887,4.7203 v 13.2758 c 5.656,-2.6551 10.1213,-7.2279 12.9494,-12.6858 0.1488,-0.295 0.2977,-0.59 0.4465,-0.885 0.1489,-0.2951 0.2977,-0.5901 0.4466,-0.8851 0.1488,-0.295 0.2976,-0.59 0.2976,-0.8851 v -0.1475 c 0.1489,-0.59 0.4466,-1.18 0.5954,-1.7701 v -0.1475 c 0.1489,-0.295 0.1489,-0.59 0.2977,-0.8851 0.1488,-0.295 0.1488,-0.59 0.1488,-0.885 v -0.1475 c 0,-0.295 0.1489,-0.4425 0.1489,-0.7376 v -0.1475 c 0,-0.295 0.1488,-0.59 0.1488,-0.885 v -0.1475 c 0,-0.2951 0,-0.4426 0.1489,-0.7376 V 30.982 c 0,-0.295 0,-0.59 0.1488,-0.8851 v -0.1475 c 0,-0.295 0,-0.59 0,-0.7375 0,-0.1475 0,-0.1475 0,-0.295 0,-0.2951 0,-0.5901 0,-0.8851 0,-1.1801 0,-2.0651 -0.1488,-2.9502 z"
     fill="url(#paint0_linear)"
     id="path14"
     style="fill:#edb128;fill-opacity:1;stroke:#edb128;stroke-width:0.6;stroke-miterlimit:4;stroke-dasharray:none;stroke-opacity:0.00037053" />
  <path
     d="m 14.440207,15.7885 c -1.042,-0.8851 -2.5304,-0.7375 -3.4235,0.295 -0.893,1.0326 -0.7442,2.5077 0.2977,3.3927 1.0419,0.8851 2.5304,0.7376 3.4234,-0.295 0.8931,-0.885 0.7443,-2.5076 -0.2976,-3.3927 z"
     fill="url(#paint1_linear)"
     id="path16"
     style="fill:#000000;fill-opacity:0;stroke:#edb128;stroke-width:0.6;stroke-miterlimit:4;stroke-dasharray:none;stroke-opacity:1" />
  <path
     d="m 31.408407,7.823 c -1.0419,-0.8851 -2.5303,-0.7376 -3.4234,0.295 -0.8931,1.0326 -0.7442,2.5077 0.2977,3.3927 1.0419,0.8851 2.5303,0.7376 3.4234,-0.295 0.8931,-0.885 0.7442,-2.5077 -0.2977,-3.3927 z"
     fill="url(#paint2_linear)"
     id="path18"
     style="fill:#000000;fill-opacity:0;stroke:#edb128;stroke-width:0.6;stroke-miterlimit:4;stroke-dasharray:none;stroke-opacity:1" />
  <path
     d="m 48.525407,21.9839 c 0.8931,-1.0325 0.7443,-2.5076 -0.2976,-3.3927 -1.042,-0.885 -2.5304,-0.7375 -3.4235,0.295 -0.893,1.0326 -0.7442,2.5077 0.2977,3.3928 0.8931,0.885 2.5304,0.7375 3.4234,-0.2951 z"
     fill="url(#paint3_linear)"
     id="path20"
     style="fill:#000000;fill-opacity:0;stroke:#edb128;stroke-width:0.6;stroke-miterlimit:4;stroke-dasharray:none;stroke-opacity:1" />
  <defs
     id="defs57">
    <linearGradient
       id="paint0_linear"
       x1="38.848999"
       y1="4.2994599"
       x2="38.848999"
       y2="63.494301"
       gradientUnits="userSpaceOnUse">
      <stop
         stop-color="#E9CF41"
         id="stop26" />
      <stop
         offset="0.0292452"
         stop-color="#E8CE41"
         id="stop28" />
      <stop
         offset="1"
         stop-color="#CC8429"
         id="stop30" />
    </linearGradient>
    <linearGradient
       id="paint1_linear"
       x1="23.1019"
       y1="4.2994499"
       x2="23.1019"
       y2="63.494301"
       gradientUnits="userSpaceOnUse">
      <stop
         stop-color="#E9CF41"
         id="stop33" />
      <stop
         offset="0.0292452"
         stop-color="#E8CE41"
         id="stop35" />
      <stop
         offset="1"
         stop-color="#CC8429"
         id="stop37" />
    </linearGradient>
    <linearGradient
       id="paint2_linear"
       x1="40.083698"
       y1="4.2994499"
       x2="40.083698"
       y2="63.494301"
       gradientUnits="userSpaceOnUse">
      <stop
         stop-color="#E9CF41"
         id="stop40" />
      <stop
         offset="0.0292452"
         stop-color="#E8CE41"
         id="stop42" />
      <stop
         offset="1"
         stop-color="#CC8429"
         id="stop44" />
    </linearGradient>
    <linearGradient
       id="paint3_linear"
       x1="56.8834"
       y1="4.2994499"
       x2="56.8834"
       y2="63.4944"
       gradientUnits="userSpaceOnUse">
      <stop
         stop-color="#E9CF41"
         id="stop47" />
      <stop
         offset="0.0292452"
         stop-color="#E8CE41"
         id="stop49" />
      <stop
         offset="1"
         stop-color="#CC8429"
         id="stop51" />
    </linearGradient>
    <clipPath
       id="clip0">
      <rect
         width="309"
         height="77"
         fill="#ffffff"
         id="rect54"
         x="0"
         y="0" />
    </clipPath>
  </defs>
</svg>
