<svg width="528" height="431" viewBox="0 0 528 431" fill="none" xmlns="http://www.w3.org/2000/svg">
<path d="M157.441 391.173C157.704 389.596 157.835 388.018 157.835 386.441C157.835 385.652 157.31 385.127 156.522 385.127C155.734 385.127 155.209 385.652 155.209 386.441C155.209 387.887 155.078 389.333 154.815 390.779C154.684 391.436 155.209 392.224 155.866 392.224C156.654 392.487 157.441 391.962 157.441 391.173ZM153.239 402.477C154.29 400.768 155.209 398.928 155.866 397.088C156.128 396.431 155.734 395.642 155.078 395.379C154.421 395.116 153.633 395.511 153.371 396.168C152.714 397.876 151.926 399.585 150.876 401.163C150.482 401.82 150.613 402.608 151.27 403.003C152.058 403.266 152.846 403.134 153.239 402.477ZM144.967 411.152C146.674 409.969 148.118 408.655 149.563 407.209C150.088 406.683 150.088 405.894 149.563 405.369C149.038 404.843 148.25 404.843 147.724 405.369C146.411 406.683 145.098 407.866 143.523 408.918C142.866 409.312 142.735 410.101 143.26 410.758C143.523 411.547 144.31 411.678 144.967 411.152ZM133.937 416.016C135.906 415.621 137.876 414.964 139.714 414.175C140.371 413.912 140.634 413.124 140.371 412.467C140.108 411.809 139.321 411.547 138.664 411.809C136.957 412.598 135.25 413.124 133.412 413.518C132.755 413.65 132.23 414.307 132.361 415.095C132.492 415.621 133.149 416.147 133.937 416.016ZM122.119 416.673H127.765H127.897C128.684 416.673 129.21 416.016 129.21 415.358C129.21 414.57 128.553 414.044 127.897 414.044H127.765H122.119C121.331 414.044 120.806 414.57 120.806 415.358C120.806 416.016 121.331 416.673 122.119 416.673ZM110.564 416.673H116.341C117.129 416.673 117.654 416.147 117.654 415.358C117.654 414.57 117.129 414.044 116.341 414.044H110.564C109.776 414.044 109.25 414.57 109.25 415.358C109.25 416.016 109.776 416.673 110.564 416.673ZM98.8769 416.673H104.655C105.442 416.673 105.968 416.147 105.968 415.358C105.968 414.57 105.442 414.044 104.655 414.044H98.8769C98.089 414.044 97.5638 414.57 97.5638 415.358C97.5638 416.016 98.2203 416.673 98.8769 416.673ZM87.3216 416.673H93.0992C93.8871 416.673 94.4123 416.147 94.4123 415.358C94.4123 414.57 93.8871 414.044 93.0992 414.044H87.3216C86.5337 414.044 86.0085 414.57 86.0085 415.358C86.0085 416.016 86.665 416.673 87.3216 416.673ZM75.7662 416.673H81.5439C82.3318 416.673 82.857 416.147 82.857 415.358C82.857 414.57 82.3318 414.044 81.5439 414.044H75.7662C74.9784 414.044 74.4531 414.57 74.4531 415.358C74.4531 416.016 74.9784 416.673 75.7662 416.673ZM64.2109 416.673H69.9886C70.7764 416.673 71.3017 416.147 71.3017 415.358C71.3017 414.57 70.7764 414.044 69.9886 414.044H64.2109C63.423 414.044 62.8978 414.57 62.8978 415.358C62.8978 416.016 63.423 416.673 64.2109 416.673ZM52.5242 416.673H58.3019C59.0898 416.673 59.615 416.147 59.615 415.358C59.615 414.57 59.0898 414.044 58.3019 414.044H52.5242C51.7364 414.044 51.2111 414.57 51.2111 415.358C51.2111 416.016 51.8677 416.673 52.5242 416.673ZM40.9689 416.673H46.7466C47.5344 416.673 48.0597 416.147 48.0597 415.358C48.0597 414.57 47.5344 414.044 46.7466 414.044H40.9689C40.181 414.044 39.6558 414.57 39.6558 415.358C39.6558 416.016 40.3124 416.673 40.9689 416.673ZM29.4136 416.673C29.6762 416.673 29.9388 416.673 30.2014 416.673H35.3226C36.1104 416.673 36.6357 416.147 36.6357 415.358C36.6357 414.57 36.1104 414.044 35.3226 414.044H30.2014C29.9388 414.044 29.8075 414.044 29.5449 414.044C28.757 414.044 28.2318 414.57 28.2318 415.358C28.1005 416.016 28.6257 416.541 29.4136 416.673ZM17.5956 413.912C19.434 414.701 21.2723 415.358 23.3733 415.884C24.0298 416.016 24.8177 415.621 24.949 414.833C25.0803 414.175 24.6864 413.387 23.8985 413.255C22.0602 412.861 20.3531 412.204 18.6461 411.547C17.9896 411.284 17.2017 411.547 16.9391 412.204C16.6764 412.861 16.9391 413.65 17.5956 413.912ZM7.87864 406.815C9.19174 408.26 10.7675 409.706 12.3432 410.889C12.8684 411.284 13.7876 411.152 14.1815 410.626C14.5755 410.101 14.4442 409.181 13.9189 408.786C12.4745 407.735 11.0301 406.42 9.8483 405.106C9.32305 404.58 8.53519 404.58 8.00995 404.974C7.4847 405.5 7.35339 406.289 7.87864 406.815ZM1.70704 396.562C2.36359 398.534 3.28277 400.374 4.33325 402.083C4.72718 402.74 5.51505 402.871 6.1716 402.477C6.82815 402.083 6.95946 401.294 6.56553 400.637C5.64636 399.059 4.85849 397.351 4.20194 395.642C3.93932 394.985 3.15145 394.59 2.4949 394.853C1.83835 395.116 1.44442 395.773 1.70704 396.562ZM0 384.601V386.441C0 387.887 0.131311 389.201 0.262621 390.647C0.393932 391.304 1.05048 391.83 1.70704 391.83C2.36359 391.699 2.88883 391.041 2.88883 390.384C2.75752 389.07 2.62621 387.755 2.62621 386.441V384.601C2.62621 383.812 2.10097 383.286 1.31311 383.286C0.525242 383.286 0 383.944 0 384.601ZM0 373.034V378.817C0 379.606 0.525242 380.132 1.31311 380.132C2.10097 380.132 2.62621 379.606 2.62621 378.817V373.034C2.62621 372.245 2.10097 371.719 1.31311 371.719C0.525242 371.719 0 372.377 0 373.034ZM0 361.467V367.25C0 368.039 0.525242 368.565 1.31311 368.565C2.10097 368.565 2.62621 368.039 2.62621 367.25V361.467C2.62621 360.678 2.10097 360.152 1.31311 360.152C0.525242 360.152 0 360.678 0 361.467ZM0 349.9V355.683C0 356.472 0.525242 356.998 1.31311 356.998C2.10097 356.998 2.62621 356.472 2.62621 355.683V349.9C2.62621 349.111 2.10097 348.586 1.31311 348.586C0.525242 348.586 0 349.111 0 349.9ZM0 338.202V343.985C0 344.774 0.525242 345.3 1.31311 345.3C2.10097 345.3 2.62621 344.774 2.62621 343.985V338.202C2.62621 337.413 2.10097 336.887 1.31311 336.887C0.525242 336.887 0 337.544 0 338.202ZM0 326.635V332.418C0 333.207 0.525242 333.733 1.31311 333.733C2.10097 333.733 2.62621 333.207 2.62621 332.418V326.635C2.62621 325.846 2.10097 325.32 1.31311 325.32C0.525242 325.32 0 325.977 0 326.635ZM0 315.068V320.851C0 321.64 0.525242 322.166 1.31311 322.166C2.10097 322.166 2.62621 321.64 2.62621 320.851V315.068C2.62621 314.279 2.10097 313.753 1.31311 313.753C0.525242 313.753 0 314.279 0 315.068ZM0 303.501V309.284C0 310.073 0.525242 310.599 1.31311 310.599C2.10097 310.599 2.62621 310.073 2.62621 309.284V303.501C2.62621 302.712 2.10097 302.186 1.31311 302.186C0.525242 302.186 0 302.712 0 303.501ZM0 291.934V297.717C0 298.506 0.525242 299.032 1.31311 299.032C2.10097 299.032 2.62621 298.506 2.62621 297.717V291.934C2.62621 291.145 2.10097 290.619 1.31311 290.619C0.525242 290.619 0 291.145 0 291.934ZM0 280.235V286.019C0 286.808 0.525242 287.333 1.31311 287.333C2.10097 287.333 2.62621 286.808 2.62621 286.019V280.235C2.62621 279.447 2.10097 278.921 1.31311 278.921C0.525242 278.921 0 279.578 0 280.235ZM0 268.669V274.452C0 275.241 0.525242 275.766 1.31311 275.766C2.10097 275.766 2.62621 275.241 2.62621 274.452V268.669C2.62621 267.88 2.10097 267.354 1.31311 267.354C0.525242 267.354 0 267.88 0 268.669ZM0 257.102V262.885C0 263.674 0.525242 264.199 1.31311 264.199C2.10097 264.199 2.62621 263.674 2.62621 262.885V257.102C2.62621 256.313 2.10097 255.787 1.31311 255.787C0.525242 255.787 0 256.313 0 257.102ZM0 245.535V251.318C0 252.107 0.525242 252.633 1.31311 252.633C2.10097 252.633 2.62621 252.107 2.62621 251.318V245.535C2.62621 244.746 2.10097 244.22 1.31311 244.22C0.525242 244.22 0 244.746 0 245.535ZM0 233.836V239.62C0 240.408 0.525242 240.934 1.31311 240.934C2.10097 240.934 2.62621 240.408 2.62621 239.62V233.836C2.62621 233.048 2.10097 232.522 1.31311 232.522C0.525242 232.522 0 233.179 0 233.836ZM0.656553 222.006C0.262621 223.978 0 225.95 0 228.053C0 228.841 0.525242 229.367 1.31311 229.367C2.10097 229.367 2.62621 228.841 2.62621 228.053C2.62621 226.213 2.88883 224.372 3.28277 222.532C3.41408 221.875 3.02014 221.086 2.23228 220.955C1.44442 220.823 0.787864 221.349 0.656553 222.006ZM5.38374 210.965C4.20194 212.674 3.28277 214.383 2.36359 216.223C2.10097 216.88 2.36359 217.669 3.02014 217.932C3.6767 218.195 4.46456 217.932 4.72718 217.274C5.51505 215.566 6.43422 213.988 7.4847 212.411C7.87864 211.754 7.74733 210.965 7.22208 210.571C6.69684 210.308 5.90898 210.439 5.38374 210.965ZM14.1815 202.684C12.4745 203.736 10.8988 205.05 9.45436 206.365C8.92912 206.891 8.92912 207.679 9.45436 208.205C9.97961 208.731 10.7675 208.731 11.2927 208.205C12.6058 206.891 14.0502 205.839 15.626 204.787C16.2825 204.393 16.4138 203.604 16.0199 202.947C15.626 202.553 14.8381 202.29 14.1815 202.684ZM25.4743 198.478C23.5046 198.741 21.5349 199.267 19.5653 200.056C18.9087 200.318 18.5148 201.107 18.7774 201.764C19.04 202.421 19.8279 202.816 20.4845 202.553C22.1915 201.896 24.0298 201.501 25.8682 201.107C26.5247 200.976 27.05 200.318 26.9187 199.661C26.7874 198.873 26.1308 198.347 25.4743 198.478ZM37.2922 198.215H31.5145C30.7267 198.215 30.2014 198.741 30.2014 199.53C30.2014 200.318 30.7267 200.844 31.5145 200.844H37.2922C38.0801 200.844 38.6053 200.318 38.6053 199.53C38.6053 198.741 37.9488 198.215 37.2922 198.215Z" fill="#ECAF23"/>
<path d="M308.843 14.3272C309.237 15.7731 309.499 17.3504 309.499 18.9277C309.499 19.7164 310.024 20.2421 310.812 20.2421C311.6 20.2421 312.125 19.7164 312.125 18.9277C312.125 17.0875 311.863 15.2473 311.337 13.5386C311.075 12.8814 310.418 12.487 309.762 12.6185C308.974 12.8814 308.58 13.67 308.843 14.3272ZM302.802 5.78347C304.247 6.83501 305.56 8.14944 306.61 9.5953C307.004 10.2525 307.792 10.384 308.449 9.85819C309.105 9.46386 309.237 8.67521 308.711 8.01799C307.529 6.30924 306.085 4.86337 304.378 3.54895C303.853 3.15462 302.934 3.28606 302.54 3.81183C302.014 4.46905 302.146 5.2577 302.802 5.78347ZM292.691 2.62885H293.217C294.924 2.62885 296.499 2.89174 298.075 3.41751C298.732 3.68039 299.52 3.28606 299.782 2.49741C300.045 1.8402 299.651 1.05154 298.863 0.788655C297.156 0.262885 295.186 0 293.217 0H292.691C291.904 0 291.378 0.52577 291.378 1.31443C291.378 2.10308 291.904 2.62885 292.691 2.62885ZM281.136 2.62885H286.914C287.702 2.62885 288.227 2.10308 288.227 1.31443C288.227 0.52577 287.702 0 286.914 0H281.136C280.348 0 279.823 0.52577 279.823 1.31443C279.823 2.10308 280.348 2.62885 281.136 2.62885ZM269.449 2.62885H275.227C276.015 2.62885 276.54 2.10308 276.54 1.31443C276.54 0.52577 276.015 0 275.227 0H269.449C268.662 0 268.136 0.52577 268.136 1.31443C268.136 2.10308 268.793 2.62885 269.449 2.62885ZM257.894 2.62885H263.672C264.46 2.62885 264.985 2.10308 264.985 1.31443C264.985 0.52577 264.46 0 263.672 0H257.894C257.106 0 256.581 0.52577 256.581 1.31443C256.581 2.10308 257.106 2.62885 257.894 2.62885ZM246.339 2.62885H252.116C252.904 2.62885 253.43 2.10308 253.43 1.31443C253.43 0.52577 252.904 0 252.116 0H246.339C245.551 0 245.026 0.52577 245.026 1.31443C245.026 2.10308 245.551 2.62885 246.339 2.62885ZM234.783 2.62885H240.561C241.349 2.62885 241.874 2.10308 241.874 1.31443C241.874 0.52577 241.349 0 240.561 0H234.783C233.996 0 233.47 0.52577 233.47 1.31443C233.47 2.10308 233.996 2.62885 234.783 2.62885ZM223.097 2.62885H228.874C229.662 2.62885 230.188 2.10308 230.188 1.31443C230.188 0.52577 229.662 0 228.874 0H223.097C222.309 0 221.784 0.52577 221.784 1.31443C221.784 2.10308 222.44 2.62885 223.097 2.62885ZM211.541 2.62885H217.319C218.107 2.62885 218.632 2.10308 218.632 1.31443C218.632 0.52577 218.107 0 217.319 0H211.541C210.754 0 210.228 0.52577 210.228 1.31443C210.228 2.10308 210.754 2.62885 211.541 2.62885ZM199.986 2.62885H205.764C206.552 2.62885 207.077 2.10308 207.077 1.31443C207.077 0.52577 206.552 0 205.764 0H199.986C199.198 0 198.673 0.52577 198.673 1.31443C198.673 2.10308 199.198 2.62885 199.986 2.62885ZM188.431 2.62885H194.208C194.996 2.62885 195.522 2.10308 195.522 1.31443C195.522 0.52577 194.996 0 194.208 0H188.431C187.643 0 187.118 0.52577 187.118 1.31443C187.118 2.10308 187.643 2.62885 188.431 2.62885ZM176.744 2.62885H182.522C183.31 2.62885 183.835 2.10308 183.835 1.31443C183.835 0.52577 183.31 0 182.522 0H176.744C175.956 0 175.431 0.52577 175.431 1.31443C175.431 2.10308 176.088 2.62885 176.744 2.62885ZM165.32 2.62885C165.583 2.62885 165.977 2.62885 166.239 2.62885H171.098C171.886 2.62885 172.411 2.10308 172.411 1.31443C172.411 0.52577 171.886 0 171.098 0H166.239C165.845 0 165.583 0 165.189 0C164.401 0 163.876 0.657213 164.007 1.44587C163.876 2.10308 164.532 2.62885 165.32 2.62885ZM155.472 6.57213C156.785 5.38914 158.361 4.46905 160.068 3.81183C160.724 3.54895 161.118 2.76029 160.856 2.10308C160.593 1.44587 159.805 1.05154 159.148 1.31443C157.179 2.10308 155.472 3.15462 153.896 4.60049C153.371 5.12626 153.24 5.91491 153.765 6.44068C154.159 6.96645 154.947 7.0979 155.472 6.57213ZM150.219 15.6417C150.613 13.8015 151.27 12.2242 152.189 10.6468C152.583 9.98963 152.32 9.20098 151.664 8.80665C151.007 8.41232 150.219 8.67521 149.825 9.33242C148.775 11.0412 147.987 13.0128 147.593 15.1159C147.462 15.7731 147.856 16.5618 148.644 16.6932C149.3 16.8246 150.088 16.4303 150.219 15.6417ZM149.825 27.0772V21.2937C149.825 20.505 149.3 19.9793 148.512 19.9793C147.724 19.9793 147.199 20.505 147.199 21.2937V27.0772C147.199 27.8658 147.724 28.3916 148.512 28.3916C149.3 28.3916 149.825 27.7344 149.825 27.0772ZM149.825 38.6441V32.8606C149.825 32.072 149.3 31.5462 148.512 31.5462C147.724 31.5462 147.199 32.072 147.199 32.8606V38.6441C147.199 39.4328 147.724 39.9585 148.512 39.9585C149.3 39.9585 149.825 39.3013 149.825 38.6441ZM149.825 50.211V44.4276C149.825 43.6389 149.3 43.1131 148.512 43.1131C147.724 43.1131 147.199 43.6389 147.199 44.4276V50.211C147.199 50.9997 147.724 51.5255 148.512 51.5255C149.3 51.5255 149.825 50.9997 149.825 50.211Z" fill="#ECAF23"/>
<path d="M513.293 148.136C511.455 147.741 509.485 147.61 507.253 147.61C506.465 147.61 505.94 148.136 505.94 148.924C505.94 149.713 506.465 150.239 507.253 150.239C509.354 150.239 511.192 150.502 512.768 150.765C513.424 150.896 514.212 150.37 514.344 149.713C514.475 148.924 514.081 148.267 513.293 148.136ZM524.061 153.788C522.879 152.342 521.172 151.027 519.071 149.976C518.414 149.713 517.626 149.976 517.364 150.502C517.101 151.159 517.364 151.948 517.889 152.21C519.727 153.131 521.04 154.182 522.091 155.365C522.616 155.891 523.404 155.891 523.929 155.497C524.586 155.234 524.586 154.314 524.061 153.788ZM528 165.355V163.383C528 163.252 528 161.543 527.212 159.177C526.949 158.52 526.293 158.125 525.505 158.388C524.848 158.651 524.455 159.308 524.717 160.097C524.98 161.017 525.242 161.937 525.242 162.463C525.242 162.726 525.242 162.989 525.374 163.12V163.252V165.223C525.374 166.012 525.899 166.538 526.687 166.538C527.475 166.669 528 166.143 528 165.355ZM528 177.053V171.27C528 170.481 527.475 169.955 526.687 169.955C525.899 169.955 525.374 170.481 525.374 171.27V177.053C525.374 177.842 525.899 178.368 526.687 178.368C527.475 178.368 528 177.71 528 177.053ZM528 188.62V182.837C528 182.048 527.475 181.522 526.687 181.522C525.899 181.522 525.374 182.048 525.374 182.837V188.62C525.374 189.409 525.899 189.934 526.687 189.934C527.475 189.934 528 189.277 528 188.62ZM528 200.187V194.404C528 193.615 527.475 193.089 526.687 193.089C525.899 193.089 525.374 193.615 525.374 194.404V200.187C525.374 200.976 525.899 201.501 526.687 201.501C527.475 201.501 528 200.976 528 200.187ZM528 211.754V205.97C528 205.182 527.475 204.656 526.687 204.656C525.899 204.656 525.374 205.182 525.374 205.97V211.754C525.374 212.543 525.899 213.068 526.687 213.068C527.475 213.068 528 212.543 528 211.754ZM528 223.452V217.669C528 216.88 527.475 216.354 526.687 216.354C525.899 216.354 525.374 216.88 525.374 217.669V223.452C525.374 224.241 525.899 224.767 526.687 224.767C527.475 224.767 528 224.11 528 223.452ZM528 235.019V229.236C528 228.447 527.475 227.921 526.687 227.921C525.899 227.921 525.374 228.447 525.374 229.236V235.019C525.374 235.808 525.899 236.334 526.687 236.334C527.475 236.334 528 235.676 528 235.019ZM528 246.586V240.803C528 240.014 527.475 239.488 526.687 239.488C525.899 239.488 525.374 240.014 525.374 240.803V246.586C525.374 247.375 525.899 247.901 526.687 247.901C527.475 247.901 528 247.375 528 246.586ZM528 258.153V252.37C528 251.581 527.475 251.055 526.687 251.055C525.899 251.055 525.374 251.581 525.374 252.37V258.153C525.374 258.942 525.899 259.468 526.687 259.468C527.475 259.468 528 258.942 528 258.153ZM528 269.852V264.068C528 263.279 527.475 262.754 526.687 262.754C525.899 262.754 525.374 263.279 525.374 264.068V269.852C525.374 270.64 525.899 271.166 526.687 271.166C527.475 271.166 528 270.509 528 269.852ZM528 281.418V275.635C528 274.846 527.475 274.321 526.687 274.321C525.899 274.321 525.374 274.846 525.374 275.635V281.418C525.374 282.207 525.899 282.733 526.687 282.733C527.475 282.733 528 282.076 528 281.418ZM528 292.985V287.202C528 286.413 527.475 285.888 526.687 285.888C525.899 285.888 525.374 286.413 525.374 287.202V292.985C525.374 293.774 525.899 294.3 526.687 294.3C527.475 294.3 528 293.774 528 292.985ZM528 304.552V298.769C528 297.98 527.475 297.454 526.687 297.454C525.899 297.454 525.374 297.98 525.374 298.769V304.552C525.374 305.341 525.899 305.867 526.687 305.867C527.475 305.867 528 305.341 528 304.552ZM528 316.251V310.467C528 309.679 527.475 309.153 526.687 309.153C525.899 309.153 525.374 309.679 525.374 310.467V316.251C525.374 317.039 525.899 317.565 526.687 317.565C527.475 317.565 528 316.908 528 316.251ZM528 327.818V322.034C528 321.246 527.475 320.72 526.687 320.72C525.899 320.72 525.374 321.246 525.374 322.034V327.818C525.374 328.606 525.899 329.132 526.687 329.132C527.475 329.132 528 328.475 528 327.818ZM528 339.385V333.601C528 332.812 527.475 332.287 526.687 332.287C525.899 332.287 525.374 332.812 525.374 333.601V339.385C525.374 340.173 525.899 340.699 526.687 340.699C527.475 340.699 528 340.173 528 339.385ZM528 350.952V345.168C528 344.379 527.475 343.854 526.687 343.854C525.899 343.854 525.374 344.379 525.374 345.168V350.952C525.374 351.74 525.899 352.266 526.687 352.266C527.475 352.266 528 351.74 528 350.952ZM528 362.65V356.866C528 356.078 527.475 355.552 526.687 355.552C525.899 355.552 525.374 356.078 525.374 356.866V362.65C525.374 363.439 525.899 363.964 526.687 363.964C527.475 363.964 528 363.307 528 362.65ZM528 374.217V368.433C528 367.645 527.475 367.119 526.687 367.119C525.899 367.119 525.374 367.645 525.374 368.433V374.217C525.374 375.006 525.899 375.531 526.687 375.531C527.475 375.531 528 374.874 528 374.217ZM528 385.784V380C528 379.212 527.475 378.686 526.687 378.686C525.899 378.686 525.374 379.212 525.374 380V385.784C525.374 386.572 525.899 387.098 526.687 387.098C527.475 387.098 528 386.572 528 385.784ZM528 397.351V391.567C528 390.779 527.475 390.253 526.687 390.253C525.899 390.253 525.374 390.779 525.374 391.567V397.351C525.374 398.139 525.899 398.665 526.687 398.665C527.475 398.665 528 398.139 528 397.351ZM528 409.049V403.266C528 402.477 527.475 401.951 526.687 401.951C525.899 401.951 525.374 402.477 525.374 403.266V409.049C525.374 409.838 525.899 410.364 526.687 410.364C527.475 410.364 528 409.706 528 409.049ZM525.899 420.879C526.818 419.039 527.475 417.067 527.869 414.964C528 414.307 527.475 413.518 526.818 413.518C526.162 413.387 525.374 413.913 525.374 414.57C525.111 416.41 524.454 418.119 523.667 419.696C523.273 420.353 523.535 421.142 524.192 421.536C524.717 421.799 525.505 421.536 525.899 420.879ZM516.97 429.291C518.939 428.371 520.647 427.188 522.091 425.874C522.616 425.348 522.616 424.559 522.091 424.034C521.566 423.508 520.778 423.508 520.253 424.034C518.939 425.217 517.495 426.268 515.788 427.057C515.131 427.32 514.869 428.108 515.131 428.766C515.525 429.291 516.313 429.554 516.97 429.291ZM505.021 431H509.091C509.748 431 510.404 431 510.93 430.869C511.586 430.737 512.243 430.211 512.111 429.423C511.98 428.766 511.455 428.108 510.667 428.24C510.142 428.24 509.616 428.371 509.091 428.371H505.021C504.233 428.371 503.707 428.897 503.707 429.686C503.707 430.343 504.364 431 505.021 431ZM493.465 431H499.243C500.031 431 500.556 430.474 500.556 429.686C500.556 428.897 500.031 428.371 499.243 428.371H493.465C492.677 428.371 492.152 428.897 492.152 429.686C492.152 430.343 492.677 431 493.465 431ZM481.91 431H487.688C488.475 431 489.001 430.474 489.001 429.686C489.001 428.897 488.475 428.371 487.688 428.371H481.91C481.122 428.371 480.597 428.897 480.597 429.686C480.597 430.343 481.122 431 481.91 431ZM470.223 431H476.001C476.789 431 477.314 430.474 477.314 429.686C477.314 428.897 476.789 428.371 476.001 428.371H470.223C469.435 428.371 468.91 428.897 468.91 429.686C468.91 430.343 469.567 431 470.223 431ZM458.668 431H464.446C465.233 431 465.759 430.474 465.759 429.686C465.759 428.897 465.233 428.371 464.446 428.371H458.668C457.88 428.371 457.355 428.897 457.355 429.686C457.355 430.343 458.011 431 458.668 431ZM447.113 431H452.89C453.678 431 454.203 430.474 454.203 429.686C454.203 428.897 453.678 428.371 452.89 428.371H447.113C446.325 428.371 445.799 428.897 445.799 429.686C445.799 430.343 446.325 431 447.113 431ZM435.557 431H441.335C442.123 431 442.648 430.474 442.648 429.686C442.648 428.897 442.123 428.371 441.335 428.371H435.557C434.769 428.371 434.244 428.897 434.244 429.686C434.244 430.343 434.769 431 435.557 431ZM423.871 431H429.648C430.436 431 430.961 430.474 430.961 429.686C430.961 428.897 430.436 428.371 429.648 428.371H423.871C423.083 428.371 422.557 428.897 422.557 429.686C422.557 430.343 423.214 431 423.871 431ZM412.315 431H418.093C418.881 431 419.406 430.474 419.406 429.686C419.406 428.897 418.881 428.371 418.093 428.371H412.315C411.527 428.371 411.002 428.897 411.002 429.686C411.002 430.343 411.659 431 412.315 431ZM400.76 431H406.538C407.325 431 407.851 430.474 407.851 429.686C407.851 428.897 407.325 428.371 406.538 428.371H400.76C399.972 428.371 399.447 428.897 399.447 429.686C399.447 430.343 399.972 431 400.76 431ZM389.205 431H394.982C395.77 431 396.295 430.474 396.295 429.686C396.295 428.897 395.77 428.371 394.982 428.371H389.205C388.417 428.371 387.891 428.897 387.891 429.686C387.891 430.343 388.417 431 389.205 431ZM377.255 430.343C378.831 430.737 380.407 431 382.114 431H383.427C384.215 431 384.74 430.474 384.74 429.686C384.74 428.897 384.215 428.371 383.427 428.371H382.114C380.669 428.371 379.225 428.24 377.912 427.845C377.255 427.714 376.467 428.108 376.336 428.766C376.205 429.423 376.599 430.211 377.255 430.343ZM367.144 423.639C368.458 425.348 369.902 426.662 371.74 427.845C372.397 428.24 373.185 428.108 373.579 427.451C373.973 426.794 373.841 426.005 373.185 425.611C371.74 424.559 370.427 423.376 369.245 421.931C368.851 421.405 367.932 421.273 367.407 421.668C366.75 422.193 366.619 422.982 367.144 423.639ZM363.205 412.072C363.205 414.175 363.599 416.279 364.256 418.25C364.518 418.907 365.175 419.302 365.963 419.039C366.619 418.776 367.013 418.119 366.75 417.33C366.225 415.621 365.831 413.913 365.831 412.072C365.831 411.284 365.306 410.758 364.518 410.758C363.73 410.758 363.205 411.284 363.205 412.072Z" fill="#ECAF23"/>
<path d="M499.9 92.1412V328.869C499.9 345.037 486.9 358.049 470.749 358.049H54.8879C38.7367 358.049 25.7369 345.037 25.7369 328.869V92.1412C25.7369 91.484 25.7369 90.8267 25.8682 90.0381C26.9187 74.9222 39.5246 62.9609 54.8879 62.9609H470.749C486.112 62.9609 498.718 74.9222 499.768 90.0381C499.9 90.8267 499.9 91.484 499.9 92.1412Z" fill="#E5E5E5" stroke="#2A2A30" stroke-miterlimit="10"/>
<path d="M459.85 347.008H67.2311C52.1303 347.008 39.9185 334.784 39.9185 319.668V101.079H487.162V319.668C487.162 334.784 474.951 347.008 459.85 347.008Z" fill="#263238"/>
<path d="M487.162 100.948V319.537C487.162 334.653 475.082 346.877 460.112 346.877H66.9684C51.999 346.877 39.9185 334.653 39.9185 319.537V100.948H487.162Z" fill="#303037" stroke="#2A2A30" stroke-miterlimit="10"/>
<path d="M499.768 90.0381H25.8682C26.9186 74.9222 39.5245 62.9609 54.8878 62.9609H470.749C486.112 62.9609 498.718 74.9222 499.768 90.0381Z" fill="#303037" stroke="#2A2A30" stroke-miterlimit="10"/>
<path d="M84.0389 76.4995C84.0389 79.3913 81.6753 81.6258 78.9177 81.6258C76.0289 81.6258 73.7966 79.2598 73.7966 76.4995C73.7966 73.6078 76.1602 71.3733 78.9177 71.3733C81.8066 71.3733 84.0389 73.6078 84.0389 76.4995Z" fill="#E5E5E5"/>
<path d="M105.968 76.4995C105.968 79.3913 103.604 81.6258 100.847 81.6258C97.9577 81.6258 95.7255 79.2598 95.7255 76.4995C95.7255 73.6078 98.0891 71.3733 100.847 71.3733C103.604 71.3733 105.968 73.6078 105.968 76.4995Z" fill="#ECAF23"/>
<path d="M122.644 81.6258C125.472 81.6258 127.765 79.3307 127.765 76.4995C127.765 73.6684 125.472 71.3733 122.644 71.3733C119.816 71.3733 117.523 73.6684 117.523 76.4995C117.523 79.3307 119.816 81.6258 122.644 81.6258Z" fill="#E5E5E5"/>
<path d="M487.162 101.079V319.668C487.162 334.784 474.951 347.008 459.85 347.008H67.2311C53.9687 347.008 42.9386 337.544 40.4437 324.926C40.0498 323.217 39.9185 321.508 39.9185 319.668V101.079H487.162Z" stroke="#263238" stroke-width="1.1031" stroke-miterlimit="10"/>
<path d="M432.931 354.238C417.962 371.851 397.346 381.84 375.942 383.549C354.539 385.258 332.61 378.949 314.883 363.964C297.287 348.98 287.308 328.343 285.601 306.918C283.894 285.493 290.197 263.542 305.166 245.798C320.135 228.184 340.751 218.195 362.155 216.486C383.558 214.777 405.487 221.086 423.214 236.071C440.81 251.055 450.789 271.692 452.496 293.117C454.203 314.542 447.901 336.493 432.931 354.238Z" fill="#303037" stroke="#2A2A30" stroke-miterlimit="10"/>
<path d="M441.072 292.46C440.941 290.619 440.678 288.779 440.284 287.07C440.153 286.413 440.022 285.887 439.891 285.23C439.628 284.047 439.365 282.864 439.103 281.681C438.84 280.498 438.446 279.315 438.052 278.264C437.527 276.555 436.87 274.846 436.214 273.269C435.82 272.217 435.295 271.034 434.769 269.983C433.982 268.406 433.194 266.828 432.406 265.251C420.063 242.643 396.033 227.396 368.458 227.527C356.64 227.527 345.347 230.55 335.499 235.545C334.186 236.202 332.872 236.991 331.559 237.779C331.165 238.042 330.771 238.305 330.378 238.437C329.721 238.831 329.064 239.225 328.539 239.62C327.751 240.145 326.963 240.671 326.176 241.197C325.65 241.591 325.125 241.986 324.6 242.38C324.075 242.774 323.549 243.169 323.024 243.563C322.499 244.089 321.842 244.483 321.317 245.009C320.792 245.535 320.267 245.929 319.741 246.455C319.085 246.98 318.56 247.638 317.903 248.163C317.509 248.558 317.115 248.952 316.721 249.346C316.065 250.004 315.539 250.661 314.883 251.318C314.489 251.712 314.095 252.238 313.701 252.632C313.176 253.29 312.519 254.078 311.994 254.736C311.731 255.13 311.337 255.524 311.075 255.919C310.681 256.444 310.287 256.97 309.893 257.496C309.368 258.153 308.974 258.81 308.449 259.467C307.529 260.913 306.61 262.359 305.691 263.937C305.166 264.988 304.509 266.04 303.984 267.091C303.459 268.143 302.934 269.194 302.408 270.246C301.883 271.297 301.489 272.349 301.095 273.532C300.439 275.241 299.913 276.818 299.388 278.527C298.994 279.71 298.732 280.761 298.469 281.944C298.206 283.127 297.944 284.31 297.681 285.493C297.55 286.019 297.419 286.676 297.287 287.333C297.025 289.174 296.762 290.882 296.499 292.722C296.237 295.22 296.105 297.586 296.105 300.083C296.105 301.003 296.105 301.792 296.105 302.712C296.105 302.844 296.105 303.106 296.105 303.238C296.105 304.027 296.237 304.947 296.237 305.735C296.237 305.867 296.237 305.998 296.237 305.998C296.368 306.787 296.368 307.575 296.499 308.364C296.499 308.496 296.499 308.758 296.499 308.89C296.631 309.679 296.762 310.599 296.893 311.387C296.893 311.519 296.893 311.65 297.025 311.782C297.156 312.57 297.287 313.359 297.419 314.016C297.419 314.148 297.419 314.279 297.419 314.279C297.55 315.068 297.812 315.988 297.944 316.776C297.944 316.908 298.075 317.039 298.075 317.171C298.469 318.88 298.994 320.457 299.52 322.166C299.52 322.297 299.651 322.428 299.651 322.56C300.176 324.269 300.833 325.846 301.489 327.423C301.489 327.555 301.489 327.555 301.621 327.686C309.499 346.351 324.862 361.073 343.903 367.908L343.64 322.56L323.155 310.467L323.024 282.076C319.479 280.367 317.115 276.686 316.984 272.612C316.984 266.697 321.711 261.965 327.62 261.965C333.529 261.965 338.256 266.697 338.256 272.612C338.256 276.424 336.287 279.841 333.266 281.681L333.398 304.684L353.882 316.776L354.407 354.763C354.407 358.312 357.296 361.204 360.973 361.204C364.518 361.204 367.407 358.312 367.407 354.632V351.083V346.482L366.619 261.702C363.336 259.862 361.104 256.444 361.104 252.37C361.104 246.455 365.831 241.723 371.74 241.723C377.649 241.723 382.377 246.455 382.377 252.37C382.377 256.444 380.144 259.862 376.861 261.702L377.387 371.719C381.72 371.194 385.791 370.274 389.861 369.091L389.73 324.794L410.083 312.57L409.952 289.568C406.669 287.728 404.437 284.31 404.437 280.235C404.437 274.32 409.164 269.589 415.073 269.589C420.982 269.589 425.709 274.32 425.709 280.235C425.709 284.31 423.477 287.728 420.194 289.568L420.325 318.485L400.497 331.235L400.629 365.673C415.073 358.707 426.759 347.008 433.982 332.681C434.375 332.024 434.638 331.235 435.032 330.446V330.315C435.426 329.526 435.689 328.738 436.083 328.08C436.345 327.423 436.608 326.635 437.002 325.846C437.002 325.715 437.133 325.583 437.133 325.583C437.658 324.137 438.184 322.56 438.577 321.114C438.577 320.983 438.709 320.851 438.709 320.72C438.971 319.931 439.103 319.274 439.365 318.485C439.365 318.485 439.365 318.485 439.365 318.354C439.497 317.565 439.759 316.776 439.891 315.988C439.891 315.856 440.022 315.593 440.022 315.462C440.153 314.805 440.284 314.148 440.416 313.49C440.416 313.359 440.416 313.227 440.547 313.096C440.678 312.307 440.81 311.519 440.941 310.73C440.941 310.599 440.941 310.467 441.072 310.204C441.204 309.547 441.204 308.89 441.335 308.233C441.335 308.101 441.335 307.838 441.335 307.707C441.466 306.918 441.466 306.13 441.598 305.341C441.598 305.209 441.598 305.078 441.598 304.947C441.598 304.289 441.729 303.632 441.729 302.844C441.729 302.581 441.729 302.449 441.729 302.186C441.729 301.398 441.729 300.609 441.729 299.82C441.598 297.454 441.335 294.957 441.072 292.46Z" stroke="#ECAF23" stroke-miterlimit="10"/>
<path d="M332.478 268.537C329.852 266.303 325.782 266.565 323.549 269.326C321.317 271.955 321.58 276.029 324.337 278.264C327.095 280.498 331.034 280.235 333.266 277.475C335.499 274.846 335.236 270.903 332.478 268.537Z" stroke="#ECAF23" stroke-miterlimit="10"/>
<path d="M376.336 247.769C373.71 245.535 369.639 245.798 367.407 248.558C365.175 251.187 365.438 255.261 368.195 257.496C370.821 259.73 374.892 259.468 377.124 256.707C379.356 254.078 378.962 250.135 376.336 247.769Z" stroke="#ECAF23" stroke-miterlimit="10"/>
<path d="M420.325 284.704C422.558 282.076 422.295 278.001 419.537 275.766C416.911 273.532 412.841 273.795 410.608 276.555C408.376 279.184 408.639 283.259 411.396 285.493C414.154 287.728 418.093 287.333 420.325 284.704Z" stroke="#ECAF23" stroke-miterlimit="10"/>
<path d="M445.406 364.884C461.426 345.957 469.173 322.954 469.173 300.083C469.173 297.323 469.042 294.563 468.779 291.802C466.678 266.171 454.86 241.46 433.719 223.584C414.81 207.548 391.831 199.793 368.983 199.793C366.225 199.793 363.468 199.924 360.71 200.187C335.105 202.29 310.418 214.12 292.56 235.282C276.54 254.21 268.793 277.212 268.793 300.083C268.793 302.844 268.924 305.604 269.187 308.364C271.288 333.995 283.106 358.707 304.247 376.583C323.156 392.619 346.135 400.374 368.983 400.374C371.74 400.374 374.498 400.242 377.256 399.98C402.861 397.876 427.548 386.047 445.406 364.884L444.487 364.096L445.406 364.884ZM432.931 354.238C417.962 371.851 397.346 381.84 375.942 383.549C354.539 385.258 332.61 378.949 314.883 363.964C297.287 348.98 287.308 328.343 285.601 306.918C283.894 285.493 290.197 263.542 305.166 245.797C320.135 228.184 340.751 218.195 362.155 216.486C383.558 214.777 405.487 221.086 423.214 236.071C440.81 251.055 450.789 271.692 452.497 293.117C454.204 314.542 447.901 336.493 432.931 354.238Z" fill="#E5E5E5"/>
<path d="M445.406 364.884C461.426 345.957 469.173 322.954 469.173 300.083C469.173 297.323 469.042 294.563 468.779 291.802C466.678 266.171 454.86 241.46 433.719 223.584C414.81 207.548 391.831 199.793 368.983 199.793C366.225 199.793 363.468 199.924 360.71 200.187C335.105 202.29 310.418 214.12 292.56 235.282C276.54 254.21 268.793 277.212 268.793 300.083C268.793 302.844 268.924 305.604 269.187 308.364C271.288 333.995 283.106 358.707 304.247 376.583C323.156 392.619 346.135 400.374 368.983 400.374C371.74 400.374 374.498 400.242 377.256 399.98C402.861 397.876 427.548 386.047 445.406 364.884ZM445.406 364.884L444.487 364.096L445.406 364.884ZM432.931 354.238C417.962 371.851 397.346 381.84 375.942 383.549C354.539 385.258 332.61 378.949 314.883 363.964C297.287 348.98 287.308 328.343 285.601 306.918C283.894 285.493 290.197 263.542 305.166 245.797C320.135 228.184 340.751 218.195 362.155 216.486C383.558 214.777 405.487 221.086 423.214 236.071C440.81 251.055 450.789 271.692 452.497 293.117C454.204 314.542 447.901 336.493 432.931 354.238Z" stroke="#2A2A30" stroke-miterlimit="10"/>
<path d="M201.168 388.281H63.9483C54.4939 388.281 46.7466 380.526 46.7466 371.062V180.733C46.7466 171.27 54.4939 163.515 63.9483 163.515H201.299C210.754 163.515 218.501 171.27 218.501 180.733V371.062C218.37 380.526 210.754 388.281 201.168 388.281Z" fill="#E5E5E5" stroke="#2A2A30" stroke-miterlimit="10"/>
<path opacity="0.2" d="M201.168 388.281H63.9483C54.4939 388.281 46.7466 380.526 46.7466 371.062V180.733C46.7466 171.27 54.4939 163.515 63.9483 163.515H201.299C210.754 163.515 218.501 171.27 218.501 180.733V371.062C218.37 380.526 210.754 388.281 201.168 388.281Z" fill="black"/>
<path d="M234.389 197.69V388.018C234.389 397.482 226.642 405.237 217.188 405.237H79.8368C70.3825 405.237 62.6351 397.482 62.6351 388.018V197.69C62.6351 188.226 70.3825 180.471 79.8368 180.471H217.188C226.773 180.471 234.389 188.094 234.389 197.69Z" fill="white" stroke="#263238" stroke-width="1.1031" stroke-miterlimit="10" stroke-linecap="round" stroke-linejoin="round"/>
<path d="M234.389 197.69V207.942H62.6351V197.69C62.6351 188.226 70.3825 180.471 79.8368 180.471H217.188C226.773 180.471 234.389 188.094 234.389 197.69Z" fill="#303037" stroke="#2A2A30" stroke-miterlimit="10"/>
<path d="M121.068 219.64H78.7864V226.738H121.068V219.64Z" fill="#ECAF23"/>
<path d="M121.068 283.259H78.7864V290.356H121.068V283.259Z" fill="#ECAF23"/>
<path d="M121.068 340.962H78.7864V348.06H121.068V340.962Z" fill="#ECAF23"/>
<path d="M198.804 237.254H78.7864V242.511H198.804V237.254Z" fill="#263238"/>
<path d="M177.138 247.112H78.7864V252.238H177.138V247.112Z" fill="#263238"/>
<path d="M190.006 256.97H78.7864V262.096H190.006V256.97Z" fill="#263238"/>
<path d="M190.006 266.697H78.7864V271.823H190.006V266.697Z" fill="#263238"/>
<path d="M198.804 294.957H78.7864V300.215H198.804V294.957Z" fill="#263238"/>
<path d="M177.138 304.815H78.7864V309.941H177.138V304.815Z" fill="#263238"/>
<path d="M190.006 314.673H78.7864V319.8H190.006V314.673Z" fill="#263238"/>
<path d="M198.804 358.181H78.7864V363.439H198.804V358.181Z" fill="#263238"/>
<path d="M177.138 368.17H78.7864V373.297H177.138V368.17Z" fill="#263238"/>
<path d="M190.006 378.029H78.7864V383.155H190.006V378.029Z" fill="#263238"/>
<path d="M427.941 48.5023V125.396C427.941 136.7 418.749 145.901 407.457 145.901H230.45C219.157 145.901 209.966 136.7 209.966 125.396V48.5023C209.966 37.1982 219.157 27.9972 230.45 27.9972H407.457C418.749 27.8658 427.941 37.0668 427.941 48.5023Z" fill="white" stroke="#222221" stroke-width="1.1031" stroke-miterlimit="10"/>
<path d="M427.941 48.5023V50.211H209.966V48.5023C209.966 37.1982 219.157 27.9972 230.45 27.9972H407.457C418.749 27.8658 427.941 37.0668 427.941 48.5023Z" fill="#303037" stroke="#2A2A30" stroke-miterlimit="10"/>
<path d="M242.005 42.7188C240.824 43.9018 238.723 43.9018 237.541 42.7188C236.359 41.5358 236.359 39.4328 237.541 38.2498C238.723 37.0668 240.824 37.0668 242.005 38.2498C243.187 39.5642 243.187 41.5358 242.005 42.7188Z" fill="#E5E5E5"/>
<path d="M256.581 42.7188C255.399 43.9018 253.298 43.9018 252.116 42.7188C250.935 41.5358 250.935 39.4328 252.116 38.2498C253.298 37.0668 255.399 37.0668 256.581 38.2498C257.763 39.5642 257.763 41.5358 256.581 42.7188Z" fill="#E5E5E5"/>
<path d="M271.157 42.7188C269.975 43.9018 267.874 43.9018 266.692 42.7188C265.51 41.5358 265.51 39.4328 266.692 38.2498C267.874 37.0668 269.975 37.0668 271.157 38.2498C272.338 39.5642 272.338 41.5358 271.157 42.7188Z" fill="#E5E5E5"/>
<path d="M295.186 64.4069H223.885V126.053H295.186V64.4069Z" stroke="#263238" stroke-width="1.1031" stroke-miterlimit="10" stroke-linecap="round" stroke-linejoin="round" stroke-dasharray="4.41 4.41"/>
<path d="M388.154 64.4069H306.085V68.7445H388.154V64.4069Z" fill="#263238"/>
<path d="M368.983 73.345H306.085V77.6826H368.983V73.345Z" fill="#263238"/>
<path d="M399.841 82.2831H306.085V86.6207H399.841V82.2831Z" fill="#263238"/>
<path d="M385.922 90.9583H306.085V95.2959H385.922V90.9583Z" fill="#263238"/>
<path d="M454.203 194.535H414.022C409.295 194.535 405.487 190.723 405.487 185.991V162.463C405.487 157.731 409.295 153.919 414.022 153.919H454.203C458.931 153.919 462.739 157.731 462.739 162.463V185.991C462.87 190.592 458.931 194.535 454.203 194.535Z" fill="white" stroke="#263238" stroke-width="1.1031" stroke-miterlimit="10" stroke-linecap="round" stroke-linejoin="round"/>
<path d="M424.002 166.012L412.972 172.978L423.214 182.048" stroke="#263238" stroke-width="1.1031" stroke-miterlimit="10" stroke-linecap="round" stroke-linejoin="round"/>
<path d="M444.093 182.705L453.941 174.161L442.517 166.669" stroke="#263238" stroke-width="1.1031" stroke-miterlimit="10" stroke-linecap="round" stroke-linejoin="round"/>
<path d="M429.386 187.831L437.527 162.332" stroke="#263238" stroke-width="1.1031" stroke-miterlimit="10" stroke-linecap="round" stroke-linejoin="round"/>
</svg>
