<svg width="807" height="452" viewBox="0 0 807 452" fill="none" xmlns="http://www.w3.org/2000/svg">
<g clip-path="url(#clip0)">
<path d="M537.011 196.23C536.762 192.739 536.264 189.248 535.517 186.007C535.268 184.76 535.018 183.763 534.769 182.516C534.271 180.272 533.773 178.028 533.275 175.784C532.777 173.54 532.03 171.296 531.282 169.301C530.286 166.06 529.041 162.818 527.795 159.826C527.048 157.832 526.052 155.587 525.055 153.593C523.561 150.601 522.066 147.609 520.572 144.617C497.158 101.73 451.576 72.8069 399.269 73.0563C376.852 73.0563 355.431 78.7911 336.749 88.266C334.259 89.5127 331.768 91.0087 329.277 92.5047C328.53 93.0034 327.782 93.5021 327.035 93.7514C325.79 94.4994 324.544 95.2475 323.548 95.9955C322.054 96.9928 320.559 97.9902 319.065 98.9875C318.068 99.7356 317.072 100.484 316.076 101.232C315.079 101.98 314.083 102.728 313.087 103.476C312.09 104.473 310.845 105.221 309.849 106.218C308.852 107.216 307.856 107.964 306.86 108.961C305.614 109.958 304.618 111.205 303.372 112.203C302.625 112.951 301.878 113.699 301.131 114.447C299.885 115.693 298.889 116.94 297.644 118.187C296.896 118.935 296.149 119.932 295.402 120.68C294.406 121.927 293.16 123.423 292.164 124.669C291.666 125.417 290.918 126.166 290.42 126.914C289.673 127.911 288.926 128.908 288.178 129.906C287.182 131.152 286.435 132.399 285.439 133.646C283.695 136.388 281.951 139.131 280.208 142.123C279.212 144.118 277.966 146.113 276.97 148.107C275.973 150.102 274.977 152.097 273.981 154.091C272.984 156.086 272.237 158.081 271.49 160.325C270.245 163.566 269.248 166.558 268.252 169.8C267.505 172.044 267.007 174.039 266.508 176.283C266.01 178.527 265.512 180.771 265.014 183.015C264.765 184.012 264.516 185.259 264.267 186.506C263.768 189.996 263.27 193.238 262.772 196.728C262.274 201.466 262.025 205.954 262.025 210.691C262.025 212.437 262.025 213.933 262.025 215.678C262.025 215.928 262.025 216.426 262.025 216.676C262.025 218.172 262.274 219.917 262.274 221.413C262.274 221.662 262.274 221.912 262.274 221.912C262.523 223.408 262.523 224.904 262.772 226.4C262.772 226.649 262.772 227.148 262.772 227.397C263.021 228.893 263.27 230.639 263.519 232.135C263.519 232.384 263.519 232.633 263.768 232.883C264.018 234.379 264.267 235.875 264.516 237.121C264.516 237.371 264.516 237.62 264.516 237.62C264.765 239.116 265.263 240.861 265.512 242.357C265.512 242.607 265.761 242.856 265.761 243.105C266.508 246.347 267.505 249.339 268.501 252.58C268.501 252.83 268.75 253.079 268.75 253.328C269.746 256.57 270.992 259.562 272.237 262.554C272.237 262.803 272.237 262.803 272.486 263.053C287.431 298.459 316.574 326.385 352.691 339.35L352.192 253.328L313.336 230.389L313.087 176.532C306.361 173.291 301.878 166.309 301.629 158.58C301.629 147.359 310.596 138.383 321.805 138.383C333.013 138.383 341.98 147.359 341.98 158.58C341.98 165.81 338.244 172.293 332.515 175.784L332.764 219.418L371.621 242.357L372.617 314.416C372.617 321.149 378.097 326.634 385.071 326.634C391.796 326.634 397.276 321.149 397.276 314.167V307.435V298.708L395.782 137.884C389.555 134.394 385.32 127.911 385.32 120.181C385.32 108.961 394.287 99.9849 405.496 99.9849C416.705 99.9849 425.672 108.961 425.672 120.181C425.672 127.911 421.437 134.394 415.21 137.884L416.206 346.581C424.426 345.584 432.148 343.838 439.869 341.594L439.62 257.567L478.228 234.379L477.979 190.744C471.752 187.254 467.517 180.771 467.517 173.041C467.517 161.821 476.484 152.845 487.693 152.845C498.902 152.845 507.869 161.821 507.869 173.041C507.869 180.771 503.634 187.254 497.407 190.744L497.656 245.599L459.049 268.787L459.298 334.114C486.697 320.899 508.865 298.708 522.564 271.53C523.312 270.283 523.81 268.787 524.557 267.291V267.042C525.304 265.546 525.802 264.05 526.55 262.803C527.048 261.557 527.546 260.061 528.293 258.565C528.293 258.315 528.542 258.066 528.542 258.066C529.539 255.323 530.535 252.331 531.282 249.588C531.282 249.339 531.531 249.09 531.531 248.84C532.03 247.344 532.279 246.098 532.777 244.602C532.777 244.602 532.777 244.602 532.777 244.352C533.026 242.856 533.524 241.36 533.773 239.864C533.773 239.615 534.022 239.116 534.022 238.867C534.271 237.62 534.52 236.373 534.769 235.127C534.769 234.877 534.769 234.628 535.018 234.379C535.268 232.883 535.517 231.387 535.766 229.891C535.766 229.641 535.766 229.392 536.015 228.893C536.264 227.646 536.264 226.4 536.513 225.153C536.513 224.904 536.513 224.405 536.513 224.156C536.762 222.66 536.762 221.164 537.011 219.668C537.011 219.418 537.011 219.169 537.011 218.92C537.011 217.673 537.26 216.426 537.26 214.93C537.26 214.432 537.26 214.182 537.26 213.683C537.26 212.187 537.26 210.691 537.26 209.195C537.758 205.455 537.509 200.718 537.011 196.23Z" fill="#E5E5E5"/>
<path d="M331.021 150.85C326.039 146.611 318.317 147.11 314.083 152.346C309.849 157.333 310.347 165.062 315.577 169.301C320.559 173.54 328.281 173.041 332.515 167.805C336.749 162.569 336.002 155.089 331.021 150.85Z" fill="#E5E5E5"/>
<path d="M414.214 111.454C409.232 107.216 401.511 107.714 397.276 112.95C393.042 117.937 393.54 125.667 398.771 129.905C403.752 134.144 411.474 133.645 415.708 128.409C419.694 123.173 419.195 115.693 414.214 111.454Z" fill="#E5E5E5"/>
<path d="M497.656 181.27C501.891 176.283 501.392 168.553 496.162 164.315C491.18 160.076 483.459 160.575 479.224 165.811C474.99 170.797 475.488 178.527 480.719 182.766C485.949 187.004 493.422 186.506 497.656 181.27Z" fill="#E5E5E5"/>
<path d="M586.827 210.691H580.6C580.6 254.825 564.908 295.217 538.506 326.385C512.352 357.801 475.737 379.993 433.891 387.972C422.932 389.966 411.723 391.213 400.265 391.213C356.676 391.213 316.823 375.754 285.688 350.072C245.586 316.91 220.179 266.793 220.179 210.691C220.179 160.824 240.355 115.693 272.984 83.0299C305.614 50.3665 350.698 30.1701 400.514 30.1701C450.331 30.1701 495.414 50.3665 528.044 83.0299C560.674 115.693 580.849 160.824 580.849 210.691H586.827H593.055C593.055 104.224 506.872 17.7031 400.265 17.7031C293.907 17.7031 207.725 104.224 207.725 210.691C207.725 270.533 235.124 324.141 277.966 359.547C311.343 386.974 353.936 403.431 400.514 403.431C412.719 403.431 424.675 402.184 436.382 400.189C480.968 391.712 520.323 368.024 548.22 334.364C576.366 300.952 593.055 257.567 593.055 210.691H586.827Z" fill="#54545B"/>
<path d="M415.21 390.964H285.937V403.431H415.21" fill="#54545B"/>
<path d="M433.891 387.972C422.932 389.966 411.723 391.213 400.265 391.213C356.676 391.213 316.823 375.754 285.688 350.072C245.586 316.91 220.179 266.793 220.179 210.691C220.179 160.824 240.355 115.693 272.985 83.0299C305.614 50.3665 350.698 30.1701 400.514 30.1701V17.7031C293.907 17.7031 207.725 104.224 207.725 210.691C207.725 270.533 235.124 324.141 277.966 359.547C311.343 386.974 353.936 403.431 400.514 403.431C412.719 403.431 424.675 402.184 436.382 400.189L433.891 387.972Z" fill="#E5E5E5"/>
<path d="M285.937 390.964H16.4304V403.431H285.937" fill="#E5E5E5"/>
<path d="M791.324 390.964H430.653V403.431H791.324" fill="#E5E5E5"/>
<path d="M131.008 413.903C139.537 413.903 146.451 406.982 146.451 398.444C146.451 389.906 139.537 382.985 131.008 382.985C122.479 382.985 115.565 389.906 115.565 398.444C115.565 406.982 122.479 413.903 131.008 413.903Z" fill="#ECAF23"/>
<path d="M16.4304 413.903C24.9593 413.903 31.8734 406.982 31.8734 398.444C31.8734 389.906 24.9593 382.985 16.4304 382.985C7.9014 382.985 0.987305 389.906 0.987305 398.444C0.987305 406.982 7.9014 413.903 16.4304 413.903Z" fill="#ECAF23"/>
<path d="M285.937 413.903C294.466 413.903 301.38 406.982 301.38 398.444C301.38 389.906 294.466 382.985 285.937 382.985C277.408 382.985 270.494 389.906 270.494 398.444C270.494 406.982 277.408 413.903 285.937 413.903Z" fill="#ECAF23"/>
<path d="M213.952 244.851C222.481 244.851 229.395 237.93 229.395 229.392C229.395 220.854 222.481 213.933 213.952 213.933C205.423 213.933 198.509 220.854 198.509 229.392C198.509 237.93 205.423 244.851 213.952 244.851Z" fill="#ECAF23"/>
<path d="M547.722 111.953C556.251 111.953 563.165 105.032 563.165 96.4942C563.165 87.9564 556.251 81.0352 547.722 81.0352C539.193 81.0352 532.279 87.9564 532.279 96.4942C532.279 105.032 539.193 111.953 547.722 111.953Z" fill="#ECAF23"/>
<path d="M282.45 81.0352C290.979 81.0352 297.893 74.114 297.893 65.5762C297.893 57.0384 290.979 50.1172 282.45 50.1172C273.921 50.1172 267.007 57.0384 267.007 65.5762C267.007 74.114 273.921 81.0352 282.45 81.0352Z" fill="#ECAF23"/>
<path d="M578.608 275.52C587.137 275.52 594.051 268.598 594.051 260.061C594.051 251.523 587.137 244.602 578.608 244.602C570.079 244.602 563.165 251.523 563.165 260.061C563.165 268.598 570.079 275.52 578.608 275.52Z" fill="#ECAF23"/>
<path d="M430.653 410.163C439.182 410.163 446.096 403.241 446.096 394.704C446.096 386.166 439.182 379.245 430.653 379.245C422.124 379.245 415.21 386.166 415.21 394.704C415.21 403.241 422.124 410.163 430.653 410.163Z" fill="#ECAF23"/>
<path d="M791.324 412.656C799.853 412.656 806.767 405.735 806.767 397.197C806.767 388.659 799.853 381.738 791.324 381.738C782.795 381.738 775.881 388.659 775.881 397.197C775.881 405.735 782.795 412.656 791.324 412.656Z" fill="#ECAF23"/>
<path d="M24.1519 448.062H21.6611C20.6648 448.062 19.6685 448.81 19.6685 450.057C19.6685 451.054 20.4157 452.051 21.6611 452.051H24.1519C25.1483 452.051 26.1446 451.303 26.1446 450.057C25.8955 449.059 25.1483 448.062 24.1519 448.062ZM46.0711 448.062H35.1115C34.1152 448.062 33.1189 448.81 33.1189 450.057C33.1189 451.054 33.8661 452.051 35.1115 452.051H46.0711C47.0674 452.051 48.0638 451.303 48.0638 450.057C47.8147 449.059 47.0674 448.062 46.0711 448.062ZM67.9903 448.062H57.0307C56.0344 448.062 55.0381 448.81 55.0381 450.057C55.0381 451.054 55.7853 452.051 57.0307 452.051H67.9903C68.9866 452.051 69.983 451.303 69.983 450.057C69.983 449.059 68.9866 448.062 67.9903 448.062ZM89.9095 448.062H78.9499C77.9536 448.062 76.9573 448.81 76.9573 450.057C76.9573 451.054 77.7045 452.051 78.9499 452.051H89.9095C90.9058 452.051 91.9022 451.303 91.9022 450.057C91.9022 449.059 91.1549 448.062 89.9095 448.062ZM112.078 448.062H101.118C100.122 448.062 99.1255 448.81 99.1255 450.057C99.1255 451.054 99.8728 452.051 101.118 452.051H112.078C113.074 452.051 114.07 451.303 114.07 450.057C113.821 449.059 113.074 448.062 112.078 448.062ZM125.528 443.574V448.062H123.037C122.041 448.062 121.045 448.81 121.045 450.057C121.045 451.054 121.792 452.051 123.037 452.051H127.521C128.019 452.051 128.517 451.802 128.766 451.553C129.015 451.303 129.264 450.805 129.264 450.306V443.823C129.264 442.826 128.517 442.078 127.521 442.078C126.525 441.579 125.528 442.576 125.528 443.574ZM125.528 421.632V432.603C125.528 433.6 126.275 434.598 127.521 434.598C128.517 434.598 129.513 433.85 129.513 432.603V421.632C129.513 420.635 128.766 419.637 127.521 419.637C126.525 419.637 125.528 420.635 125.528 421.632Z" fill="#ECAF23"/>
<path d="M180.077 448.062H177.586C176.59 448.062 175.594 448.81 175.594 450.057C175.594 451.054 176.341 452.051 177.586 452.051H180.077C181.073 452.051 182.07 451.303 182.07 450.057C182.07 449.059 181.073 448.062 180.077 448.062ZM201.996 448.062H191.037C190.04 448.062 189.044 448.81 189.044 450.057C189.044 451.054 189.791 452.051 191.037 452.051H201.996C202.992 452.051 203.989 451.303 203.989 450.057C203.989 449.059 202.992 448.062 201.996 448.062ZM224.164 448.062H213.205C212.209 448.062 211.212 448.81 211.212 450.057C211.212 451.054 211.959 452.051 213.205 452.051H224.164C225.161 452.051 226.157 451.303 226.157 450.057C225.908 449.059 225.161 448.062 224.164 448.062ZM246.084 448.062H235.124C234.128 448.062 233.131 448.81 233.131 450.057C233.131 451.054 233.879 452.051 235.124 452.051H246.084C247.08 452.051 248.076 451.303 248.076 450.057C247.827 449.059 247.08 448.062 246.084 448.062ZM268.003 448.062H257.043C256.047 448.062 255.051 448.81 255.051 450.057C255.051 451.054 255.798 452.051 257.043 452.051H268.003C268.999 452.051 269.996 451.303 269.996 450.057C269.996 449.059 268.999 448.062 268.003 448.062ZM281.702 443.574V448.062H278.962C277.966 448.062 276.97 448.81 276.97 450.057C276.97 451.054 277.717 452.051 278.962 452.051H283.446C283.944 452.051 284.442 451.802 284.691 451.553C284.94 451.303 285.189 450.805 285.189 450.306V443.823C285.189 442.826 284.442 442.078 283.446 442.078C282.45 441.579 281.702 442.576 281.702 443.574ZM281.702 421.632V432.603C281.702 433.6 282.45 434.598 283.695 434.598C284.691 434.598 285.688 433.85 285.688 432.603V421.632C285.688 420.635 284.94 419.637 283.695 419.637C282.45 419.637 281.702 420.635 281.702 421.632Z" fill="#ECAF23"/>
<path d="M534.022 451.304H536.513C537.509 451.304 538.506 450.556 538.506 449.309C538.506 448.311 537.758 447.314 536.513 447.314H534.022C533.026 447.314 532.03 448.062 532.03 449.309C532.279 450.306 533.026 451.304 534.022 451.304ZM512.103 451.304H523.063C524.059 451.304 525.055 450.556 525.055 449.309C525.055 448.311 524.308 447.314 523.063 447.314H512.103C511.107 447.314 510.11 448.062 510.11 449.309C510.11 450.306 511.107 451.304 512.103 451.304ZM490.184 451.304H501.143C502.14 451.304 503.136 450.556 503.136 449.309C503.136 448.311 502.389 447.314 501.143 447.314H490.184C489.187 447.314 488.191 448.062 488.191 449.309C488.191 450.306 489.187 451.304 490.184 451.304ZM468.016 451.304H478.975C479.971 451.304 480.968 450.556 480.968 449.309C480.968 448.311 480.221 447.314 478.975 447.314H468.016C467.019 447.314 466.023 448.062 466.023 449.309C466.272 450.306 467.019 451.304 468.016 451.304ZM446.096 451.304H457.056C458.052 451.304 459.049 450.556 459.049 449.309C459.049 448.311 458.301 447.314 457.056 447.314H446.096C445.1 447.314 444.104 448.062 444.104 449.309C444.353 450.306 445.1 451.304 446.096 451.304ZM428.661 442.826V449.309C428.661 449.807 428.91 450.306 429.159 450.556C429.408 450.805 429.906 451.054 430.404 451.054H434.888C435.884 451.054 436.631 450.306 436.631 449.309C436.631 448.311 435.884 447.563 434.888 447.563H432.148V443.075C432.148 442.078 431.401 441.33 430.404 441.33C429.657 441.081 428.661 441.829 428.661 442.826ZM428.661 420.884V431.855C428.661 432.852 429.408 433.85 430.653 433.85C431.65 433.85 432.646 433.102 432.646 431.855V420.884C432.646 419.887 431.899 418.889 430.653 418.889C429.657 419.139 428.661 419.887 428.661 420.884Z" fill="#ECAF23"/>
<path d="M793.067 437.839V426.868C793.067 425.871 792.32 424.874 791.074 424.874C790.078 424.874 789.082 425.622 789.082 426.868V437.839C789.082 438.837 789.829 439.834 791.074 439.834C792.32 439.834 793.067 438.837 793.067 437.839ZM773.39 443.823H784.349C785.346 443.823 786.342 443.075 786.342 441.829C786.342 440.831 785.595 439.834 784.349 439.834H773.39C772.393 439.834 771.397 440.582 771.397 441.829C771.397 443.075 772.393 443.823 773.39 443.823ZM751.47 443.823H762.43C763.426 443.823 764.423 443.075 764.423 441.829C764.423 440.831 763.675 439.834 762.43 439.834H751.47C750.474 439.834 749.478 440.582 749.478 441.829C749.478 443.075 750.225 443.823 751.47 443.823ZM729.302 443.823H740.262C741.258 443.823 742.254 443.075 742.254 441.829C742.254 440.831 741.507 439.834 740.262 439.834H729.302C728.306 439.834 727.31 440.582 727.31 441.829C727.559 443.075 728.306 443.823 729.302 443.823ZM707.383 443.823H718.343C719.339 443.823 720.335 443.075 720.335 441.829C720.335 440.831 719.588 439.834 718.343 439.834H707.383C706.387 439.834 705.39 440.582 705.39 441.829C705.639 443.075 706.387 443.823 707.383 443.823ZM685.464 443.823H696.423C697.42 443.823 698.416 443.075 698.416 441.829C698.416 440.831 697.669 439.834 696.423 439.834H685.464C684.467 439.834 683.471 440.582 683.471 441.829C683.471 443.075 684.467 443.823 685.464 443.823Z" fill="#ECAF23"/>
<path d="M14.4377 359.547V370.518C14.4377 371.515 15.185 372.512 16.4304 372.512C17.4267 372.512 18.4231 371.764 18.4231 370.518V359.547C18.4231 358.549 17.6758 357.552 16.4304 357.552C15.4341 357.552 14.4377 358.3 14.4377 359.547ZM34.3643 353.562H23.4047C22.4084 353.562 21.412 354.311 21.412 355.557C21.412 356.555 22.1593 357.552 23.4047 357.552H34.3643C35.3606 357.552 36.3569 356.804 36.3569 355.557C36.1079 354.311 35.3606 353.562 34.3643 353.562ZM56.2835 353.562H45.3239C44.3275 353.562 43.3312 354.311 43.3312 355.557C43.3312 356.555 44.0785 357.552 45.3239 357.552H56.2835C57.2798 357.552 58.2761 356.804 58.2761 355.557C58.027 354.311 57.2798 353.562 56.2835 353.562ZM78.2027 353.562H67.2431C66.2467 353.562 65.2504 354.311 65.2504 355.557C65.2504 356.555 65.9977 357.552 67.2431 357.552H78.2027C79.199 357.552 80.1953 356.804 80.1953 355.557C80.1953 354.311 79.199 353.562 78.2027 353.562ZM100.122 353.562H89.1623C88.1659 353.562 87.1696 354.311 87.1696 355.557C87.1696 356.555 87.9169 357.552 89.1623 357.552H100.122C101.118 357.552 102.114 356.804 102.114 355.557C102.114 354.311 101.367 353.562 100.122 353.562ZM122.29 353.562H111.331C110.334 353.562 109.338 354.311 109.338 355.557C109.338 356.555 110.085 357.552 111.331 357.552H122.29C123.286 357.552 124.283 356.804 124.283 355.557C124.034 354.311 123.286 353.562 122.29 353.562Z" fill="#ECAF23"/>
<path d="M182.568 210.193L190.788 217.423C191.535 218.171 192.78 218.171 193.528 217.174C194.275 216.177 194.275 215.179 193.278 214.431L185.059 207.201C184.311 206.452 183.066 206.452 182.319 207.45C181.572 208.447 181.821 209.445 182.568 210.193ZM166.129 195.482L174.348 202.712C175.095 203.46 176.341 203.46 177.088 202.463C177.835 201.715 177.835 200.468 176.839 199.72L168.619 192.49C167.872 191.991 166.627 191.991 166.129 192.739C165.381 193.487 165.381 194.734 166.129 195.482ZM149.689 180.771L157.909 188.001C158.656 188.749 159.901 188.749 160.649 187.752C161.396 187.004 161.396 185.757 160.4 185.009L152.18 177.779C151.433 177.031 150.187 177.03 149.44 178.028C148.942 178.776 148.942 180.023 149.689 180.771ZM129.513 180.272H140.473C141.469 180.272 142.466 179.524 142.466 178.277C142.466 177.28 141.718 176.282 140.473 176.282H129.513C128.517 176.282 127.521 177.03 127.521 178.277C127.521 179.275 128.517 180.272 129.513 180.272ZM107.594 180.272H118.554C119.55 180.272 120.547 179.524 120.547 178.277C120.547 177.28 119.799 176.282 118.554 176.282H107.594C106.598 176.282 105.602 177.03 105.602 178.277C105.602 179.275 106.349 180.272 107.594 180.272ZM85.426 180.272H96.3856C97.3819 180.272 98.3783 179.524 98.3783 178.277C98.3783 177.28 97.631 176.282 96.3856 176.282H85.426C84.4297 176.282 83.4334 177.03 83.4334 178.277C83.6824 179.275 84.4297 180.272 85.426 180.272ZM63.5068 180.272H74.4664C75.4627 180.272 76.4591 179.524 76.4591 178.277C76.4591 177.28 75.7118 176.282 74.4664 176.282H63.5068C62.5105 176.282 61.5142 177.03 61.5142 178.277C61.7632 179.275 62.5105 180.272 63.5068 180.272ZM41.5876 180.272H52.5472C53.5436 180.272 54.5399 179.524 54.5399 178.277C54.5399 177.28 53.7926 176.282 52.5472 176.282H41.5876C40.5913 176.282 39.595 177.03 39.595 178.277C39.595 179.275 40.5913 180.272 41.5876 180.272ZM19.6684 180.272H30.628C31.6244 180.272 32.6207 179.524 32.6207 178.277C32.6207 177.28 31.8734 176.282 30.628 176.282H19.6684C18.6721 176.282 17.6758 177.03 17.6758 178.277C17.6758 179.275 18.423 180.272 19.6684 180.272Z" fill="#ECAF23"/>
<path d="M250.318 33.6606L258.538 40.8914C259.285 41.6394 260.531 41.6394 261.278 40.6421C262.025 39.8941 262.025 38.6474 261.029 37.8994L252.809 30.6685C252.062 29.9205 250.816 29.9205 250.069 30.9179C249.322 31.9152 249.571 32.9126 250.318 33.6606ZM233.879 18.9496L242.098 26.1804C242.846 26.9284 244.091 26.9284 244.838 25.9311C245.586 25.1831 245.586 23.9364 244.589 23.1884L236.37 15.9575C235.622 15.2095 234.377 15.2095 233.63 16.2069C233.132 17.2042 233.132 18.2016 233.879 18.9496ZM217.439 4.23859L225.659 11.4694C226.406 12.2174 227.652 12.2174 228.399 11.2201C229.146 10.4721 229.146 9.22537 228.15 8.47735L219.93 1.24652C219.183 0.498505 217.938 0.498505 217.19 1.49586C216.692 2.49322 216.692 3.49057 217.439 4.23859ZM197.264 3.73991H208.223C209.22 3.73991 210.216 2.9919 210.216 1.7452C210.216 0.747844 209.469 -0.249512 208.223 -0.249512H197.264C196.267 -0.000172734 195.271 0.747844 195.271 1.99454C195.271 2.9919 196.267 3.73991 197.264 3.73991ZM175.096 3.73991H186.055C187.051 3.73991 188.048 2.9919 188.048 1.7452C188.048 0.747844 187.301 -0.249512 186.055 -0.249512H175.096C174.099 -0.249512 173.103 0.498505 173.103 1.7452C173.352 2.9919 174.099 3.73991 175.096 3.73991ZM153.176 3.73991H164.136C165.132 3.73991 166.129 2.9919 166.129 1.7452C166.129 0.747844 165.381 -0.249512 164.136 -0.249512H153.176C152.18 -0.249512 151.184 0.498505 151.184 1.7452C151.433 2.9919 152.18 3.73991 153.176 3.73991ZM131.257 3.73991H142.217C143.213 3.73991 144.209 2.9919 144.209 1.7452C144.209 0.747844 143.462 -0.249512 142.217 -0.249512H131.257C130.261 -0.249512 129.264 0.498505 129.264 1.7452C129.264 2.9919 130.261 3.73991 131.257 3.73991ZM109.338 3.73991H120.298C121.294 3.73991 122.29 2.9919 122.29 1.7452C122.29 0.747844 121.543 -0.249512 120.298 -0.249512H109.338C108.342 -0.249512 107.345 0.498505 107.345 1.7452C107.345 2.9919 108.342 3.73991 109.338 3.73991ZM87.1697 3.73991H98.1293C99.1256 3.73991 100.122 2.9919 100.122 1.7452C100.122 0.747844 99.3747 -0.249512 98.1293 -0.249512H87.1697C86.1733 -0.249512 85.177 0.498505 85.177 1.7452C85.4261 2.9919 86.1733 3.73991 87.1697 3.73991Z" fill="#ECAF23"/>
<path d="M577.363 65.8255L569.143 73.0563C568.396 73.8043 568.396 75.051 568.894 75.799C569.392 76.5471 570.886 76.5471 571.634 76.0484L579.853 68.8176C580.601 68.0695 580.601 66.8228 580.102 66.0748C579.604 65.3268 578.11 65.0775 577.363 65.8255ZM593.802 51.1145L585.582 58.3453C584.835 59.0933 584.835 60.34 585.333 61.0881C585.831 61.8361 587.326 61.8361 588.073 61.3374L596.293 54.1066C597.04 53.3586 597.04 52.1119 596.542 51.3638C596.044 50.6158 594.549 50.3665 593.802 51.1145ZM610.241 36.4035L602.022 43.6343C601.274 44.3823 601.274 45.629 601.773 46.3771C602.271 47.1251 603.765 47.1251 604.513 46.6264L612.732 39.3956C613.479 38.6476 613.479 37.4009 612.981 36.6528C612.483 35.9048 610.989 35.6555 610.241 36.4035ZM632.908 34.9075H621.948C620.952 34.9075 619.956 35.6555 619.956 36.9022C619.956 37.8995 620.703 38.8969 621.948 38.8969H632.908C633.904 38.8969 634.9 38.1489 634.9 36.9022C634.9 35.6555 633.904 34.9075 632.908 34.9075ZM654.827 34.9075H643.867C642.871 34.9075 641.875 35.6555 641.875 36.9022C641.875 37.8995 642.622 38.8969 643.867 38.8969H654.827C655.823 38.8969 656.82 38.1489 656.82 36.9022C656.82 35.6555 656.072 34.9075 654.827 34.9075ZM676.995 34.9075H666.036C665.039 34.9075 664.043 35.6555 664.043 36.9022C664.043 37.8995 664.79 38.8969 666.036 38.8969H676.995C677.992 38.8969 678.988 38.1489 678.988 36.9022C678.739 35.6555 677.992 34.9075 676.995 34.9075ZM698.914 34.9075H687.955C686.959 34.9075 685.962 35.6555 685.962 36.9022C685.962 37.8995 686.709 38.8969 687.955 38.8969H698.914C699.911 38.8969 700.907 38.1489 700.907 36.9022C700.658 35.6555 699.911 34.9075 698.914 34.9075ZM720.834 34.9075H709.874C708.878 34.9075 707.881 35.6555 707.881 36.9022C707.881 37.8995 708.629 38.8969 709.874 38.8969H720.834C721.83 38.8969 722.826 38.1489 722.826 36.9022C722.826 35.6555 721.83 34.9075 720.834 34.9075ZM742.753 34.9075H731.793C730.797 34.9075 729.801 35.6555 729.801 36.9022C729.801 37.8995 730.548 38.8969 731.793 38.8969H742.753C743.749 38.8969 744.745 38.1489 744.745 36.9022C744.745 35.6555 743.998 34.9075 742.753 34.9075Z" fill="#ECAF23"/>
<path d="M613.23 236.124L605.011 243.355C604.263 244.103 604.263 245.349 604.761 246.097C605.26 246.845 606.754 246.845 607.501 246.347L615.721 239.116C616.468 238.368 616.468 237.121 615.97 236.373C615.472 235.625 613.978 235.625 613.23 236.124ZM629.67 221.413L621.45 228.644C620.703 229.392 620.703 230.638 621.201 231.386C621.699 232.134 623.194 232.134 623.941 231.636L632.16 224.405C632.908 223.657 632.908 222.41 632.41 221.662C631.911 220.914 630.417 220.914 629.67 221.413ZM645.86 206.951L637.64 214.182C636.893 214.93 636.893 216.177 637.391 216.925C637.889 217.673 639.384 217.673 640.131 217.174L648.351 209.943C649.098 209.195 649.098 207.948 648.6 207.2C648.102 206.452 646.607 206.203 645.86 206.951ZM668.775 205.455H657.816C656.82 205.455 655.823 206.203 655.823 207.45C655.823 208.447 656.571 209.444 657.816 209.444H668.775C669.772 209.444 670.768 208.696 670.768 207.45C670.519 206.203 669.772 205.455 668.775 205.455ZM690.695 205.455H679.735C678.739 205.455 677.742 206.203 677.742 207.45C677.742 208.447 678.49 209.444 679.735 209.444H690.695C691.691 209.444 692.687 208.696 692.687 207.45C692.687 206.203 691.691 205.455 690.695 205.455ZM712.614 205.455H701.654C700.658 205.455 699.662 206.203 699.662 207.45C699.662 208.447 700.409 209.444 701.654 209.444H712.614C713.61 209.444 714.606 208.696 714.606 207.45C714.606 206.203 713.859 205.455 712.614 205.455ZM734.782 205.455H723.823C722.826 205.455 721.83 206.203 721.83 207.45C721.83 208.447 722.577 209.444 723.823 209.444H734.782C735.778 209.444 736.775 208.696 736.775 207.45C736.526 206.203 735.778 205.455 734.782 205.455ZM756.701 205.455H745.742C744.745 205.455 743.749 206.203 743.749 207.45C743.749 208.447 744.496 209.444 745.742 209.444H756.701C757.698 209.444 758.694 208.696 758.694 207.45C758.445 206.203 757.698 205.455 756.701 205.455ZM778.62 205.455H767.661C766.664 205.455 765.668 206.203 765.668 207.45C765.668 208.447 766.415 209.444 767.661 209.444H778.62C779.617 209.444 780.613 208.696 780.613 207.45C780.613 206.203 779.617 205.455 778.62 205.455Z" fill="#ECAF23"/>
</g>
<defs>
<clipPath id="clip0">
<rect width="805.53" height="451.802" fill="white" transform="translate(0.987305)"/>
</clipPath>
</defs>
</svg>
