<svg width="309" height="77" viewBox="0 0 309 77" fill="none" xmlns="http://www.w3.org/2000/svg">
<g clip-path="url(#clip0)">
<path d="M119.522 26.8467C118.033 25.3716 116.247 24.1916 114.312 23.3065C112.377 22.4214 110.145 21.9789 107.912 21.9789C105.53 21.9789 103.447 22.4214 101.363 23.3065C99.2789 24.1916 97.6416 25.3716 96.1532 26.8467C94.6647 28.3218 93.474 30.0919 92.5809 32.1571C91.6879 34.2222 91.2413 36.2873 91.2413 38.6475V60.7739H96.0043V50.1532C97.1951 51.3333 98.6835 52.5134 100.172 53.2509C102.405 54.431 105.084 55.0211 107.912 55.0211C110.145 55.0211 112.377 54.5785 114.312 53.6935C116.247 52.8084 118.033 51.6283 119.522 50.1532C121.01 48.6781 122.201 46.908 123.094 44.9904C123.987 42.9253 124.434 40.8601 124.434 38.5C124.434 36.2873 123.987 34.0747 123.094 32.0096C122.201 29.9444 121.01 28.3218 119.522 26.8467ZM107.763 50.3007C106.126 50.3007 104.637 50.0057 103.149 49.4157C101.66 48.8257 100.47 47.9406 99.4278 46.908C98.3858 45.8755 97.4928 44.5479 96.8974 43.2203C96.302 41.7452 96.0043 40.2701 96.0043 38.6475C96.0043 37.0249 96.302 35.5498 96.8974 34.0747C97.4928 32.5996 98.3858 31.4195 99.4278 30.387C100.47 29.3544 101.809 28.4693 103.149 27.8793C104.637 27.2893 106.126 26.9942 107.763 26.9942C109.4 26.9942 110.889 27.2893 112.377 27.8793C113.866 28.4693 115.056 29.3544 116.098 30.387C117.14 31.4195 118.033 32.7471 118.629 34.0747C119.224 35.5498 119.522 37.0249 119.522 38.6475C119.522 40.2701 119.224 41.7452 118.629 43.2203C118.033 44.6954 117.14 45.8755 116.098 46.908C115.056 47.9406 113.717 48.8257 112.377 49.4157C110.889 50.0057 109.4 50.3007 107.763 50.3007Z" fill="#E5E5E5"/>
<path d="M157.328 38.5C157.328 40.1226 157.03 41.5977 156.435 43.0728C155.84 44.5479 154.947 45.728 153.905 46.7605C152.863 47.7931 151.523 48.6781 150.184 49.2682C148.695 49.8582 147.207 50.1532 145.569 50.1532C143.932 50.1532 142.444 49.8582 140.955 49.2682C139.467 48.6781 138.276 47.7931 137.234 46.7605C136.192 45.728 135.299 44.4004 134.704 43.0728C134.108 41.5977 133.811 40.1226 133.811 38.5V21.9789H129.048V38.5C129.048 40.8601 129.494 42.9253 130.387 44.9904C131.28 47.0555 132.471 48.6781 133.96 50.1532C135.448 51.6283 137.234 52.8084 139.169 53.6935C141.253 54.5785 143.337 55.0211 145.718 55.0211C147.951 55.0211 150.184 54.5785 152.119 53.6935C154.053 52.8084 155.84 51.6283 157.328 50.1532C158.817 48.6781 160.007 46.908 160.9 44.9904C161.793 42.9253 162.24 40.8601 162.24 38.5V21.9789H157.477V38.5H157.328Z" fill="#E5E5E5"/>
<path d="M192.157 48.0881C191.413 46.1705 190.371 44.4004 188.883 42.9253C187.543 41.4502 185.906 40.2701 183.971 39.2375C182.631 38.5 181.143 38.0575 179.506 37.7625L192.902 24.7816L189.627 21.5364L171.17 39.8276V16.3736H166.407V55.0211H171.17V46.4655L175.487 42.4828H176.827C178.464 42.4828 179.952 42.7778 181.441 43.3678C182.929 43.9579 184.12 44.8429 185.162 45.8755C186.204 46.908 187.097 48.2356 187.692 49.5632C188.288 51.0383 188.585 52.5134 188.585 54.136V54.8736H193.348V54.136C193.348 52.0709 193.051 50.0057 192.157 48.0881Z" fill="#E5E5E5"/>
<path d="M212.847 21.8314C215.228 21.8314 217.312 22.2739 219.396 23.159C221.48 24.0441 223.266 25.2241 224.754 26.6992C226.243 28.1743 227.434 29.9444 228.327 32.0096C229.22 34.0747 229.666 36.1399 229.666 38.5V55.0211H226.243V48.3831C224.754 50.3008 222.819 51.9234 220.438 53.251C218.056 54.431 215.526 55.0211 212.847 55.0211C210.465 55.0211 208.233 54.5786 206.298 53.6935C204.214 52.8084 202.577 51.6284 200.939 50.1533C199.451 48.6782 198.26 46.9081 197.367 44.8429C196.474 42.7778 196.027 40.7126 196.027 38.3525C196.027 35.9923 196.474 33.9272 197.367 31.8621C198.26 29.7969 199.451 28.0268 200.939 26.5517C202.428 25.0766 204.214 23.8966 206.298 23.0115C208.382 22.2739 210.465 21.8314 212.847 21.8314ZM212.847 51.7759C214.633 51.7759 216.419 51.4809 218.056 50.7433C219.694 50.0058 221.033 49.1207 222.373 47.9406C223.564 46.7605 224.605 45.2854 225.201 43.6628C225.945 42.0402 226.243 40.2701 226.243 38.5C226.243 36.7299 225.945 34.9598 225.201 33.3372C224.457 31.7146 223.564 30.387 222.373 29.0594C221.182 27.8793 219.694 26.8467 218.056 26.2567C216.419 25.5192 214.633 25.2241 212.847 25.2241C211.061 25.2241 209.275 25.5192 207.637 26.2567C206 26.9943 204.66 27.8793 203.321 29.0594C202.13 30.2395 201.088 31.7146 200.493 33.3372C199.749 34.9598 199.451 36.7299 199.451 38.5C199.451 40.2701 199.749 42.0402 200.493 43.6628C201.237 45.2854 202.13 46.613 203.321 47.9406C204.512 49.1207 206 50.1533 207.637 50.7433C209.275 51.3333 211.061 51.7759 212.847 51.7759Z" fill="#E5E5E5"/>
<path d="M252.588 21.8314C254.821 21.8314 257.053 22.2739 258.988 23.159C260.923 24.0441 262.709 25.2241 264.347 26.6992C265.835 28.1743 267.175 29.9444 268.068 32.0096C268.961 34.0747 269.407 36.1399 269.407 38.5H266.133C266.133 36.7299 265.835 34.9598 265.091 33.3372C264.347 31.7146 263.454 30.387 262.263 29.0594C261.072 27.8793 259.584 26.8467 257.946 26.2567C256.309 25.5192 254.523 25.2241 252.737 25.2241C250.951 25.2241 249.165 25.5192 247.527 26.2567C245.89 26.9943 244.55 27.8793 243.211 29.0594C242.02 30.2395 240.978 31.7146 240.383 33.3372C239.639 34.9598 239.341 36.7299 239.341 38.5V55.0211H236.066V38.5C236.066 36.1399 236.513 34.0747 237.406 32.0096C238.299 29.9444 239.49 28.1743 240.978 26.6992C242.467 25.2241 244.253 24.0441 246.337 23.159C247.974 22.2739 250.207 21.8314 252.588 21.8314Z" fill="#E5E5E5"/>
<path d="M292.329 21.8314C294.711 21.8314 296.795 22.2739 298.879 23.159C300.962 24.0441 302.749 25.2241 304.237 26.6992C305.725 28.1743 306.916 29.9444 307.809 32.0096C308.702 34.0747 309.149 36.1399 309.149 38.5V55.0211H305.874V48.3831C304.386 50.3008 302.451 51.9234 300.069 53.251C297.688 54.431 295.158 55.0211 292.478 55.0211C290.097 55.0211 287.864 54.5786 285.929 53.6935C283.845 52.8084 282.208 51.6284 280.571 50.1533C279.082 48.6782 277.892 46.9081 276.999 44.8429C276.105 42.7778 275.659 40.7126 275.659 38.3525C275.659 35.9923 276.105 33.9272 276.999 31.8621C277.892 29.7969 279.082 28.0268 280.571 26.5517C282.059 25.0766 283.845 23.8966 285.929 23.0115C287.715 22.2739 289.948 21.8314 292.329 21.8314ZM292.329 51.7759C294.116 51.7759 295.902 51.4809 297.539 50.7433C299.176 50.0058 300.516 49.1207 301.855 47.9406C303.046 46.7605 304.088 45.2854 304.684 43.6628C305.428 42.0402 305.725 40.2701 305.725 38.5C305.725 36.7299 305.428 34.9598 304.684 33.3372C303.939 31.7146 303.046 30.387 301.855 29.0594C300.665 27.8793 299.176 26.8467 297.539 26.2567C295.902 25.5192 294.116 25.2241 292.329 25.2241C290.543 25.2241 288.757 25.5192 287.12 26.2567C285.483 26.9943 284.143 27.8793 282.803 29.0594C281.613 30.2395 280.571 31.7146 279.975 33.3372C279.231 34.9598 278.933 36.7299 278.933 38.5C278.933 40.2701 279.231 42.0402 279.975 43.6628C280.72 45.2854 281.613 46.613 282.803 47.9406C283.994 49.1207 285.483 50.1533 287.12 50.7433C288.757 51.3333 290.394 51.7759 292.329 51.7759Z" fill="#E5E5E5"/>
<path d="M66.8309 35.6973C66.682 34.9598 66.682 34.3697 66.5332 33.6322C66.5332 33.3372 66.3843 33.1897 66.3843 32.8946C66.2355 32.4521 66.2355 32.0096 66.0867 31.5671C65.9378 31.1245 65.789 30.682 65.6401 30.2395C65.4913 29.6494 65.1936 28.9119 64.8959 28.3218C64.7471 27.8793 64.5982 27.4368 64.3005 27.1418C64.0028 26.5517 63.7052 25.9617 63.4075 25.3717C58.6445 16.6686 49.2673 10.9157 38.5505 10.9157C33.9364 10.9157 29.6199 12.0958 25.7499 14.0134C25.1546 14.3084 24.708 14.6035 24.2615 14.8985C24.1127 15.046 23.9638 15.046 23.815 15.1935C23.5173 15.341 23.3684 15.4885 23.0708 15.636C22.7731 15.7835 22.4754 16.0785 22.1777 16.2261C22.0289 16.3736 21.7312 16.5211 21.5823 16.6686C21.4335 16.8161 21.1358 16.9636 20.9869 17.1111C20.6893 17.2586 20.5404 17.4061 20.3916 17.7012C20.2427 17.8487 19.945 17.9962 19.7962 18.2912C19.4985 18.4387 19.3497 18.7337 19.052 18.8812C18.9031 19.0287 18.7543 19.1762 18.6054 19.3238C18.3078 19.6188 18.1589 19.7663 17.8612 20.0613C17.7124 20.2088 17.5635 20.3563 17.4147 20.5038C17.117 20.7989 16.9682 21.0939 16.8193 21.2414C16.6705 21.3889 16.5216 21.5364 16.5216 21.6839C16.3728 21.8314 16.2239 22.1264 16.0751 22.2739C15.9263 22.569 15.7774 22.864 15.4797 23.0115C15.0332 23.6015 14.7355 24.1916 14.4378 24.7816C14.1401 25.2241 13.9913 25.5192 13.8424 25.9617C13.6936 26.4042 13.3959 26.6992 13.2471 27.1418C13.0982 27.5843 12.9494 28.0268 12.6517 28.3218C12.354 28.9119 12.2052 29.6494 11.9075 30.2395C11.7586 30.682 11.6098 31.1245 11.4609 31.5671C11.3121 32.0096 11.3121 32.4521 11.1632 32.8946C11.1632 33.1897 11.0144 33.3372 11.0144 33.6322C10.8656 34.3697 10.8656 34.9598 10.7167 35.6973C10.5679 36.5824 10.5679 37.6149 10.5679 38.5C10.5679 38.795 10.5679 39.2375 10.5679 39.5326C10.5679 39.6801 10.5679 39.6801 10.5679 39.8276C10.5679 40.1226 10.5679 40.4176 10.5679 40.8602V41.0077C10.5679 41.3027 10.5679 41.5977 10.7167 41.8927V42.0402C10.7167 42.3353 10.8656 42.6303 10.8656 42.9253V43.0728C10.8656 43.3678 11.0144 43.6628 11.0144 43.9579V44.1054C11.0144 44.4004 11.1632 44.6954 11.1632 44.9904V45.1379C11.7586 46.023 11.9075 46.613 12.0563 47.2031V47.3506C12.2052 47.9406 12.5028 48.6782 12.8005 49.2682C12.8005 49.2682 12.8005 49.2682 12.8005 49.4157C15.7774 56.6437 21.88 62.249 29.1734 64.9042L29.0245 47.4981L21.2846 42.7778V31.8621C19.945 31.272 18.9031 29.7969 18.9031 28.1743C18.9031 25.9617 20.6893 24.0441 23.0708 24.0441C25.3034 24.0441 27.2384 25.8142 27.2384 28.1743C27.2384 29.6494 26.4942 30.977 25.3034 31.7146V40.5651L33.1921 45.1379L33.341 59.7414C33.341 61.069 34.5317 62.249 35.8713 62.249C37.2109 62.249 38.4017 61.069 38.4017 59.7414V58.4138V56.6437L38.104 24.0441C36.7644 23.3065 36.0202 21.9789 36.0202 20.5038C36.0202 18.2912 37.8063 16.3736 40.1878 16.3736C42.4205 16.3736 44.3554 18.1437 44.3554 20.5038C44.3554 21.9789 43.4624 23.454 42.2716 24.0441L42.4205 66.2318C44.0578 66.0843 45.695 65.6418 47.1835 65.1992L47.0346 48.2356L54.9234 43.5153V34.6648C53.5838 33.9272 52.8395 32.5996 52.8395 31.1245C52.8395 28.9119 54.6257 26.9943 57.0072 26.9943C59.2398 26.9943 61.1748 28.7644 61.1748 31.1245C61.1748 32.5996 60.2817 34.0747 59.091 34.6648V45.728L51.2023 50.4483V63.7241C56.8583 61.069 61.3236 56.4962 64.1517 51.0383C64.3005 50.7433 64.4494 50.4483 64.5982 50.1533C64.7471 49.8582 64.8959 49.5632 65.0448 49.2682C65.1936 48.9732 65.3424 48.6782 65.3424 48.3831V48.2356C65.4913 47.6456 65.789 47.0556 65.9378 46.4655V46.318C66.0867 46.023 66.0867 45.728 66.2355 45.4329C66.3843 45.1379 66.3843 44.8429 66.3843 44.5479V44.4004C66.3843 44.1054 66.5332 43.9579 66.5332 43.6628V43.5153C66.5332 43.2203 66.682 42.9253 66.682 42.6303V42.4828C66.682 42.1877 66.682 42.0402 66.8309 41.7452V41.5977C66.8309 41.3027 66.8309 41.0077 66.9797 40.7126V40.5651C66.9797 40.2701 66.9797 39.9751 66.9797 39.8276C66.9797 39.6801 66.9797 39.6801 66.9797 39.5326C66.9797 39.2375 66.9797 38.9425 66.9797 38.6475C66.9797 37.4674 66.9797 36.5824 66.8309 35.6973Z" fill="url(#paint0_linear)"/>
<path d="M24.7081 26.4042C23.6661 25.5191 22.1777 25.6667 21.2846 26.6992C20.3916 27.7318 20.5404 29.2069 21.5823 30.0919C22.6242 30.977 24.1127 30.8295 25.0057 29.7969C25.8988 28.9119 25.75 27.2893 24.7081 26.4042Z" fill="url(#paint1_linear)"/>
<path d="M41.6763 18.4387C40.6344 17.5536 39.146 17.7011 38.2529 18.7337C37.3598 19.7663 37.5087 21.2414 38.5506 22.1264C39.5925 23.0115 41.0809 22.864 41.974 21.8314C42.8671 20.9464 42.7182 19.3237 41.6763 18.4387Z" fill="url(#paint2_linear)"/>
<path d="M58.7933 32.5996C59.6864 31.5671 59.5376 30.092 58.4957 29.2069C57.4537 28.3219 55.9653 28.4694 55.0722 29.5019C54.1792 30.5345 54.328 32.0096 55.3699 32.8947C56.263 33.7797 57.9003 33.6322 58.7933 32.5996Z" fill="url(#paint3_linear)"/>
<path d="M68.4682 63.4291C74.7197 56.2011 77.6965 47.3506 77.6965 38.5C77.6965 37.4674 77.6965 36.4349 77.5477 35.4023C76.6546 25.5192 72.1893 16.0785 64.0029 9.14559C56.7095 2.95019 47.7789 0 38.8483 0C37.8064 0 36.7645 0 35.7225 0.14751C25.75 0.885057 16.224 5.45785 9.22832 13.5709C2.97688 20.7988 0 29.6494 0 38.5C0 39.5326 0 40.5651 0.148844 41.5977C0.893064 51.4808 5.50723 60.9215 13.6936 67.8544C20.987 74.0498 29.9176 77 38.8483 77C39.8902 77 40.9321 77 42.1228 76.8525C51.9465 76.1149 61.4725 71.5421 68.4682 63.4291L68.1705 63.1341L68.4682 63.4291ZM63.5564 59.2989C57.7514 66.0843 49.7139 69.9195 41.5275 70.5096C33.1922 71.2471 24.7081 68.7395 17.8613 62.9866C11.0145 57.2337 7.14451 49.2682 6.54913 41.1552C5.80491 32.8946 8.33526 24.4866 14.1402 17.7011C19.9451 10.9157 27.9827 7.08046 36.1691 6.49042C44.5043 5.75287 52.9884 8.26054 59.8353 14.0134C66.6821 19.7663 70.552 27.7318 71.1474 35.8448C71.8916 44.1054 69.3613 52.5134 63.5564 59.2989Z" fill="#E5E5E5"/>
</g>
<defs>
<linearGradient id="paint0_linear" x1="38.849" y1="4.29946" x2="38.849" y2="63.4943" gradientUnits="userSpaceOnUse">
<stop stop-color="#E9CF41"/>
<stop offset="0.0292452" stop-color="#E8CE41"/>
<stop offset="1" stop-color="#CC8429"/>
</linearGradient>
<linearGradient id="paint1_linear" x1="23.1019" y1="4.29945" x2="23.1019" y2="63.4943" gradientUnits="userSpaceOnUse">
<stop stop-color="#E9CF41"/>
<stop offset="0.0292452" stop-color="#E8CE41"/>
<stop offset="1" stop-color="#CC8429"/>
</linearGradient>
<linearGradient id="paint2_linear" x1="40.0837" y1="4.29945" x2="40.0837" y2="63.4943" gradientUnits="userSpaceOnUse">
<stop stop-color="#E9CF41"/>
<stop offset="0.0292452" stop-color="#E8CE41"/>
<stop offset="1" stop-color="#CC8429"/>
</linearGradient>
<linearGradient id="paint3_linear" x1="56.8834" y1="4.29945" x2="56.8834" y2="63.4944" gradientUnits="userSpaceOnUse">
<stop stop-color="#E9CF41"/>
<stop offset="0.0292452" stop-color="#E8CE41"/>
<stop offset="1" stop-color="#CC8429"/>
</linearGradient>
<clipPath id="clip0">
<rect width="309" height="77" fill="white"/>
</clipPath>
</defs>
</svg>
