<?xml version="1.0" encoding="UTF-8" standalone="no"?>
<svg
   width="832.73645"
   height="504.82782"
   viewBox="0 0 832.73645 504.82782"
   fill="none"
   version="1.1"
   id="svg63"
   sodipodi:docname="infografia-proceso-modificaod.svg"
   inkscape:version="1.1.2 (0a00cf5339, 2022-02-04)"
   xmlns:inkscape="http://www.inkscape.org/namespaces/inkscape"
   xmlns:sodipodi="http://sodipodi.sourceforge.net/DTD/sodipodi-0.dtd"
   xmlns="http://www.w3.org/2000/svg"
   xmlns:svg="http://www.w3.org/2000/svg">
  <sodipodi:namedview
     id="namedview65"
     pagecolor="#ffffff"
     bordercolor="#666666"
     borderopacity="1.0"
     inkscape:pageshadow="2"
     inkscape:pageopacity="0.0"
     inkscape:pagecheckerboard="0"
     showgrid="false"
     inkscape:zoom="1.1725664"
     inkscape:cx="421.72453"
     inkscape:cy="46.479245"
     inkscape:window-width="1366"
     inkscape:window-height="707"
     inkscape:window-x="0"
     inkscape:window-y="30"
     inkscape:window-maximized="1"
     inkscape:current-layer="svg63">
    <sodipodi:guide
       position="17.670069,480.41748"
       orientation="0,807"
       id="guide16991" />
    <sodipodi:guide
       position="824.67007,480.41748"
       orientation="452,0"
       id="guide16993" />
    <sodipodi:guide
       position="824.67007,28.417478"
       orientation="0,-807"
       id="guide16995" />
    <sodipodi:guide
       position="17.670069,28.417478"
       orientation="-452,0"
       id="guide16997" />
  </sodipodi:namedview>
  <g
     clip-path="url(#clip0)"
     id="g56"
     transform="translate(17.670069,24.410342)">
    <path
       d="m 537.011,196.23 c -0.249,-3.491 -0.747,-6.982 -1.494,-10.223 -0.249,-1.247 -0.499,-2.244 -0.748,-3.491 -0.498,-2.244 -0.996,-4.488 -1.494,-6.732 -0.498,-2.244 -1.245,-4.488 -1.993,-6.483 -0.996,-3.241 -2.241,-6.483 -3.487,-9.475 -0.747,-1.994 -1.743,-4.239 -2.74,-6.233 -1.494,-2.992 -2.989,-5.984 -4.483,-8.976 -23.414,-42.887 -68.996,-71.8101 -121.303,-71.5607 -22.417,0 -43.838,5.7348 -62.52,15.2097 -2.49,1.2467 -4.981,2.7427 -7.472,4.2387 -0.747,0.4987 -1.495,0.9974 -2.242,1.2467 -1.245,0.748 -2.491,1.4961 -3.487,2.2441 -1.494,0.9973 -2.989,1.9947 -4.483,2.992 -0.997,0.7481 -1.993,1.4965 -2.989,2.2445 -0.997,0.748 -1.993,1.496 -2.989,2.244 -0.997,0.997 -2.242,1.745 -3.238,2.742 -0.997,0.998 -1.993,1.746 -2.989,2.743 -1.246,0.997 -2.242,2.244 -3.488,3.242 -0.747,0.748 -1.494,1.496 -2.241,2.244 -1.246,1.246 -2.242,2.493 -3.487,3.74 -0.748,0.748 -1.495,1.745 -2.242,2.493 -0.996,1.247 -2.242,2.743 -3.238,3.989 -0.498,0.748 -1.246,1.497 -1.744,2.245 -0.747,0.997 -1.494,1.994 -2.242,2.992 -0.996,1.246 -1.743,2.493 -2.739,3.74 -1.744,2.742 -3.488,5.485 -5.231,8.477 -0.996,1.995 -2.242,3.99 -3.238,5.984 -0.997,1.995 -1.993,3.99 -2.989,5.984 -0.997,1.995 -1.744,3.99 -2.491,6.234 -1.245,3.241 -2.242,6.233 -3.238,9.475 -0.747,2.244 -1.245,4.239 -1.744,6.483 -0.498,2.244 -0.996,4.488 -1.494,6.732 -0.249,0.997 -0.498,2.244 -0.747,3.491 -0.499,3.49 -0.997,6.732 -1.495,10.222 -0.498,4.738 -0.747,9.226 -0.747,13.963 0,1.746 0,3.242 0,4.987 0,0.25 0,0.748 0,0.998 0,1.496 0.249,3.241 0.249,4.737 0,0.249 0,0.499 0,0.499 0.249,1.496 0.249,2.992 0.498,4.488 0,0.249 0,0.748 0,0.997 0.249,1.496 0.498,3.242 0.747,4.738 0,0.249 0,0.498 0.249,0.748 0.25,1.496 0.499,2.992 0.748,4.238 0,0.25 0,0.499 0,0.499 0.249,1.496 0.747,3.241 0.996,4.737 0,0.25 0.249,0.499 0.249,0.748 0.747,3.242 1.744,6.234 2.74,9.475 0,0.25 0.249,0.499 0.249,0.748 0.996,3.242 2.242,6.234 3.487,9.226 0,0.249 0,0.249 0.249,0.499 14.945,35.406 44.088,63.332 80.205,76.297 l -0.499,-86.022 -38.856,-22.939 -0.249,-53.857 c -6.726,-3.241 -11.209,-10.223 -11.458,-17.952 0,-11.221 8.967,-20.197 20.176,-20.197 11.208,0 20.175,8.976 20.175,20.197 0,7.23 -3.736,13.713 -9.465,17.204 l 0.249,43.634 38.857,22.939 0.996,72.059 c 0,6.733 5.48,12.218 12.454,12.218 6.725,0 12.205,-5.485 12.205,-12.467 v -6.732 -8.727 l -1.494,-160.824 c -6.227,-3.49 -10.462,-9.973 -10.462,-17.703 0,-11.22 8.967,-20.1961 20.176,-20.1961 11.209,0 20.176,8.9761 20.176,20.1961 0,7.73 -4.235,14.213 -10.462,17.703 l 0.996,208.697 c 8.22,-0.997 15.942,-2.743 23.663,-4.987 l -0.249,-84.027 38.608,-23.188 -0.249,-43.635 c -6.227,-3.49 -10.462,-9.973 -10.462,-17.703 0,-11.22 8.967,-20.196 20.176,-20.196 11.209,0 20.176,8.976 20.176,20.196 0,7.73 -4.235,14.213 -10.462,17.703 l 0.249,54.855 -38.607,23.188 0.249,65.327 c 27.399,-13.215 49.567,-35.406 63.266,-62.584 0.748,-1.247 1.246,-2.743 1.993,-4.239 v -0.249 c 0.747,-1.496 1.245,-2.992 1.993,-4.239 0.498,-1.246 0.996,-2.742 1.743,-4.238 0,-0.25 0.249,-0.499 0.249,-0.499 0.997,-2.743 1.993,-5.735 2.74,-8.478 0,-0.249 0.249,-0.498 0.249,-0.748 0.499,-1.496 0.748,-2.742 1.246,-4.238 0,0 0,0 0,-0.25 0.249,-1.496 0.747,-2.992 0.996,-4.488 0,-0.249 0.249,-0.748 0.249,-0.997 0.249,-1.247 0.498,-2.494 0.747,-3.74 0,-0.25 0,-0.499 0.249,-0.748 0.25,-1.496 0.499,-2.992 0.748,-4.488 0,-0.25 0,-0.499 0.249,-0.998 0.249,-1.247 0.249,-2.493 0.498,-3.74 0,-0.249 0,-0.748 0,-0.997 0.249,-1.496 0.249,-2.992 0.498,-4.488 0,-0.25 0,-0.499 0,-0.748 0,-1.247 0.249,-2.494 0.249,-3.99 0,-0.498 0,-0.748 0,-1.247 0,-1.496 0,-2.992 0,-4.488 0.498,-3.74 0.249,-8.477 -0.249,-12.965 z"
       fill="#e5e5e5"
       id="path2" />
    <path
       d="m 331.021,150.85 c -4.982,-4.239 -12.704,-3.74 -16.938,1.496 -4.234,4.987 -3.736,12.716 1.494,16.955 4.982,4.239 12.704,3.74 16.938,-1.496 4.234,-5.236 3.487,-12.716 -1.494,-16.955 z"
       fill="#e5e5e5"
       id="path4" />
    <path
       d="m 414.214,111.454 c -4.982,-4.238 -12.703,-3.74 -16.938,1.496 -4.234,4.987 -3.736,12.717 1.495,16.955 4.981,4.239 12.703,3.74 16.937,-1.496 3.986,-5.236 3.487,-12.716 -1.494,-16.955 z"
       fill="#e5e5e5"
       id="path6" />
    <path
       d="m 497.656,181.27 c 4.235,-4.987 3.736,-12.717 -1.494,-16.955 -4.982,-4.239 -12.703,-3.74 -16.938,1.496 -4.234,4.986 -3.736,12.716 1.495,16.955 5.23,4.238 12.703,3.74 16.937,-1.496 z"
       fill="#e5e5e5"
       id="path8" />
    <path
       d="M 586.827,210.691 H 580.6 c 0,44.134 -15.692,84.526 -42.094,115.694 -26.154,31.416 -62.769,53.608 -104.615,61.587 -10.959,1.994 -22.168,3.241 -33.626,3.241 -43.589,0 -83.442,-15.459 -114.577,-41.141 -40.102,-33.162 -65.509,-83.279 -65.509,-139.381 0,-49.867 20.176,-94.998 52.805,-127.6611 32.63,-32.6634 77.714,-52.8598 127.53,-52.8598 49.817,0 94.9,20.1964 127.53,52.8598 32.63,32.6631 52.805,77.7941 52.805,127.6611 h 5.978 6.228 c 0,-106.467 -86.183,-192.9879 -192.79,-192.9879 -106.358,0 -192.54,86.5209 -192.54,192.9879 0,59.842 27.399,113.45 70.241,148.856 33.377,27.427 75.97,43.884 122.548,43.884 12.205,0 24.161,-1.247 35.868,-3.242 44.586,-8.477 83.941,-32.165 111.838,-65.825 28.146,-33.412 44.835,-76.797 44.835,-123.673 z"
       fill="#54545b"
       id="path10" />
    <path
       d="M 415.21,390.964 H 285.937 v 12.467 H 415.21"
       fill="#54545b"
       id="path12" />
    <path
       d="m 433.891,387.972 c -10.959,1.994 -22.168,3.241 -33.626,3.241 -43.589,0 -83.442,-15.459 -114.577,-41.141 -40.102,-33.162 -65.509,-83.279 -65.509,-139.381 0,-49.867 20.176,-94.998 52.806,-127.6611 32.629,-32.6634 77.713,-52.8598 127.529,-52.8598 v -12.467 c -106.607,0 -192.789,86.5209 -192.789,192.9879 0,59.842 27.399,113.45 70.241,148.856 33.377,27.427 75.97,43.884 122.548,43.884 12.205,0 24.161,-1.247 35.868,-3.242 z"
       fill="#e5e5e5"
       id="path14" />
    <path
       d="M 285.937,390.964 H 16.4304 v 12.467 H 285.937"
       fill="#e5e5e5"
       id="path16" />
    <path
       d="M 791.324,390.964 H 430.653 v 12.467 h 360.671"
       fill="#e5e5e5"
       id="path18" />
    <path
       d="m 131.008,413.903 c 8.529,0 15.443,-6.921 15.443,-15.459 0,-8.538 -6.914,-15.459 -15.443,-15.459 -8.529,0 -15.443,6.921 -15.443,15.459 0,8.538 6.914,15.459 15.443,15.459 z"
       fill="#ecaf23"
       id="path20" />
    <path
       d="m 16.4304,413.903 c 8.5289,0 15.443,-6.921 15.443,-15.459 0,-8.538 -6.9141,-15.459 -15.443,-15.459 -8.529,0 -15.443095,6.921 -15.443095,15.459 0,8.538 6.914095,15.459 15.443095,15.459 z"
       fill="#ecaf23"
       id="path22" />
    <path
       d="m 285.937,413.903 c 8.529,0 15.443,-6.921 15.443,-15.459 0,-8.538 -6.914,-15.459 -15.443,-15.459 -8.529,0 -15.443,6.921 -15.443,15.459 0,8.538 6.914,15.459 15.443,15.459 z"
       fill="#ecaf23"
       id="path24" />
    <path
       d="m 213.952,244.851 c 8.529,0 15.443,-6.921 15.443,-15.459 0,-8.538 -6.914,-15.459 -15.443,-15.459 -8.529,0 -15.443,6.921 -15.443,15.459 0,8.538 6.914,15.459 15.443,15.459 z"
       fill="#ecaf23"
       id="path26" />
    <path
       d="m 547.722,111.953 c 8.529,0 15.443,-6.921 15.443,-15.4588 0,-8.5378 -6.914,-15.459 -15.443,-15.459 -8.529,0 -15.443,6.9212 -15.443,15.459 0,8.5378 6.914,15.4588 15.443,15.4588 z"
       fill="#ecaf23"
       id="path28" />
    <path
       d="m 282.45,81.0352 c 8.529,0 15.443,-6.9212 15.443,-15.459 0,-8.5378 -6.914,-15.459 -15.443,-15.459 -8.529,0 -15.443,6.9212 -15.443,15.459 0,8.5378 6.914,15.459 15.443,15.459 z"
       fill="#ecaf23"
       id="path30" />
    <path
       d="m 578.608,275.52 c 8.529,0 15.443,-6.922 15.443,-15.459 0,-8.538 -6.914,-15.459 -15.443,-15.459 -8.529,0 -15.443,6.921 -15.443,15.459 0,8.537 6.914,15.459 15.443,15.459 z"
       fill="#ecaf23"
       id="path32" />
    <path
       d="m 430.653,410.163 c 8.529,0 15.443,-6.922 15.443,-15.459 0,-8.538 -6.914,-15.459 -15.443,-15.459 -8.529,0 -15.443,6.921 -15.443,15.459 0,8.537 6.914,15.459 15.443,15.459 z"
       fill="#ecaf23"
       id="path34" />
    <path
       d="m 791.324,412.656 c 8.529,0 15.443,-6.921 15.443,-15.459 0,-8.538 -6.914,-15.459 -15.443,-15.459 -8.529,0 -15.443,6.921 -15.443,15.459 0,8.538 6.914,15.459 15.443,15.459 z"
       fill="#ecaf23"
       id="path36" />
    <path
       d="m 24.1519,448.062 h -2.4908 c -0.9963,0 -1.9926,0.748 -1.9926,1.995 0,0.997 0.7472,1.994 1.9926,1.994 h 2.4908 c 0.9964,0 1.9927,-0.748 1.9927,-1.994 -0.2491,-0.998 -0.9963,-1.995 -1.9927,-1.995 z m 21.9192,0 H 35.1115 c -0.9963,0 -1.9926,0.748 -1.9926,1.995 0,0.997 0.7472,1.994 1.9926,1.994 h 10.9596 c 0.9963,0 1.9927,-0.748 1.9927,-1.994 -0.2491,-0.998 -0.9964,-1.995 -1.9927,-1.995 z m 21.9192,0 H 57.0307 c -0.9963,0 -1.9926,0.748 -1.9926,1.995 0,0.997 0.7472,1.994 1.9926,1.994 h 10.9596 c 0.9963,0 1.9927,-0.748 1.9927,-1.994 0,-0.998 -0.9964,-1.995 -1.9927,-1.995 z m 21.9192,0 H 78.9499 c -0.9963,0 -1.9926,0.748 -1.9926,1.995 0,0.997 0.7472,1.994 1.9926,1.994 h 10.9596 c 0.9963,0 1.9927,-0.748 1.9927,-1.994 0,-0.998 -0.7473,-1.995 -1.9927,-1.995 z m 22.1685,0 h -10.96 c -0.996,0 -1.9925,0.748 -1.9925,1.995 0,0.997 0.7473,1.994 1.9925,1.994 h 10.96 c 0.996,0 1.992,-0.748 1.992,-1.994 -0.249,-0.998 -0.996,-1.995 -1.992,-1.995 z m 13.45,-4.488 v 4.488 h -2.491 c -0.996,0 -1.992,0.748 -1.992,1.995 0,0.997 0.747,1.994 1.992,1.994 h 4.484 c 0.498,0 0.996,-0.249 1.245,-0.498 0.249,-0.25 0.498,-0.748 0.498,-1.247 v -6.483 c 0,-0.997 -0.747,-1.745 -1.743,-1.745 -0.996,-0.499 -1.993,0.498 -1.993,1.496 z m 0,-21.942 v 10.971 c 0,0.997 0.747,1.995 1.993,1.995 0.996,0 1.992,-0.748 1.992,-1.995 v -10.971 c 0,-0.997 -0.747,-1.995 -1.992,-1.995 -0.996,0 -1.993,0.998 -1.993,1.995 z"
       fill="#ecaf23"
       id="path38" />
    <path
       d="m 180.077,448.062 h -2.491 c -0.996,0 -1.992,0.748 -1.992,1.995 0,0.997 0.747,1.994 1.992,1.994 h 2.491 c 0.996,0 1.993,-0.748 1.993,-1.994 0,-0.998 -0.997,-1.995 -1.993,-1.995 z m 21.919,0 h -10.959 c -0.997,0 -1.993,0.748 -1.993,1.995 0,0.997 0.747,1.994 1.993,1.994 h 10.959 c 0.996,0 1.993,-0.748 1.993,-1.994 0,-0.998 -0.997,-1.995 -1.993,-1.995 z m 22.168,0 h -10.959 c -0.996,0 -1.993,0.748 -1.993,1.995 0,0.997 0.747,1.994 1.993,1.994 h 10.959 c 0.997,0 1.993,-0.748 1.993,-1.994 -0.249,-0.998 -0.996,-1.995 -1.993,-1.995 z m 21.92,0 h -10.96 c -0.996,0 -1.993,0.748 -1.993,1.995 0,0.997 0.748,1.994 1.993,1.994 h 10.96 c 0.996,0 1.992,-0.748 1.992,-1.994 -0.249,-0.998 -0.996,-1.995 -1.992,-1.995 z m 21.919,0 h -10.96 c -0.996,0 -1.992,0.748 -1.992,1.995 0,0.997 0.747,1.994 1.992,1.994 h 10.96 c 0.996,0 1.993,-0.748 1.993,-1.994 0,-0.998 -0.997,-1.995 -1.993,-1.995 z m 13.699,-4.488 v 4.488 h -2.74 c -0.996,0 -1.992,0.748 -1.992,1.995 0,0.997 0.747,1.994 1.992,1.994 h 4.484 c 0.498,0 0.996,-0.249 1.245,-0.498 0.249,-0.25 0.498,-0.748 0.498,-1.247 v -6.483 c 0,-0.997 -0.747,-1.745 -1.743,-1.745 -0.996,-0.499 -1.744,0.498 -1.744,1.496 z m 0,-21.942 v 10.971 c 0,0.997 0.748,1.995 1.993,1.995 0.996,0 1.993,-0.748 1.993,-1.995 v -10.971 c 0,-0.997 -0.748,-1.995 -1.993,-1.995 -1.245,0 -1.993,0.998 -1.993,1.995 z"
       fill="#ecaf23"
       id="path40" />
    <path
       d="m 534.022,451.304 h 2.491 c 0.996,0 1.993,-0.748 1.993,-1.995 0,-0.998 -0.748,-1.995 -1.993,-1.995 h -2.491 c -0.996,0 -1.992,0.748 -1.992,1.995 0.249,0.997 0.996,1.995 1.992,1.995 z m -21.919,0 h 10.96 c 0.996,0 1.992,-0.748 1.992,-1.995 0,-0.998 -0.747,-1.995 -1.992,-1.995 h -10.96 c -0.996,0 -1.993,0.748 -1.993,1.995 0,0.997 0.997,1.995 1.993,1.995 z m -21.919,0 h 10.959 c 0.997,0 1.993,-0.748 1.993,-1.995 0,-0.998 -0.747,-1.995 -1.993,-1.995 h -10.959 c -0.997,0 -1.993,0.748 -1.993,1.995 0,0.997 0.996,1.995 1.993,1.995 z m -22.168,0 h 10.959 c 0.996,0 1.993,-0.748 1.993,-1.995 0,-0.998 -0.747,-1.995 -1.993,-1.995 h -10.959 c -0.997,0 -1.993,0.748 -1.993,1.995 0.249,0.997 0.996,1.995 1.993,1.995 z m -21.92,0 h 10.96 c 0.996,0 1.993,-0.748 1.993,-1.995 0,-0.998 -0.748,-1.995 -1.993,-1.995 h -10.96 c -0.996,0 -1.992,0.748 -1.992,1.995 0.249,0.997 0.996,1.995 1.992,1.995 z m -17.435,-8.478 v 6.483 c 0,0.498 0.249,0.997 0.498,1.247 0.249,0.249 0.747,0.498 1.245,0.498 h 4.484 c 0.996,0 1.743,-0.748 1.743,-1.745 0,-0.998 -0.747,-1.746 -1.743,-1.746 h -2.74 v -4.488 c 0,-0.997 -0.747,-1.745 -1.744,-1.745 -0.747,-0.249 -1.743,0.499 -1.743,1.496 z m 0,-21.942 v 10.971 c 0,0.997 0.747,1.995 1.992,1.995 0.997,0 1.993,-0.748 1.993,-1.995 v -10.971 c 0,-0.997 -0.747,-1.995 -1.993,-1.995 -0.996,0.25 -1.992,0.998 -1.992,1.995 z"
       fill="#ecaf23"
       id="path42" />
    <path
       d="m 793.067,437.839 v -10.971 c 0,-0.997 -0.747,-1.994 -1.993,-1.994 -0.996,0 -1.992,0.748 -1.992,1.994 v 10.971 c 0,0.998 0.747,1.995 1.992,1.995 1.246,0 1.993,-0.997 1.993,-1.995 z m -19.677,5.984 h 10.959 c 0.997,0 1.993,-0.748 1.993,-1.994 0,-0.998 -0.747,-1.995 -1.993,-1.995 H 773.39 c -0.997,0 -1.993,0.748 -1.993,1.995 0,1.246 0.996,1.994 1.993,1.994 z m -21.92,0 h 10.96 c 0.996,0 1.993,-0.748 1.993,-1.994 0,-0.998 -0.748,-1.995 -1.993,-1.995 h -10.96 c -0.996,0 -1.992,0.748 -1.992,1.995 0,1.246 0.747,1.994 1.992,1.994 z m -22.168,0 h 10.96 c 0.996,0 1.992,-0.748 1.992,-1.994 0,-0.998 -0.747,-1.995 -1.992,-1.995 h -10.96 c -0.996,0 -1.992,0.748 -1.992,1.995 0.249,1.246 0.996,1.994 1.992,1.994 z m -21.919,0 h 10.96 c 0.996,0 1.992,-0.748 1.992,-1.994 0,-0.998 -0.747,-1.995 -1.992,-1.995 h -10.96 c -0.996,0 -1.993,0.748 -1.993,1.995 0.249,1.246 0.997,1.994 1.993,1.994 z m -21.919,0 h 10.959 c 0.997,0 1.993,-0.748 1.993,-1.994 0,-0.998 -0.747,-1.995 -1.993,-1.995 h -10.959 c -0.997,0 -1.993,0.748 -1.993,1.995 0,1.246 0.996,1.994 1.993,1.994 z"
       fill="#ecaf23"
       id="path44" />
    <path
       d="m 14.4377,359.547 v 10.971 c 0,0.997 0.7473,1.994 1.9927,1.994 0.9963,0 1.9927,-0.748 1.9927,-1.994 v -10.971 c 0,-0.998 -0.7473,-1.995 -1.9927,-1.995 -0.9963,0 -1.9927,0.748 -1.9927,1.995 z m 19.9266,-5.985 H 23.4047 c -0.9963,0 -1.9927,0.749 -1.9927,1.995 0,0.998 0.7473,1.995 1.9927,1.995 h 10.9596 c 0.9963,0 1.9926,-0.748 1.9926,-1.995 -0.249,-1.246 -0.9963,-1.995 -1.9926,-1.995 z m 21.9192,0 H 45.3239 c -0.9964,0 -1.9927,0.749 -1.9927,1.995 0,0.998 0.7473,1.995 1.9927,1.995 h 10.9596 c 0.9963,0 1.9926,-0.748 1.9926,-1.995 -0.2491,-1.246 -0.9963,-1.995 -1.9926,-1.995 z m 21.9192,0 H 67.2431 c -0.9964,0 -1.9927,0.749 -1.9927,1.995 0,0.998 0.7473,1.995 1.9927,1.995 h 10.9596 c 0.9963,0 1.9926,-0.748 1.9926,-1.995 0,-1.246 -0.9963,-1.995 -1.9926,-1.995 z m 21.9193,0 H 89.1623 c -0.9964,0 -1.9927,0.749 -1.9927,1.995 0,0.998 0.7473,1.995 1.9927,1.995 h 10.9597 c 0.996,0 1.992,-0.748 1.992,-1.995 0,-1.246 -0.747,-1.995 -1.992,-1.995 z m 22.168,0 h -10.959 c -0.997,0 -1.993,0.749 -1.993,1.995 0,0.998 0.747,1.995 1.993,1.995 h 10.959 c 0.996,0 1.993,-0.748 1.993,-1.995 -0.249,-1.246 -0.997,-1.995 -1.993,-1.995 z"
       fill="#ecaf23"
       id="path46" />
    <path
       d="m 182.568,210.193 8.22,7.23 c 0.747,0.748 1.992,0.748 2.74,-0.249 0.747,-0.997 0.747,-1.995 -0.25,-2.743 l -8.219,-7.23 c -0.748,-0.749 -1.993,-0.749 -2.74,0.249 -0.747,0.997 -0.498,1.995 0.249,2.743 z m -16.439,-14.711 8.219,7.23 c 0.747,0.748 1.993,0.748 2.74,-0.249 0.747,-0.748 0.747,-1.995 -0.249,-2.743 l -8.22,-7.23 c -0.747,-0.499 -1.992,-0.499 -2.49,0.249 -0.748,0.748 -0.748,1.995 0,2.743 z m -16.44,-14.711 8.22,7.23 c 0.747,0.748 1.992,0.748 2.74,-0.249 0.747,-0.748 0.747,-1.995 -0.249,-2.743 l -8.22,-7.23 c -0.747,-0.748 -1.993,-0.749 -2.74,0.249 -0.498,0.748 -0.498,1.995 0.249,2.743 z m -20.176,-0.499 h 10.96 c 0.996,0 1.993,-0.748 1.993,-1.995 0,-0.997 -0.748,-1.995 -1.993,-1.995 h -10.96 c -0.996,0 -1.992,0.748 -1.992,1.995 0,0.998 0.996,1.995 1.992,1.995 z m -21.919,0 h 10.96 c 0.996,0 1.993,-0.748 1.993,-1.995 0,-0.997 -0.748,-1.995 -1.993,-1.995 h -10.96 c -0.996,0 -1.992,0.748 -1.992,1.995 0,0.998 0.747,1.995 1.992,1.995 z m -22.168,0 h 10.9596 c 0.9963,0 1.9927,-0.748 1.9927,-1.995 0,-0.997 -0.7473,-1.995 -1.9927,-1.995 H 85.426 c -0.9963,0 -1.9926,0.748 -1.9926,1.995 0.249,0.998 0.9963,1.995 1.9926,1.995 z m -21.9192,0 h 10.9596 c 0.9963,0 1.9927,-0.748 1.9927,-1.995 0,-0.997 -0.7473,-1.995 -1.9927,-1.995 H 63.5068 c -0.9963,0 -1.9926,0.748 -1.9926,1.995 0.249,0.998 0.9963,1.995 1.9926,1.995 z m -21.9192,0 h 10.9596 c 0.9964,0 1.9927,-0.748 1.9927,-1.995 0,-0.997 -0.7473,-1.995 -1.9927,-1.995 H 41.5876 c -0.9963,0 -1.9926,0.748 -1.9926,1.995 0,0.998 0.9963,1.995 1.9926,1.995 z m -21.9192,0 H 30.628 c 0.9964,0 1.9927,-0.748 1.9927,-1.995 0,-0.997 -0.7473,-1.995 -1.9927,-1.995 H 19.6684 c -0.9963,0 -1.9926,0.748 -1.9926,1.995 0,0.998 0.7472,1.995 1.9926,1.995 z"
       fill="#ecaf23"
       id="path48" />
    <path
       d="m 250.318,33.6606 8.22,7.2308 c 0.747,0.748 1.993,0.748 2.74,-0.2493 0.747,-0.748 0.747,-1.9947 -0.249,-2.7427 l -8.22,-7.2309 c -0.747,-0.748 -1.993,-0.748 -2.74,0.2494 -0.747,0.9973 -0.498,1.9947 0.249,2.7427 z m -16.439,-14.711 8.219,7.2308 c 0.748,0.748 1.993,0.748 2.74,-0.2493 0.748,-0.748 0.748,-1.9947 -0.249,-2.7427 l -8.219,-7.2309 c -0.748,-0.748 -1.993,-0.748 -2.74,0.2494 -0.498,0.9973 -0.498,1.9947 0.249,2.7427 z m -16.44,-14.71101 8.22,7.23081 c 0.747,0.748 1.993,0.748 2.74,-0.2493 0.747,-0.748 0.747,-1.99473 -0.249,-2.74275 l -8.22,-7.23083 c -0.747,-0.748015 -1.992,-0.748015 -2.74,0.24934 -0.498,0.99736 -0.498,1.99471 0.249,2.74273 z M 197.264,3.73991 h 10.959 c 0.997,0 1.993,-0.74801 1.993,-1.99471 0,-0.997356 -0.747,-1.994712 -1.993,-1.994712 h -10.959 c -0.997,0.249339266 -1.993,0.997356 -1.993,2.244052 0,0.99736 0.996,1.74537 1.993,1.74537 z m -22.168,0 h 10.959 c 0.996,0 1.993,-0.74801 1.993,-1.99471 0,-0.997356 -0.747,-1.994712 -1.993,-1.994712 h -10.959 c -0.997,0 -1.993,0.748017 -1.993,1.994712 0.249,1.2467 0.996,1.99471 1.993,1.99471 z m -21.92,0 h 10.96 c 0.996,0 1.993,-0.74801 1.993,-1.99471 0,-0.997356 -0.748,-1.994712 -1.993,-1.994712 h -10.96 c -0.996,0 -1.992,0.748017 -1.992,1.994712 0.249,1.2467 0.996,1.99471 1.992,1.99471 z m -21.919,0 h 10.96 c 0.996,0 1.992,-0.74801 1.992,-1.99471 0,-0.997356 -0.747,-1.994712 -1.992,-1.994712 h -10.96 c -0.996,0 -1.993,0.748017 -1.993,1.994712 0,1.2467 0.997,1.99471 1.993,1.99471 z m -21.919,0 h 10.96 c 0.996,0 1.992,-0.74801 1.992,-1.99471 0,-0.997356 -0.747,-1.994712 -1.992,-1.994712 h -10.96 c -0.996,0 -1.993,0.748017 -1.993,1.994712 0,1.2467 0.997,1.99471 1.993,1.99471 z m -22.1683,0 h 10.9596 c 0.9963,0 1.9927,-0.74801 1.9927,-1.99471 0,-0.997356 -0.7473,-1.994712 -1.9927,-1.994712 H 87.1697 c -0.9964,0 -1.9927,0.748017 -1.9927,1.994712 0.2491,1.2467 0.9963,1.99471 1.9927,1.99471 z"
       fill="#ecaf23"
       id="path50" />
    <path
       d="m 577.363,65.8255 -8.22,7.2308 c -0.747,0.748 -0.747,1.9947 -0.249,2.7427 0.498,0.7481 1.992,0.7481 2.74,0.2494 l 8.219,-7.2308 c 0.748,-0.7481 0.748,-1.9948 0.249,-2.7428 -0.498,-0.748 -1.992,-0.9973 -2.739,-0.2493 z m 16.439,-14.711 -8.22,7.2308 c -0.747,0.748 -0.747,1.9947 -0.249,2.7428 0.498,0.748 1.993,0.748 2.74,0.2493 l 8.22,-7.2308 c 0.747,-0.748 0.747,-1.9947 0.249,-2.7428 -0.498,-0.748 -1.993,-0.9973 -2.74,-0.2493 z m 16.439,-14.711 -8.219,7.2308 c -0.748,0.748 -0.748,1.9947 -0.249,2.7428 0.498,0.748 1.992,0.748 2.74,0.2493 l 8.219,-7.2308 c 0.747,-0.748 0.747,-1.9947 0.249,-2.7428 -0.498,-0.748 -1.992,-0.9973 -2.74,-0.2493 z m 22.667,-1.496 h -10.96 c -0.996,0 -1.992,0.748 -1.992,1.9947 0,0.9973 0.747,1.9947 1.992,1.9947 h 10.96 c 0.996,0 1.992,-0.748 1.992,-1.9947 0,-1.2467 -0.996,-1.9947 -1.992,-1.9947 z m 21.919,0 h -10.96 c -0.996,0 -1.992,0.748 -1.992,1.9947 0,0.9973 0.747,1.9947 1.992,1.9947 h 10.96 c 0.996,0 1.993,-0.748 1.993,-1.9947 0,-1.2467 -0.748,-1.9947 -1.993,-1.9947 z m 22.168,0 h -10.959 c -0.997,0 -1.993,0.748 -1.993,1.9947 0,0.9973 0.747,1.9947 1.993,1.9947 h 10.959 c 0.997,0 1.993,-0.748 1.993,-1.9947 -0.249,-1.2467 -0.996,-1.9947 -1.993,-1.9947 z m 21.919,0 h -10.959 c -0.996,0 -1.993,0.748 -1.993,1.9947 0,0.9973 0.747,1.9947 1.993,1.9947 h 10.959 c 0.997,0 1.993,-0.748 1.993,-1.9947 -0.249,-1.2467 -0.996,-1.9947 -1.993,-1.9947 z m 21.92,0 h -10.96 c -0.996,0 -1.993,0.748 -1.993,1.9947 0,0.9973 0.748,1.9947 1.993,1.9947 h 10.96 c 0.996,0 1.992,-0.748 1.992,-1.9947 0,-1.2467 -0.996,-1.9947 -1.992,-1.9947 z m 21.919,0 h -10.96 c -0.996,0 -1.992,0.748 -1.992,1.9947 0,0.9973 0.747,1.9947 1.992,1.9947 h 10.96 c 0.996,0 1.992,-0.748 1.992,-1.9947 0,-1.2467 -0.747,-1.9947 -1.992,-1.9947 z"
       fill="#ecaf23"
       id="path52" />
    <path
       d="m 613.23,236.124 -8.219,7.231 c -0.748,0.748 -0.748,1.994 -0.25,2.742 0.499,0.748 1.993,0.748 2.74,0.25 l 8.22,-7.231 c 0.747,-0.748 0.747,-1.995 0.249,-2.743 -0.498,-0.748 -1.992,-0.748 -2.74,-0.249 z m 16.44,-14.711 -8.22,7.231 c -0.747,0.748 -0.747,1.994 -0.249,2.742 0.498,0.748 1.993,0.748 2.74,0.25 l 8.219,-7.231 c 0.748,-0.748 0.748,-1.995 0.25,-2.743 -0.499,-0.748 -1.993,-0.748 -2.74,-0.249 z m 16.19,-14.462 -8.22,7.231 c -0.747,0.748 -0.747,1.995 -0.249,2.743 0.498,0.748 1.993,0.748 2.74,0.249 l 8.22,-7.231 c 0.747,-0.748 0.747,-1.995 0.249,-2.743 -0.498,-0.748 -1.993,-0.997 -2.74,-0.249 z m 22.915,-1.496 h -10.959 c -0.996,0 -1.993,0.748 -1.993,1.995 0,0.997 0.748,1.994 1.993,1.994 h 10.959 c 0.997,0 1.993,-0.748 1.993,-1.994 -0.249,-1.247 -0.996,-1.995 -1.993,-1.995 z m 21.92,0 h -10.96 c -0.996,0 -1.993,0.748 -1.993,1.995 0,0.997 0.748,1.994 1.993,1.994 h 10.96 c 0.996,0 1.992,-0.748 1.992,-1.994 0,-1.247 -0.996,-1.995 -1.992,-1.995 z m 21.919,0 h -10.96 c -0.996,0 -1.992,0.748 -1.992,1.995 0,0.997 0.747,1.994 1.992,1.994 h 10.96 c 0.996,0 1.992,-0.748 1.992,-1.994 0,-1.247 -0.747,-1.995 -1.992,-1.995 z m 22.168,0 h -10.959 c -0.997,0 -1.993,0.748 -1.993,1.995 0,0.997 0.747,1.994 1.993,1.994 h 10.959 c 0.996,0 1.993,-0.748 1.993,-1.994 -0.249,-1.247 -0.997,-1.995 -1.993,-1.995 z m 21.919,0 h -10.959 c -0.997,0 -1.993,0.748 -1.993,1.995 0,0.997 0.747,1.994 1.993,1.994 h 10.959 c 0.997,0 1.993,-0.748 1.993,-1.994 -0.249,-1.247 -0.996,-1.995 -1.993,-1.995 z m 21.919,0 h -10.959 c -0.997,0 -1.993,0.748 -1.993,1.995 0,0.997 0.747,1.994 1.993,1.994 h 10.959 c 0.997,0 1.993,-0.748 1.993,-1.994 0,-1.247 -0.996,-1.995 -1.993,-1.995 z"
       fill="#ecaf23"
       id="path54" />
  </g>
  <defs
     id="defs61">
    <clipPath
       id="clip0">
      <rect
         width="805.53003"
         height="451.802"
         fill="#ffffff"
         transform="translate(0.987305)"
         id="rect58"
         x="0"
         y="0" />
    </clipPath>
  </defs>
  <text
     xml:space="preserve"
     style="font-style:normal;font-weight:normal;font-size:24px;line-height:1.15;font-family:sans-serif;fill:#000000;fill-opacity:1;stroke:none"
     x="89.623558"
     y="17.496094"
     id="text4998"><tspan
       sodipodi:role="line"
       id="tspan4996"
       x="89.623558"
       y="17.496094"
       style="font-size:24px">Lorem Ipsum</tspan></text>
  <text
     xml:space="preserve"
     style="font-style:normal;font-weight:normal;font-size:24px;line-height:1.15;font-family:sans-serif;fill:#000000;fill-opacity:1;stroke:none"
     x="17.496696"
     y="195.03036"
     id="text4998-7"><tspan
       sodipodi:role="line"
       id="tspan4996-5"
       x="17.496696"
       y="195.03036"
       style="font-size:24px">Lorem Ipsum</tspan></text>
  <text
     xml:space="preserve"
     style="font-style:normal;font-weight:normal;font-size:24px;line-height:1.15;font-family:sans-serif;fill:#000000;fill-opacity:1;stroke:none"
     x="659.07568"
     y="224.15315"
     id="text4998-7-3"><tspan
       sodipodi:role="line"
       id="tspan4996-5-5"
       x="659.07568"
       y="224.15315"
       style="font-size:24px">Lorem Ipsum</tspan></text>
  <text
     xml:space="preserve"
     style="font-style:normal;font-weight:normal;font-size:24px;line-height:1.15;font-family:sans-serif;fill:#000000;fill-opacity:1;stroke:none"
     x="678.62317"
     y="497.62906"
     id="text4998-7-3-9"><tspan
       sodipodi:role="line"
       id="tspan4996-5-5-1"
       x="678.62317"
       y="497.62906"
       style="font-size:24px">Lorem Ipsum</tspan></text>
  <text
     xml:space="preserve"
     style="font-style:normal;font-weight:normal;font-size:24px;line-height:1.15;font-family:sans-serif;fill:#000000;fill-opacity:1;stroke:none"
     x="-2.3554688"
     y="498.966"
     id="text4998-7-3-9-3"><tspan
       sodipodi:role="line"
       id="tspan4996-5-5-1-6"
       x="-2.3554688"
       y="498.966"
       style="font-size:24px">Lorem Ipsum</tspan></text>
  <text
     xml:space="preserve"
     style="font-style:normal;font-weight:normal;font-size:24px;line-height:1.15;font-family:sans-serif;fill:#000000;fill-opacity:1;stroke:none"
     x="21.013687"
     y="370.87076"
     id="text4998-7-3-9-3-0"><tspan
       sodipodi:role="line"
       id="tspan4996-5-5-1-6-6"
       x="21.013687"
       y="370.87076"
       style="font-size:24px">Lorem Ipsum</tspan></text>
  <text
     xml:space="preserve"
     style="font-style:normal;font-weight:normal;font-size:24px;line-height:1.15;font-family:sans-serif;fill:#000000;fill-opacity:1;stroke:none"
     x="429.18823"
     y="498.14081"
     id="text4998-7-3-9-2"><tspan
       sodipodi:role="line"
       id="tspan4996-5-5-1-7"
       x="429.18823"
       y="498.14081"
       style="font-size:24px">Lorem Ipsum</tspan></text>
  <text
     xml:space="preserve"
     style="font-style:normal;font-weight:normal;font-size:24px;line-height:1.15;font-family:sans-serif;fill:#000000;fill-opacity:1;stroke:none"
     x="176.00542"
     y="499.83563"
     id="text4998-7-3-9-2-0"><tspan
       sodipodi:role="line"
       id="tspan4996-5-5-1-7-9"
       x="176.00542"
       y="499.83563"
       style="font-size:24px">Lorem Ipsum</tspan></text>
  <text
     xml:space="preserve"
     style="font-style:normal;font-weight:normal;font-size:24px;line-height:1.15;font-family:sans-serif;fill:#000000;fill-opacity:1;stroke:none"
     x="633.00616"
     y="52.375057"
     id="text4998-7-3-6"><tspan
       sodipodi:role="line"
       id="tspan4996-5-5-2"
       x="633.00616"
       y="52.375057"
       style="font-size:24px">Lorem Ipsum</tspan></text>
</svg>
