<svg width="533" height="307" viewBox="0 0 533 307" fill="none" xmlns="http://www.w3.org/2000/svg">
<path d="M141.183 107.724C140.588 107.842 140.113 108.437 140.232 109.031C140.47 110.339 140.588 111.647 140.588 112.955C140.588 113.669 141.064 114.144 141.777 114.144C142.49 114.144 142.965 113.669 142.965 112.955C142.965 111.528 142.846 110.102 142.609 108.675C142.49 108.08 141.777 107.605 141.183 107.724ZM138.687 98.4494C138.33 97.8549 137.617 97.736 137.023 98.0927C136.429 98.4494 136.31 99.1628 136.667 99.7573C137.499 101.184 138.33 102.611 138.925 104.275C139.162 104.87 139.875 105.227 140.47 104.989C141.064 104.751 141.42 104.038 141.183 103.443C140.47 101.66 139.638 99.9951 138.687 98.4494ZM129.536 90.8398C129.18 91.4343 129.299 92.1477 129.774 92.5044C131.2 93.4556 132.388 94.5257 133.577 95.7147C134.052 96.1903 134.765 96.1903 135.241 95.7147C135.716 95.2391 135.716 94.5257 135.241 94.0501C133.933 92.7422 132.626 91.5532 131.081 90.4831C130.606 90.2453 129.893 90.3642 129.536 90.8398ZM119.791 87.1539C119.672 87.7484 120.029 88.4618 120.742 88.5807C122.406 88.9374 123.951 89.413 125.496 90.1264C126.09 90.3642 126.803 90.1264 127.041 89.5319C127.278 88.9374 127.041 88.224 126.446 87.9862C124.783 87.2728 123 86.6783 121.217 86.3216C120.504 86.2027 119.91 86.5594 119.791 87.1539ZM110.522 85.7271C109.809 85.7271 109.333 86.2027 109.333 86.9161C109.333 87.6295 109.809 88.1051 110.522 88.1051H115.632H115.751C116.464 88.1051 116.939 87.6295 116.939 86.9161C116.939 86.2027 116.464 85.7271 115.751 85.7271H115.632H110.522ZM98.8754 86.9161C98.8754 87.6295 99.3507 88.1051 100.064 88.1051H105.293C106.006 88.1051 106.481 87.6295 106.481 86.9161C106.481 86.2027 106.006 85.7271 105.293 85.7271H100.064C99.3507 85.7271 98.8754 86.2027 98.8754 86.9161ZM88.2986 86.9161C88.2986 87.6295 88.7739 88.1051 89.487 88.1051H94.7159C95.429 88.1051 95.9044 87.6295 95.9044 86.9161C95.9044 86.2027 95.429 85.7271 94.7159 85.7271H89.487C88.8928 85.7271 88.2986 86.2027 88.2986 86.9161ZM77.8406 86.9161C77.8406 87.6295 78.3159 88.1051 79.029 88.1051H84.258C84.971 88.1051 85.4464 87.6295 85.4464 86.9161C85.4464 86.2027 84.971 85.7271 84.258 85.7271H79.029C78.4348 85.7271 77.8406 86.2027 77.8406 86.9161ZM67.3826 86.9161C67.3826 87.6295 67.858 88.1051 68.571 88.1051H73.8C74.513 88.1051 74.9884 87.6295 74.9884 86.9161C74.9884 86.2027 74.513 85.7271 73.8 85.7271H68.571C67.858 85.7271 67.3826 86.2027 67.3826 86.9161ZM56.9246 86.9161C56.9246 87.6295 57.4 88.1051 58.113 88.1051H63.342C64.0551 88.1051 64.5304 87.6295 64.5304 86.9161C64.5304 86.2027 64.0551 85.7271 63.342 85.7271H58.113C57.4 85.7271 56.9246 86.2027 56.9246 86.9161ZM46.3478 86.9161C46.3478 87.6295 46.8232 88.1051 47.5362 88.1051H52.7652C53.4783 88.1051 53.9536 87.6295 53.9536 86.9161C53.9536 86.2027 53.4783 85.7271 52.7652 85.7271H47.5362C46.942 85.7271 46.3478 86.2027 46.3478 86.9161ZM35.8899 86.9161C35.8899 87.6295 36.3652 88.1051 37.0783 88.1051H42.3072C43.0203 88.1051 43.4957 87.6295 43.4957 86.9161C43.4957 86.2027 43.0203 85.7271 42.3072 85.7271H37.0783C36.4841 85.7271 35.8899 86.2027 35.8899 86.9161ZM26.6203 85.7271C25.9072 85.7271 25.4319 86.3216 25.4319 86.9161C25.4319 87.6295 26.0261 88.1051 26.6203 88.1051C26.858 88.1051 26.9768 88.1051 27.2145 88.1051H31.8493C32.5623 88.1051 33.0377 87.6295 33.0377 86.9161C33.0377 86.2027 32.5623 85.7271 31.8493 85.7271H27.2145C26.9768 85.7271 26.858 85.7271 26.6203 85.7271ZM15.9246 88.1051C15.3304 88.3429 15.0928 89.0563 15.3304 89.6508C15.5681 90.2453 16.2812 90.4831 16.8754 90.2453C18.4203 89.5319 19.9652 89.0563 21.629 88.6996C22.2232 88.5807 22.6986 87.8673 22.5797 87.2728C22.4609 86.6783 21.7478 86.2027 21.1536 86.3216C19.371 86.7972 17.5884 87.3917 15.9246 88.1051ZM7.24928 96.1903C7.72464 96.6659 8.43768 96.547 8.91304 96.0714C9.98261 94.8824 11.2899 93.6934 12.5971 92.7422C13.0725 92.3855 13.1913 91.5532 12.8348 91.0776C12.4783 90.602 11.6464 90.4831 11.171 90.8398C9.74493 91.9099 8.31884 93.0989 7.13043 94.5257C6.65507 95.0013 6.77391 95.8336 7.24928 96.1903ZM1.54493 103.919C1.30725 104.513 1.66377 105.227 2.25797 105.464C2.85217 105.702 3.56522 105.346 3.8029 104.751C4.3971 103.205 5.11015 101.66 5.94203 100.233C6.29855 99.6384 6.06087 98.925 5.58551 98.5683C4.9913 98.2116 4.27826 98.4494 3.92174 98.925C2.97101 100.471 2.13913 102.135 1.54493 103.919ZM0 114.62C0 115.333 0.475362 115.809 1.18841 115.809C1.90145 115.809 2.37681 115.333 2.37681 114.62V112.955C2.37681 111.766 2.49565 110.696 2.61449 109.507C2.73333 108.913 2.25797 108.199 1.54493 108.199C0.950725 108.08 0.237681 108.556 0.237681 109.269C0.118841 110.458 0 111.647 0 112.955V114.62ZM1.18841 126.272C1.90145 126.272 2.37681 125.796 2.37681 125.083V119.851C2.37681 119.138 1.90145 118.662 1.18841 118.662C0.475362 118.662 0 119.138 0 119.851V125.083C0 125.796 0.475362 126.272 1.18841 126.272ZM1.18841 136.735C1.90145 136.735 2.37681 136.26 2.37681 135.546V130.315C2.37681 129.601 1.90145 129.126 1.18841 129.126C0.475362 129.126 0 129.601 0 130.315V135.546C0 136.26 0.475362 136.735 1.18841 136.735ZM1.18841 147.317C1.90145 147.317 2.37681 146.842 2.37681 146.128V140.897C2.37681 140.183 1.90145 139.708 1.18841 139.708C0.475362 139.708 0 140.183 0 140.897V146.128C0 146.723 0.475362 147.317 1.18841 147.317ZM1.18841 157.78C1.90145 157.78 2.37681 157.305 2.37681 156.591V151.36C2.37681 150.646 1.90145 150.171 1.18841 150.171C0.475362 150.171 0 150.646 0 151.36V156.591C0 157.305 0.475362 157.78 1.18841 157.78ZM1.18841 168.244C1.90145 168.244 2.37681 167.768 2.37681 167.055V161.823C2.37681 161.11 1.90145 160.634 1.18841 160.634C0.475362 160.634 0 161.11 0 161.823V167.055C0 167.768 0.475362 168.244 1.18841 168.244ZM1.18841 178.707C1.90145 178.707 2.37681 178.231 2.37681 177.518V172.286C2.37681 171.573 1.90145 171.097 1.18841 171.097C0.475362 171.097 0 171.573 0 172.286V177.518C0 178.231 0.475362 178.707 1.18841 178.707ZM1.18841 189.289C1.90145 189.289 2.37681 188.813 2.37681 188.1V182.868C2.37681 182.155 1.90145 181.679 1.18841 181.679C0.475362 181.679 0 182.155 0 182.868V188.1C0 188.695 0.475362 189.289 1.18841 189.289ZM1.18841 199.752C1.90145 199.752 2.37681 199.277 2.37681 198.563V193.332C2.37681 192.618 1.90145 192.143 1.18841 192.143C0.475362 192.143 0 192.618 0 193.332V198.563C0 199.277 0.475362 199.752 1.18841 199.752ZM1.18841 210.215C1.90145 210.215 2.37681 209.74 2.37681 209.026V203.795C2.37681 203.081 1.90145 202.606 1.18841 202.606C0.475362 202.606 0 203.081 0 203.795V209.026C0 209.74 0.475362 210.215 1.18841 210.215ZM1.18841 220.679C1.90145 220.679 2.37681 220.203 2.37681 219.49V214.258C2.37681 213.545 1.90145 213.069 1.18841 213.069C0.475362 213.069 0 213.545 0 214.258V219.49C0 220.203 0.475362 220.679 1.18841 220.679ZM1.18841 231.261C1.90145 231.261 2.37681 230.785 2.37681 230.072V224.84C2.37681 224.127 1.90145 223.651 1.18841 223.651C0.475362 223.651 0 224.127 0 224.84V230.072C0 230.666 0.475362 231.261 1.18841 231.261ZM1.18841 241.724C1.90145 241.724 2.37681 241.248 2.37681 240.535V235.303C2.37681 234.59 1.90145 234.114 1.18841 234.114C0.475362 234.114 0 234.59 0 235.303V240.535C0 241.129 0.475362 241.724 1.18841 241.724ZM1.18841 252.187C1.90145 252.187 2.37681 251.712 2.37681 250.998V245.767C2.37681 245.053 1.90145 244.578 1.18841 244.578C0.475362 244.578 0 245.053 0 245.767V250.998C0 251.712 0.475362 252.187 1.18841 252.187ZM0.594203 261.699C0.713044 262.294 1.30725 262.769 2.02029 262.65C2.61449 262.531 3.08986 261.937 2.97101 261.224C2.61449 259.678 2.37681 258.013 2.37681 256.23C2.37681 255.516 1.78261 255.041 1.18841 255.041C0.475362 255.041 0 255.635 0 256.23C0 258.132 0.237681 259.916 0.594203 261.699ZM4.87246 271.687C5.22899 272.281 5.94203 272.4 6.53623 271.925C7.13043 271.568 7.24928 270.854 6.77391 270.26C5.82319 268.952 4.9913 267.406 4.27826 265.861C4.04058 265.266 3.32754 265.028 2.73333 265.266C2.13913 265.504 1.90145 266.217 2.13913 266.812C2.97101 268.595 3.92174 270.26 4.87246 271.687ZM12.8348 279.177C13.429 279.534 14.142 279.415 14.4986 278.821C14.8551 278.226 14.7362 277.513 14.142 277.156C12.7159 276.324 11.4087 275.254 10.2203 274.065C9.74493 273.589 9.03188 273.589 8.55652 274.065C8.08116 274.54 8.08116 275.254 8.55652 275.729C9.86377 277.156 11.2899 278.226 12.8348 279.177ZM23.0551 282.982C23.6493 283.101 24.3623 282.626 24.3623 282.031C24.4812 281.437 24.0058 280.723 23.4116 280.723C21.7478 280.485 20.0841 280.01 18.5391 279.415C17.9449 279.177 17.2319 279.534 16.9942 280.129C16.7565 280.723 17.113 281.437 17.7072 281.674C19.4899 282.269 21.1536 282.744 23.0551 282.982ZM34.9391 282.15C34.9391 281.437 34.4638 280.961 33.7507 280.961H28.5217C27.8087 280.961 27.3333 281.437 27.3333 282.15C27.3333 282.863 27.8087 283.339 28.5217 283.339H33.7507C34.3449 283.339 34.9391 282.744 34.9391 282.15Z" fill="#ECAF23"/>
<path d="M519.571 255.873C520.165 255.754 520.641 255.16 520.522 254.446C520.403 253.852 519.809 253.376 519.096 253.495C517.67 253.733 516.006 253.971 514.104 253.971C513.391 253.971 512.916 254.565 512.916 255.16C512.916 255.873 513.51 256.349 514.104 256.349C516.243 256.349 518.026 256.111 519.571 255.873ZM529.435 250.76C529.91 250.285 529.791 249.571 529.316 249.096C528.841 248.62 528.128 248.739 527.652 249.215C526.701 250.285 525.513 251.236 523.849 252.068C523.255 252.306 523.017 253.019 523.374 253.614C523.612 254.208 524.325 254.446 524.919 254.089C526.82 253.138 528.246 251.949 529.435 250.76ZM533 240.178C533 239.465 532.525 238.989 531.812 238.989C531.099 238.989 530.623 239.465 530.623 240.178V241.962V242.081C530.623 242.199 530.623 242.437 530.504 242.675C530.385 243.27 530.267 243.983 530.029 244.815C529.791 245.41 530.148 246.123 530.742 246.361C531.336 246.599 532.049 246.242 532.287 245.648C533 243.507 533 241.962 533 241.843V240.178ZM531.812 228.526C531.099 228.526 530.623 229.002 530.623 229.715V234.947C530.623 235.66 531.099 236.136 531.812 236.136C532.525 236.136 533 235.66 533 234.947V229.715C533 229.12 532.406 228.526 531.812 228.526ZM531.812 218.063C531.099 218.063 530.623 218.538 530.623 219.252V224.483C530.623 225.197 531.099 225.672 531.812 225.672C532.525 225.672 533 225.197 533 224.483V219.252C533 218.538 532.406 218.063 531.812 218.063ZM531.812 207.6C531.099 207.6 530.623 208.075 530.623 208.789V214.02C530.623 214.734 531.099 215.209 531.812 215.209C532.525 215.209 533 214.734 533 214.02V208.789C533 208.075 532.406 207.6 531.812 207.6ZM531.812 197.017C531.099 197.017 530.623 197.493 530.623 198.206V203.438C530.623 204.151 531.099 204.627 531.812 204.627C532.525 204.627 533 204.151 533 203.438V198.206C533 197.612 532.406 197.017 531.812 197.017ZM531.812 186.554C531.099 186.554 530.623 187.03 530.623 187.743V192.975C530.623 193.688 531.099 194.164 531.812 194.164C532.525 194.164 533 193.688 533 192.975V187.743C533 187.149 532.406 186.554 531.812 186.554ZM531.812 176.091C531.099 176.091 530.623 176.567 530.623 177.28V182.512C530.623 183.225 531.099 183.701 531.812 183.701C532.525 183.701 533 183.225 533 182.512V177.28C533 176.567 532.406 176.091 531.812 176.091ZM531.812 165.628C531.099 165.628 530.623 166.103 530.623 166.817V172.048C530.623 172.762 531.099 173.237 531.812 173.237C532.525 173.237 533 172.762 533 172.048V166.817C533 166.103 532.406 165.628 531.812 165.628ZM531.812 155.046C531.099 155.046 530.623 155.521 530.623 156.235V161.466C530.623 162.18 531.099 162.655 531.812 162.655C532.525 162.655 533 162.18 533 161.466V156.235C533 155.64 532.406 155.046 531.812 155.046ZM531.812 144.582C531.099 144.582 530.623 145.058 530.623 145.771V151.003C530.623 151.716 531.099 152.192 531.812 152.192C532.525 152.192 533 151.716 533 151.003V145.771C533 145.177 532.406 144.582 531.812 144.582ZM531.812 134.119C531.099 134.119 530.623 134.595 530.623 135.308V140.54C530.623 141.253 531.099 141.729 531.812 141.729C532.525 141.729 533 141.253 533 140.54V135.308C533 134.595 532.406 134.119 531.812 134.119ZM531.812 123.656C531.099 123.656 530.623 124.132 530.623 124.845V130.077C530.623 130.79 531.099 131.266 531.812 131.266C532.525 131.266 533 130.79 533 130.077V124.845C533 124.132 532.406 123.656 531.812 123.656ZM531.812 113.074C531.099 113.074 530.623 113.55 530.623 114.263V119.495C530.623 120.208 531.099 120.684 531.812 120.684C532.525 120.684 533 120.208 533 119.495V114.263C533 113.668 532.406 113.074 531.812 113.074ZM531.812 102.611C531.099 102.611 530.623 103.086 530.623 103.8V109.031C530.623 109.745 531.099 110.22 531.812 110.22C532.525 110.22 533 109.745 533 109.031V103.8C533 103.205 532.406 102.611 531.812 102.611ZM531.812 92.1476C531.099 92.1476 530.623 92.6232 530.623 93.3366V98.5682C530.623 99.2816 531.099 99.7572 531.812 99.7572C532.525 99.7572 533 99.2816 533 98.5682V93.3366C533 92.6232 532.406 92.1476 531.812 92.1476ZM531.812 81.6843C531.099 81.6843 530.623 82.16 530.623 82.8733V88.1049C530.623 88.8184 531.099 89.294 531.812 89.294C532.525 89.294 533 88.8184 533 88.1049V82.8733C533 82.16 532.406 81.6843 531.812 81.6843ZM531.812 71.1022C531.099 71.1022 530.623 71.5778 530.623 72.2912V77.5228C530.623 78.2362 531.099 78.7118 531.812 78.7118C532.525 78.7118 533 78.2362 533 77.5228V72.2912C533 71.6967 532.406 71.1022 531.812 71.1022ZM531.812 60.639C531.099 60.639 530.623 61.1146 530.623 61.828V67.0596C530.623 67.773 531.099 68.2486 531.812 68.2486C532.525 68.2486 533 67.773 533 67.0596V61.828C533 61.2335 532.406 60.639 531.812 60.639ZM531.812 50.1758C531.099 50.1758 530.623 50.6514 530.623 51.3648V56.5964C530.623 57.3098 531.099 57.7854 531.812 57.7854C532.525 57.7854 533 57.3098 533 56.5964V51.3648C533 50.6514 532.406 50.1758 531.812 50.1758ZM531.812 39.7126C531.099 39.7126 530.623 40.1882 530.623 40.9016V46.1332C530.623 46.8466 531.099 47.3222 531.812 47.3222C532.525 47.3222 533 46.8466 533 46.1332V40.9016C533 40.1882 532.406 39.7126 531.812 39.7126ZM531.812 29.1305C531.099 29.1305 530.623 29.6061 530.623 30.3195V35.67C530.623 36.3834 531.099 36.859 531.812 36.859C532.525 36.859 533 36.3834 533 35.67V30.4384C533 29.725 532.406 29.1305 531.812 29.1305ZM531.812 18.6673C531.099 18.6673 530.623 19.1429 530.623 19.8563V25.0879C530.623 25.8013 531.099 26.2769 531.812 26.2769C532.525 26.2769 533 25.8013 533 25.0879V19.8563C533 19.2618 532.406 18.6673 531.812 18.6673ZM530.98 9.1553C530.623 8.56081 529.91 8.32301 529.316 8.67971C528.722 9.03641 528.484 9.74981 528.841 10.3443C529.554 11.7711 530.148 13.3168 530.385 14.9814C530.504 15.5759 531.099 16.0515 531.693 15.9326C532.287 15.8137 532.762 15.2192 532.643 14.6247C532.406 12.6034 531.812 10.8199 530.98 9.1553ZM521.354 2.1402C521.116 2.7347 521.354 3.4481 521.948 3.6859C523.374 4.3993 524.8 5.2316 525.988 6.4206C526.464 6.8962 527.177 6.8962 527.652 6.4206C528.128 5.945 528.128 5.2316 527.652 4.756C526.345 3.4481 524.681 2.378 523.017 1.6646C522.304 1.3079 521.591 1.5457 521.354 2.1402ZM512.084 0C511.371 0 510.896 0.4756 510.896 1.189C510.896 1.9024 511.371 2.378 512.084 2.378H515.768C516.243 2.378 516.719 2.378 517.194 2.4969C517.788 2.6158 518.383 2.1402 518.501 1.4268C518.62 0.832301 518.145 0.2378 517.432 0.1189C516.957 0 516.362 0 515.768 0H512.084ZM500.438 1.189C500.438 1.9024 500.913 2.378 501.626 2.378H506.855C507.568 2.378 508.043 1.9024 508.043 1.189C508.043 0.4756 507.568 0 506.855 0H501.626C501.032 0 500.438 0.4756 500.438 1.189ZM489.98 1.189C489.98 1.9024 490.455 2.378 491.168 2.378H496.397C497.11 2.378 497.586 1.9024 497.586 1.189C497.586 0.4756 497.11 0 496.397 0H491.168C490.455 0 489.98 0.4756 489.98 1.189ZM479.522 1.189C479.522 1.9024 479.997 2.378 480.71 2.378H485.939C486.652 2.378 487.128 1.9024 487.128 1.189C487.128 0.4756 486.652 0 485.939 0H480.71C479.997 0 479.522 0.4756 479.522 1.189ZM468.945 1.189C468.945 1.9024 469.42 2.378 470.133 2.378H475.362C476.075 2.378 476.551 1.9024 476.551 1.189C476.551 0.4756 476.075 0 475.362 0H470.133C469.539 0 468.945 0.4756 468.945 1.189ZM458.487 1.189C458.487 1.9024 458.962 2.378 459.675 2.378H464.904C465.617 2.378 466.093 1.9024 466.093 1.189C466.093 0.4756 465.617 0 464.904 0H459.675C459.081 0 458.487 0.4756 458.487 1.189ZM448.029 1.189C448.029 1.9024 448.504 2.378 449.217 2.378H454.446C455.159 2.378 455.635 1.9024 455.635 1.189C455.635 0.4756 455.159 0 454.446 0H449.217C448.504 0 448.029 0.4756 448.029 1.189ZM437.571 1.189C437.571 1.9024 438.046 2.378 438.759 2.378H443.988C444.701 2.378 445.177 1.9024 445.177 1.189C445.177 0.4756 444.701 0 443.988 0H438.759C438.046 0 437.571 0.4756 437.571 1.189ZM426.994 1.189C426.994 1.9024 427.47 2.378 428.183 2.378H433.412C434.125 2.378 434.6 1.9024 434.6 1.189C434.6 0.4756 434.125 0 433.412 0H428.183C427.588 0 426.994 0.4756 426.994 1.189ZM416.536 1.189C416.536 1.9024 417.012 2.378 417.725 2.378H422.954C423.667 2.378 424.142 1.9024 424.142 1.189C424.142 0.4756 423.667 0 422.954 0H417.725C417.13 0 416.536 0.4756 416.536 1.189ZM406.078 1.189C406.078 1.9024 406.554 2.378 407.267 2.378H412.496C413.209 2.378 413.684 1.9024 413.684 1.189C413.684 0.4756 413.209 0 412.496 0H407.267C406.554 0 406.078 0.4756 406.078 1.189ZM396.452 0.5945C395.858 0.7134 395.383 1.4268 395.62 2.0213C395.739 2.6158 396.452 3.0914 397.046 2.8536C398.235 2.4969 399.542 2.378 400.849 2.378H402.038C402.751 2.378 403.226 1.9024 403.226 1.189C403.226 0.4756 402.751 0 402.038 0H400.849C399.423 0 397.878 0.2378 396.452 0.5945ZM387.301 6.6584C386.945 7.134 386.945 7.9663 387.539 8.323C388.014 8.67971 388.846 8.67971 389.203 8.08521C390.154 6.7773 391.342 5.7072 392.768 4.756C393.362 4.3993 393.481 3.6859 393.125 3.0914C392.768 2.4969 392.055 2.378 391.461 2.7347C389.797 3.9237 388.49 5.2316 387.301 6.6584ZM383.736 17.1216C383.736 17.835 384.212 18.3106 384.925 18.3106C385.638 18.3106 386.113 17.835 386.113 17.1216C386.113 15.457 386.351 13.7924 386.945 12.3656C387.183 11.7711 386.826 11.0577 386.232 10.8199C385.638 10.5821 384.925 10.9388 384.687 11.5333C384.093 13.3168 383.736 15.2192 383.736 17.1216Z" fill="#ECAF23"/>
<path d="M385.281 21.283C388.3 21.283 390.748 18.8343 390.748 15.8136C390.748 12.793 388.3 10.3442 385.281 10.3442C382.262 10.3442 379.814 12.793 379.814 15.8136C379.814 18.8343 382.262 21.283 385.281 21.283Z" fill="#ECAF23"/>
<path d="M401.8 265.385H76.4145C70.3536 265.385 65.3623 260.391 65.3623 254.327V230.309H412.733V254.327C412.852 260.391 407.861 265.385 401.8 265.385Z" fill="#E5E5E5" stroke="#2A2A30" stroke-miterlimit="10"/>
<path d="M275.472 265.385H204.168V296.061H275.472V265.385Z" fill="#303037" stroke="#2A2A30" stroke-miterlimit="10"/>
<path d="M412.852 230.785H65.3623V37.929C65.3623 32.3407 69.8782 27.7036 75.5826 27.7036H402.513C408.099 27.7036 412.733 32.2218 412.733 37.929V230.785H412.852Z" fill="#303037" stroke="#2A2A30" stroke-miterlimit="10"/>
<path d="M400.849 42.3284H79.5044V218.3H400.849V42.3284Z" fill="white"/>
<path d="M246.951 246.242C246.951 250.522 243.386 254.089 239.107 254.089C234.829 254.089 231.264 250.522 231.264 246.242C231.264 241.962 234.829 238.395 239.107 238.395C243.386 238.395 246.951 241.843 246.951 246.242Z" fill="white"/>
<path d="M305.896 306.406H172.319C172.319 300.698 176.954 296.061 182.658 296.061H295.675C301.38 296.061 305.896 300.698 305.896 306.406Z" fill="#303037" stroke="#2A2A30" stroke-miterlimit="10"/>
<path d="M225.322 75.9771H113.849V187.505H225.322V75.9771Z" fill="#91B1FA"/>
<path d="M212.725 124.251C212.725 133.763 205 141.372 195.612 141.372C186.104 141.372 178.499 133.644 178.499 124.251C178.499 114.739 186.223 107.129 195.612 107.129C205 107.129 212.725 114.739 212.725 124.251Z" fill="#F2D279"/>
<path d="M173.745 152.549L193.591 128.769L225.322 157.423V187.505H173.745V152.549Z" fill="#DAE6F5"/>
<path d="M113.849 152.073L136.31 117.592L207.852 187.505H113.849V152.073Z" fill="#344B7E"/>
<path d="M358.661 105.821H243.029C242.197 105.821 241.603 105.226 241.603 104.394V101.065C241.603 100.233 242.197 99.6382 243.029 99.6382H358.661C359.493 99.6382 360.087 100.233 360.087 101.065V104.394C360.087 105.108 359.493 105.821 358.661 105.821Z" fill="#DAE6F5"/>
<path d="M326.574 137.686H243.029C242.197 137.686 241.603 137.092 241.603 136.259V132.93C241.603 132.098 242.197 131.503 243.029 131.503H326.574C327.406 131.503 328 132.098 328 132.93V136.259C327.881 137.092 327.287 137.686 326.574 137.686Z" fill="#DAE6F5"/>
<path d="M356.997 153.619H244.455C242.791 153.619 241.484 152.311 241.484 150.646V150.409C241.484 148.744 242.791 147.436 244.455 147.436H356.997C358.661 147.436 360.087 148.863 360.087 150.527C360.087 152.192 358.661 153.619 356.997 153.619Z" fill="#DAE6F5"/>
<path d="M275.473 169.551H242.91C242.078 169.551 241.484 168.957 241.484 168.125V164.795C241.484 163.963 242.078 163.369 242.91 163.369H275.473C276.304 163.369 276.899 163.963 276.899 164.795V168.125C276.899 168.957 276.304 169.551 275.473 169.551Z" fill="#DAE6F5"/>
<path d="M304.707 121.754H242.91C242.078 121.754 241.484 121.159 241.484 120.327V116.998C241.484 116.165 242.078 115.571 242.91 115.571H304.707C305.539 115.571 306.133 116.165 306.133 116.998V120.327C306.133 121.159 305.539 121.754 304.707 121.754Z" fill="#DAE6F5"/>
<path d="M97.8058 146.247H34.2261C28.2841 146.247 23.4116 151.122 23.4116 157.067V293.802C23.4116 299.747 28.2841 304.622 34.2261 304.622H97.8058C103.748 304.622 108.62 299.747 108.62 293.802V157.067C108.62 151.122 103.867 146.247 97.8058 146.247Z" fill="#303037" stroke="#2A2A30" stroke-miterlimit="10"/>
<path d="M64.055 298.558C60.4898 298.558 57.5188 295.586 57.5188 292.019C57.5188 288.452 60.4898 285.479 64.055 285.479C67.6203 285.479 70.5913 288.452 70.5913 292.019C70.5913 295.586 67.6203 298.558 64.055 298.558Z" fill="white"/>
<path d="M101.49 160.158H29.7102V279.415H101.49V160.158Z" fill="white"/>
<path d="M89.8435 171.811H41.2377V220.441H89.8435V171.811Z" fill="#91B1FA"/>
<path d="M76.771 200.347C80.9059 200.347 84.258 196.993 84.258 192.856C84.258 188.719 80.9059 185.365 76.771 185.365C72.6361 185.365 69.2841 188.719 69.2841 192.856C69.2841 196.993 72.6361 200.347 76.771 200.347Z" fill="#F2D279"/>
<path d="M67.2638 205.103L75.9392 194.758L89.8435 207.243V220.441H67.2638V205.103Z" fill="#DAE6F5"/>
<path d="M41.2377 204.984L50.9826 189.883L82.2377 220.441H41.2377V204.984Z" fill="#344B7E"/>
<path d="M66.0753 236.017H43.1391C42.3072 236.017 41.713 235.422 41.713 234.59V231.261C41.713 230.428 42.3072 229.834 43.1391 229.834H66.0753C66.9072 229.834 67.5014 230.428 67.5014 231.261V234.59C67.5014 235.422 66.9072 236.017 66.0753 236.017Z" fill="#DAE6F5"/>
<path d="M66.0753 264.077H43.1391C42.3072 264.077 41.713 263.483 41.713 262.65V259.321C41.713 258.489 42.3072 257.894 43.1391 257.894H66.0753C66.9072 257.894 67.5014 258.489 67.5014 259.321V262.65C67.5014 263.364 66.9072 264.077 66.0753 264.077Z" fill="#DAE6F5"/>
<path d="M89.8434 250.047H43.1391C42.3072 250.047 41.713 249.452 41.713 248.62V245.291C41.713 244.459 42.3072 243.864 43.1391 243.864H89.8434C90.6753 243.864 91.2695 244.459 91.2695 245.291V248.62C91.2695 249.452 90.6753 250.047 89.8434 250.047Z" fill="#DAE6F5"/>
<path d="M500.438 104.038H386.588C378.983 104.038 372.922 110.22 372.922 117.711V290.83C372.922 298.439 379.101 304.503 386.588 304.503H500.438C508.044 304.503 514.104 298.32 514.104 290.83V117.83C514.223 110.22 508.044 104.038 500.438 104.038Z" fill="#303037" stroke="#2A2A30" stroke-miterlimit="10"/>
<path d="M441.374 296.894C436.739 296.894 433.055 293.208 433.055 288.571C433.055 283.933 436.739 280.248 441.374 280.248C446.009 280.248 449.693 283.933 449.693 288.571C449.693 293.208 446.009 296.894 441.374 296.894Z" fill="white"/>
<path d="M505.072 121.635H380.884V272.638H505.072V121.635Z" fill="white"/>
<path d="M485.464 138.4H399.423V224.483H485.464V138.4Z" fill="#91B1FA"/>
<path d="M475.6 175.615C475.6 182.868 469.658 188.813 462.409 188.813C455.159 188.813 449.217 182.868 449.217 175.615C449.217 168.362 455.159 162.417 462.409 162.417C469.777 162.417 475.6 168.362 475.6 175.615Z" fill="#F2D279"/>
<path d="M445.533 197.493L460.864 179.063L485.345 201.179V224.364H445.533V197.493Z" fill="#DAE6F5"/>
<path d="M399.423 197.136L416.774 170.503L471.916 224.364H399.423V197.136Z" fill="#344B7E"/>
<path d="M423.667 241.605H400.73C399.899 241.605 399.304 241.01 399.304 240.178V236.849C399.304 236.017 399.899 235.422 400.73 235.422H423.667C424.499 235.422 425.093 236.017 425.093 236.849V240.178C425.093 240.892 424.499 241.605 423.667 241.605Z" fill="#DAE6F5"/>
<path d="M485.464 255.635H400.849C400.017 255.635 399.423 255.041 399.423 254.208V250.879C399.423 250.047 400.017 249.452 400.849 249.452H485.464C486.296 249.452 486.89 250.047 486.89 250.879V254.208C486.89 254.922 486.177 255.635 485.464 255.635Z" fill="#DAE6F5"/>
</svg>
